<svg xmlns="http://www.w3.org/2000/svg" viewBox="0 0 57.347 47.609">
  <g transform="translate(1.198 1)">
    <g transform="translate(27.871)">
      <path d="M6.6-1a6.931,6.931,0,0,1,5.453,2.829A10.546,10.546,0,0,1,14.2,8.362a10.546,10.546,0,0,1-2.149,6.532A6.931,6.931,0,0,1,6.6,17.724a6.931,6.931,0,0,1-5.453-2.829A10.546,10.546,0,0,1-1,8.362,10.546,10.546,0,0,1,1.149,1.829,6.931,6.931,0,0,1,6.6-1Zm0,16.724c3.089,0,5.6-3.3,5.6-7.362S9.69,1,6.6,1,1,4.3,1,8.362,3.513,15.724,6.6,15.724Z" transform="translate(7.146)" fill="#00659f"/>
      <path d="M8.837-1h9.6a9.848,9.848,0,0,1,9.837,9.837V24.063H-1V8.837A9.848,9.848,0,0,1,8.837-1ZM26.278,22.063V8.837A7.846,7.846,0,0,0,18.441,1h-9.6A7.846,7.846,0,0,0,1,8.837V22.063Z" transform="translate(0 21.78)" fill="#00659f"/>
    </g>
    <g transform="translate(0 24.301)">
      <rect transform="translate(31.962 19.371)" fill="#fff"/>
      <path d="M-1-1H10.685V2.937H-1Z" transform="translate(31.962 19.371)" fill="#00659f"/>
      <path d="M758.916,446.212H730.344L726.47,424.9h28.572Z" transform="translate(-726.47 -424.904)" fill="#fff"/>
      <path d="M760.114,447.212h-30.6L725.272,423.9h30.6Zm-28.936-2h26.539L754.207,425.9H727.668Z" transform="translate(-726.47 -424.904)" fill="#00659f"/>
    </g>
    <g transform="translate(12.27 13.407)">
      <path d="M.024,5.9-.985.174.985-.174,1.994,5.549Z" fill="#00659f"/>
      <path d="M.985,5.9l-1.97-.347L.024-.174l1.97.347Z" transform="translate(4.358)" fill="#00659f"/>
      <path d="M.707,4.581-.707,3.167,3.167-.707,4.581.707Z" transform="translate(7.284 1.893)" fill="#00659f"/>
    </g>
    <ellipse cx="3.632" cy="2.179" rx="3.632" ry="2.179" transform="translate(11.622 33.018)" fill="#fff"/>
    <path d="M3.632-1a6.072,6.072,0,0,1,3.083.781,2.863,2.863,0,0,1,1.549,2.4,2.863,2.863,0,0,1-1.549,2.4,6.072,6.072,0,0,1-3.083.781A6.072,6.072,0,0,1,.549,4.578,2.863,2.863,0,0,1-1,2.179,2.863,2.863,0,0,1,.549-.219,6.072,6.072,0,0,1,3.632-1Zm0,4.358c1.582,0,2.632-.71,2.632-1.179S5.214,1,3.632,1,1,1.71,1,2.179,2.05,3.358,3.632,3.358Z" transform="translate(11.622 33.018)" fill="#00659f"/>
  </g>
</svg>
