<svg xmlns="http://www.w3.org/2000/svg" viewBox="0 0 72.18 39.01">
  <g transform="translate(1 1)">
    <g transform="translate(24.479 1)">
      <ellipse cx="5.001" cy="6.335" rx="5.001" ry="6.335" transform="translate(30.672)" fill="#fff"/>
      <path d="M5-1A5.488,5.488,0,0,1,9.322,1.236,8.232,8.232,0,0,1,11,6.335a8.232,8.232,0,0,1-1.68,5.1A5.488,5.488,0,0,1,5,13.669,5.488,5.488,0,0,1,.68,11.433,8.232,8.232,0,0,1-1,6.335a8.232,8.232,0,0,1,1.68-5.1A5.488,5.488,0,0,1,5-1ZM5,11.669a3.533,3.533,0,0,0,2.751-1.475A6.229,6.229,0,0,0,9,6.335a6.229,6.229,0,0,0-1.25-3.86A3.533,3.533,0,0,0,5,1,3.533,3.533,0,0,0,2.25,2.475,6.229,6.229,0,0,0,1,6.335a6.229,6.229,0,0,0,1.25,3.86A3.533,3.533,0,0,0,5,11.669Z" transform="translate(30.672)" fill="#00659f"/>
      <path d="M1159.95,345.289h-7.813l-8.335,7.335a.7.7,0,0,1-.931.054l-.069-.054-5.334-4c-2.334-1.667-5.335,2.667-3.668,4l9.335,8,.013.01a.728.728,0,0,0,.988-.01l6-5.668.308-.29V365.3H1169.5V352.269a7.27,7.27,0,0,0-5.817-6.98Z" transform="translate(-1123.799 -329.286)" fill="#fff"/>
      <path d="M1151.76,344.289h12.027l.1.021a8.472,8.472,0,0,1,4.662,2.767,7.987,7.987,0,0,1,1.95,5.192V366.3h-21.055v-9.309l-4.622,4.365a1.728,1.728,0,0,1-2.32.048l-.019-.016-9.323-7.992a2.646,2.646,0,0,1-.627-3.06,4.477,4.477,0,0,1,3.8-3.086,2.9,2.9,0,0,1,1.713.562l.019.014,5.224,3.918Zm11.816,2h-11.061l-8.032,7.068a1.688,1.688,0,0,1-1.176.472,1.708,1.708,0,0,1-1.056-.367l-.057-.044-5.315-3.987a.923.923,0,0,0-.542-.184,2.55,2.55,0,0,0-1.916,1.748c-.115.328-.159.718,0,.848l.026.022,9.176,7.866,6.131-5.79,1.686-1.589V364.3H1168.5V352.269A6.23,6.23,0,0,0,1163.576,346.289Z" transform="translate(-1123.799 -329.286)" fill="#00659f"/>
      <path d="M10,10a1.992,1.992,0,0,1-1.248-.438l-10-8a2,2,0,0,1-.312-2.811,2,2,0,0,1,2.811-.312l10,8A2,2,0,0,1,10,10Z" transform="translate(0 12.002)" fill="#00659f"/>
    </g>
    <path d="M1119.274,345.841h-31.119V316.674h45.112v20.194h-2V318.674h-41.112v25.166h29.119Z" transform="translate(-1086.783 -317.674)" fill="#00659f"/>
    <path d="M1084.794,355.168h34.43l.284.251,1.651,1.459,1.932,1.709.338.3v2.121h-38.634Zm33.673,2h-31.673v1.839h33.752l-.713-.63Z" transform="translate(-1085.794 -329.001)" fill="#00659f"/>
  </g>
</svg>
