<svg xmlns="http://www.w3.org/2000/svg" viewBox="0 0 66.824 51.115">
  <g transform="translate(1)">
    <g transform="translate(0 7.884)">
      <path d="M6.5-1a6.9,6.9,0,0,1,5.372,2.713A9.963,9.963,0,0,1,14,8a9.963,9.963,0,0,1-2.128,6.287A6.9,6.9,0,0,1,6.5,17a6.9,6.9,0,0,1-5.372-2.713A9.963,9.963,0,0,1-1,8,9.963,9.963,0,0,1,1.128,1.713,6.9,6.9,0,0,1,6.5-1Zm0,16C9.533,15,12,11.86,12,8S9.533,1,6.5,1,1,4.14,1,8,3.467,15,6.5,15Z" transform="translate(7 0.231)" fill="#00659f"/>
      <path d="M9.464-1h7.072A10.476,10.476,0,0,1,27,9.464V23H-1V9.464A10.476,10.476,0,0,1,9.464-1ZM25,21V9.464A8.474,8.474,0,0,0,16.536,1H9.464A8.474,8.474,0,0,0,1,9.464V21Z" transform="translate(0 20.231)" fill="#00659f"/>
    </g>
    <path d="M604.561,312h22.924a1.461,1.461,0,0,1,1.561,1.335v16.636a1.461,1.461,0,0,1-1.561,1.335h-9.145a1.732,1.732,0,0,0-.987.3l-6.6,4.6a1.6,1.6,0,0,1-2.548-1.034v-2.536a1.461,1.461,0,0,0-1.561-1.335h-2.087A1.461,1.461,0,0,1,603,329.971V313.335A1.461,1.461,0,0,1,604.561,312Z" transform="translate(-578.779 -312)" fill="#a8dff8"/>
    <path d="M647.605,325H627.377A1.377,1.377,0,0,0,626,326.377v17.163a1.377,1.377,0,0,0,1.377,1.377h8.069a1.378,1.378,0,0,1,.871.31l5.82,4.75a1.377,1.377,0,0,0,2.248-1.067V346.3a1.377,1.377,0,0,1,1.377-1.377h1.842a1.377,1.377,0,0,0,1.377-1.377V326.377A1.377,1.377,0,0,0,647.605,325Z" transform="translate(-584.159 -315.041)" fill="#fff"/>
    <path d="M627.377,324h20.228a2.38,2.38,0,0,1,2.377,2.377v17.163a2.38,2.38,0,0,1-2.377,2.377h-1.842a.378.378,0,0,0-.377.377v2.615a2.385,2.385,0,0,1-2.384,2.38,2.344,2.344,0,0,1-1.5-.538l-5.82-4.75a.379.379,0,0,0-.239-.085h-8.069A2.38,2.38,0,0,1,625,343.541V326.377A2.38,2.38,0,0,1,627.377,324Zm20.228,19.918a.378.378,0,0,0,.377-.377V326.377a.378.378,0,0,0-.377-.377H627.377a.378.378,0,0,0-.377.377v17.163a.378.378,0,0,0,.377.377h8.069a2.385,2.385,0,0,1,1.5.535l5.82,4.75a.357.357,0,0,0,.232.088.38.38,0,0,0,.384-.38V346.3a2.38,2.38,0,0,1,2.377-2.377Z" transform="translate(-584.159 -315.041)" fill="#00659f"/>
  </g>
</svg>
