<svg xmlns="http://www.w3.org/2000/svg" viewBox="0 0 234.06 225.214">
  <g transform="translate(0 0)">
    <circle cx="105" cy="105" r="105" transform="translate(24.06 15.214)" fill="#fff"/>
    <g transform="translate(1.337)">
      <path d="M315.706,120.634c.277.156-11.408,5.148.317,28.6,35.177-4.4,48.369-85.745,4.311-78.456.411.607-18,12.017-20.434,13.232C299.9,84.009,296.236,109.659,315.706,120.634Z" transform="translate(-170.184 -47.886)" fill="#fff"/>
      <path d="M270.877,262.149c5.863-3.664,5.591,1.582,5.863,2.2.558,1.267,10.969-2.191,14.235-4.74,1.086-.848,4.226-.765,5.552-.39.508.144,11.85-.213,12.591-.651,1.125-.665,5-7.411,1.527-15.4-8.934.79-13.386,2.122-32.44-5.207-3.42-1.315-14.692,11-18.638,15.572C259.885,260.683,269.334,263.113,270.877,262.149Z" transform="translate(-159.483 -92.646)" fill="#fff"/>
      <path d="M145.719,256.491c18.863,1.141,75.108,6.458,83.546,5.863,12.459-4.4,15.39-5.13,24.917-8.062V248.43c-8.874,2.241-18.242,5.82-27.116,8.062-4.827-19.658-11-39.291-17.455-58.474C198.273,196.54,129.388,191.888,123,192,124.388,193.058,144.253,249.9,145.719,256.491Z" transform="translate(-123 -80.392)" fill="#f6f8f9"/>
      <path d="M291,138.573l15.216,1.841a11.852,11.852,0,0,0,4.308-.007,4.026,4.026,0,0,0,3.055-2.76,4.293,4.293,0,0,0-1.518-3.889,27.292,27.292,0,0,0-3.6-2.462c-2.654-1.787-4.465-4.27-6.339-6.8-1.855-2.5-1.973-.761-2.393,1.606a18.194,18.194,0,0,1-2.618,7.364C296.17,134.859,292.994,138.814,291,138.573Z" transform="translate(-167.88 -62.033)" fill="#fff"/>
      <path d="M295.132,70.283c.4,2.016,1.244,4.208,3.127,5.035,1.694.745,3.66.125,5.351-.629a35.772,35.772,0,0,0,14.849-12.379,104.577,104.577,0,0,0,16.67,18.839c.177-2.944,4.2-4.5,6.748-3.021s3.479,4.858,2.94,7.757-2.237,5.431-3.921,7.852-3.431,4.9-4.093,7.777a14.5,14.5,0,0,0,2.29,10.86,17.334,17.334,0,0,0,10.047,7.514,13.939,13.939,0,0,0,12.13-2.47,2.525,2.525,0,0,0,.965-1.278c.216-.909-.489-1.751-1.115-2.443a36.142,36.142,0,0,1-7.631-13.291c-2.319-7.322-2.238-15.147-2.565-22.821s-1.168-15.611-5.048-22.239a31.561,31.561,0,0,0-10.685-10.659,30.864,30.864,0,0,0-18.241-4.91C302.062,40.84,292.267,56.031,295.132,70.283Z" transform="translate(-168.85 -39.71)" fill="#f6f8f9"/>
      <path d="M264.667,276.283a42.639,42.639,0,0,0,11.754-3.452l.267-4.3c-4.242,2.545-11.832.553-13.769.347C261.919,268.767,264.606,276.292,264.667,276.283Z" transform="translate(-160.318 -100.836)" fill="#cecece"/>
    </g>
    <g transform="translate(77.556 46.618)">
      <path d="M236.422,164.354c3.848,1.546,10.993,2.931,15.111-5.973.545-1.178-1.186-4.287,3.944-6.486.923-.4,4.577-7.736,5.863-10.26.579-1.137,2.2-6.6-.733-7.329-1.724-.431-5.863,8.794-10.333,7.054-3.526-1.373-.251-10.838,1.854-11.21,1.163-.2,7.013,4.889,10.677,1.225-4.4-8.061-7.295-8.945-9.252-8.833-2.383.136-3.974,2.624-6.269,3.282-.476-3.8-2.068-21.565-9.4-20.832-.038,1.9-.938,4.1-.976,6-.557-.781-4.116-2.221-4.542-1.361-.232.471.343,5.98.578,8.2-.058-.549-3.086-.481-3.542.046C228.669,118.729,235.588,160.533,236.422,164.354Z" transform="translate(-227.629 -103.761)" fill="#fff"/>
      <path d="M262.512,134.053a4.153,4.153,0,0,0-1.006-.984,6.622,6.622,0,0,0,1.222-.695,1.132,1.132,0,0,0,.394-1.5,1.013,1.013,0,0,0-.183-.22,1.068,1.068,0,0,0-.185-.419l-3.48-4.917c-.994-1.4-1.926-3.189-3.356-4.2-1.5-1.064-3.312-.643-4.775.265-1.22.758-2.376,1.646-3.529,2.521q-.549-3.192-1.1-6.385a51.541,51.541,0,0,0-1.451-7.126c-1.157-3.587-4.419-8.094-8.78-6.864a1.012,1.012,0,0,0-.678.557.881.881,0,0,0-.213.649l.339,3.6c-.029-.023-.056-.048-.086-.07a4.388,4.388,0,0,0-4.6-.614c-.024,0-.05.005-.073.012a.988.988,0,0,0-.539.378l-.02.012a.872.872,0,0,0-.156,1.307l.943,6.224a3.452,3.452,0,0,0-.688-.324c-1.807-.6-4.106.844-3.383,2.914q3.467,19.833,6.934,39.666c.243,1.392,2.362.8,2.12-.584q-3.435-19.649-6.869-39.3a1.091,1.091,0,0,0-.062-.359c-.139-.394.405-.346.736-.179a4.052,4.052,0,0,1,1.34,1.536,18.574,18.574,0,0,1,1.843,3.867,50.82,50.82,0,0,1,1.913,8.549c.227,1.392,2.347.8,2.12-.585-.631-3.867-1.314-7.779-3.069-11.323-.087-.175-.179-.358-.274-.542a1.533,1.533,0,0,0-.005-.384l-1.387-9.156c1.043-.207,2.345.953,2.885,1.625a13.276,13.276,0,0,1,1.968,4.06,45.583,45.583,0,0,1,2.323,11.019c.117,1.4,2.317,1.412,2.2,0a44.73,44.73,0,0,0-3.093-13.442c-.207-.5-.437-.983-.691-1.455a.845.845,0,0,0,.092-.465q-.243-2.584-.487-5.17a5.06,5.06,0,0,1,3.65,2.2,12.951,12.951,0,0,1,2.147,5.189c.919,4.163,1.49,8.426,2.212,12.626a1.053,1.053,0,0,0,.161.417,1.094,1.094,0,0,0,.126.359,1.108,1.108,0,0,0,1.5.394c1.339-.98,2.671-1.971,4.018-2.94,1.112-.8,2.448-1.706,3.6-.507a32.028,32.028,0,0,1,2.713,3.733l2.845,4.02a4.835,4.835,0,0,1-6.766-3,1.107,1.107,0,0,0-2.159.392c-.032.012-.064.02-.1.036a8.824,8.824,0,0,0-4.828,9.057c.234,1.739,1,3.9,2.624,4.809,2.047,1.14,3.7-.646,5.056-1.98q2.531-2.5,4.812-5.228a1.3,1.3,0,0,0,.259-.54c.624-.03,1.212.647,1.411,1.164a4.3,4.3,0,0,1-.306,3.009,20.967,20.967,0,0,1-3.615,5.406,1.333,1.333,0,0,0-.3.684,1.18,1.18,0,0,0-.139.448,8.111,8.111,0,0,1-4.678,6.4c-3.331,1.486-7.167.5-10.528-.325-1.374-.337-1.96,1.783-.584,2.12,2.924.717,6.035,1.4,9.021,1.011q-.024,2.561-.047,5.123a1.083,1.083,0,0,0,.21.632.9.9,0,0,0-.241.68l.6,6.928a1.1,1.1,0,0,0,2.2,0l-.6-6.928a1.351,1.351,0,0,0-.221-.629,1.072,1.072,0,0,0,.252-.683q.025-2.819.051-5.637a9.926,9.926,0,0,0,6.728-8.476c1.79-2.165,3.735-4.512,4.364-7.31A5.124,5.124,0,0,0,262.512,134.053ZM253.32,138.4q-.638.639-1.291,1.261a3.151,3.151,0,0,1-1.014.8c-.646.214-1.109-.589-1.364-1.063a6.636,6.636,0,0,1,2.957-8.968,7.3,7.3,0,0,0,3.521,2.87,6.45,6.45,0,0,0,1.513.367Q255.582,136.126,253.32,138.4Z" transform="translate(-227.002 -103.321)"/>
    </g>
    <g transform="translate(123.459 37.063)">
      <path d="M326.629,115.782a9.961,9.961,0,0,1-5.375,6.977,11.859,11.859,0,0,1-9.417.432c-6.986-2.433-10.745-9.465-12.218-16.3A76.419,76.419,0,0,1,298.378,92.9a1.1,1.1,0,0,0-2.2,0c.174,6.207.418,12.759,2.47,18.674a1.064,1.064,0,0,0-.111.786,14.956,14.956,0,0,1-8.334,16.793c-1.28.6-.166,2.5,1.11,1.9a17.066,17.066,0,0,0,9.71-14.367c.237.392.48.782.742,1.165a20.487,20.487,0,0,0,2.108,2.578,1.074,1.074,0,0,0-.168.577,9.33,9.33,0,0,1-5.524,8.284,1.136,1.136,0,0,0-.768,1.352,1.106,1.106,0,0,0,1.352.767,11.6,11.6,0,0,0,7.049-9.2,19.469,19.469,0,0,0,2.978,1.964,1.13,1.13,0,0,0-.013.114c0,.177-.016.355-.037.532,0,.024-.01.056-.016.091-.015.08-.032.159-.05.237a5.692,5.692,0,0,1-.16.559c-.026.076-.058.151-.084.228a.031.031,0,0,0,0,.015l-.018.035a6.508,6.508,0,0,1-.53.926c-.026.036-.1.132-.1.139-.048.058-.1.116-.145.171-.119.133-.243.26-.373.382-.059.055-.119.108-.181.161-.013.012-.138.1-.144.111-.127.088-.252.176-.385.255a9.658,9.658,0,0,1-1.043.52,11.067,11.067,0,0,0-2.111,1.084,1.127,1.127,0,0,0-.394,1.5,1.112,1.112,0,0,0,1.5.394,12.257,12.257,0,0,1,2.257-1.149,7.285,7.285,0,0,0,2.192-1.461,6.946,6.946,0,0,0,1.871-3.45,5.117,5.117,0,0,1,1.245,4.349,5.242,5.242,0,0,1-2.714,3.59c-1.251.663-.141,2.561,1.11,1.9a7.338,7.338,0,0,0,3.752-5.044,7.428,7.428,0,0,0-.58-4.446,13.366,13.366,0,0,0,7.9-.864,12.165,12.165,0,0,0,7.214-8.684C329,114.983,326.883,114.39,326.629,115.782Z" transform="translate(-289.638 -90.698)"/>
      <path d="M355.409,112.509l0-.007-.034-.071A.153.153,0,0,0,355.409,112.509Z" transform="translate(-307.198 -96.199)"/>
      <path d="M351.914,113.947h0v0Z" transform="translate(-306.274 -96.602)"/>
      <path d="M359.976,94.09a5.973,5.973,0,0,0-5.055-3.807,4.483,4.483,0,0,0-4.555,3.477,1.136,1.136,0,0,0,.768,1.353,1.107,1.107,0,0,0,1.352-.768,2.344,2.344,0,0,1,2.723-1.842,4.225,4.225,0,0,1,2.986,3.049,14.319,14.319,0,0,1,.12,6.062c-.207,1.62-.706,3.637-2.576,3.959a.923.923,0,0,0-.1.027,4.539,4.539,0,0,0-1.309-1.645,1.1,1.1,0,0,0-1-.682,4.431,4.431,0,0,0-3.845,2.053,3.81,3.81,0,0,0,.177,4.265,3.411,3.411,0,0,0,3.824,1.217,3.81,3.81,0,0,0,2.506-3.11,1.23,1.23,0,0,0,.335-.007c2.654-.456,3.787-3.139,4.117-5.516C360.809,99.517,361.09,96.615,359.976,94.09ZM353.5,108.216c-.026.029-.052.059-.079.088s-.166.2-.224.209l.1-.077c-.031.023-.062.045-.094.066-.052.036-.106.07-.161.1s-.088.05-.133.073-.207.06-.087.04a.244.244,0,0,0-.034.008c-.048.015-.1.029-.144.042l-.1.026h-.012c-.032,0-.155.012-.254.013l-.059-.018c-.05-.015-.1-.024-.151-.039,0,0-.049-.012-.089-.025l-.01-.007c-.1-.054-.2-.117-.3-.174-.039-.034-.079-.068-.116-.1s-.092-.093-.136-.142c-.011-.012-.033-.043-.05-.065l-.015-.024c-.036-.055-.07-.111-.1-.168-.009-.015-.039-.084-.057-.119-.017-.051-.065-.2-.088-.3,0,.056,0,.1,0,0-.009-.04-.015-.07-.008-.072a.246.246,0,0,1,.008.065v-.026c0-.056-.007-.113-.008-.169a1.718,1.718,0,0,1,.009-.278l.007-.022c.018-.069.031-.139.05-.207s.032-.109.051-.163c.007-.021.01-.034.014-.048a1.592,1.592,0,0,1,.19-.342.964.964,0,0,1,.089-.13l.054-.052a2.05,2.05,0,0,1,.237-.245.24.24,0,0,0,.056-.026c.073-.046.143-.093.217-.136.049-.029.1-.055.15-.081a.9.9,0,0,0,.092-.06l-.043.032a1.3,1.3,0,0,1,.408-.129l.05-.012c.088.053.173.109.26.162.031.027.063.054.094.081a3.309,3.309,0,0,1,.252.256l.053.063c.022.032.045.063.066.1q.087.133.161.275l.026.056c0-.022,0-.026.026.044l.008.027a.075.075,0,0,0,.01.016l-.008-.01c.031.089.062.177.086.267.016.062.03.123.043.185a1.687,1.687,0,0,0,.013.341c0,.039-.005.078-.007.116-.028.107-.052.213-.084.319a.155.155,0,0,0-.006.034c-.025.046-.054.092-.07.121A1.751,1.751,0,0,0,353.5,108.216Z" transform="translate(-305.473 -90.282)"/>
      <path d="M310.945,106.849a5.557,5.557,0,0,0,1.2-1.058,5.832,5.832,0,0,0,.784-6.157,1.108,1.108,0,0,0-1.5-.394,1.125,1.125,0,0,0-.394,1.5,3.46,3.46,0,0,1,.059,2.524,3.765,3.765,0,0,1-1.682,1.963,3.031,3.031,0,0,0-1.648,3.222,4.726,4.726,0,0,0,2.492,2.815c1.209.741,2.315-1.159,1.11-1.9-.471-.289-1.864-1.058-1.4-1.783A3.411,3.411,0,0,1,310.945,106.849Z" transform="translate(-294.46 -92.637)"/>
      <path d="M327.521,114.586a74.749,74.749,0,0,1-7.329,4.916c-1.741.919-4.594,1.551-5.966-.367-.816-1.141-2.723-.044-1.9,1.11,1.723,2.408,4.906,2.816,7.546,1.8a20.105,20.105,0,0,0,4.17-2.392l4.587-3.172C329.787,115.684,328.689,113.778,327.521,114.586Z" transform="translate(-295.645 -96.722)"/>
      <path d="M330.367,92.811a1.1,1.1,0,1,0-2.2,0q.13,4.072.26,8.144a1.1,1.1,0,1,0,2.2,0Q330.5,96.883,330.367,92.811Z" transform="translate(-299.931 -90.664)"/>
      <path d="M308.825,91.538a1.1,1.1,0,1,0-2.2,0q.132,3.556.265,7.111a1.1,1.1,0,0,0,2.2,0Q308.958,95.094,308.825,91.538Z" transform="translate(-294.176 -90.323)"/>
    </g>
    <g transform="translate(81.14 75.934)">
      <g transform="translate(1.413 0)">
        <path d="M298.731,215.64c14.657,11.726,29.347-1.187,29.855-3.782,3.846-19.663,19.01-60.69,18.818-62.534-.317-3.052-3.551-4.791-6.371-6a109.191,109.191,0,0,1-24.863,25.3c-4.078-6.764-5.224-15.454-5.713-23.337-1.535.454-5.98,1.656-7.065,2.909C302.375,149.368,295.822,213.313,298.731,215.64Z" transform="translate(-250.963 -143.323)" fill="#fff"/>
        <path d="M233.952,174.619c5.863,3.664,14.086,3.055,18.322-1.466.619-.66,2.737-4.053,3.664-2.2.733,1.466,1.882,10.473,2.407,14.882,12.25-20.745,8.586-36.135,27.871-36.955-4.628,22.072,2.7,55.784-5.211,68.141-3.211-.532-2.349-.632-5.85-15.669a.366.366,0,0,0-.682-.109c-5.443,10.247-7.23,14.08-20.733,26.873-2.931,5.863-9.527-44.7-17.589-41.773C235.25,186.672,233.3,174.21,233.952,174.619Z" transform="translate(-233.82 -144.808)" fill="#dcdcdc"/>
        <path d="M327.984,235.326a427.136,427.136,0,0,0,56.54-.5c-3.763-32.808,12.36-86.307-27.947-84.841-1.619.059-20.52,36.643-19.054,65.957-1.119.446-8.333,2.319-8.062,2.931A17.335,17.335,0,0,1,327.984,235.326Z" transform="translate(-258.975 -145.096)" fill="#dcdcdc"/>
      </g>
      <g transform="translate(0 1.007)">
        <path d="M341.582,163.052,322.551,181.58c-1.015.989.54,2.542,1.555,1.554l19.031-18.527C344.152,163.618,342.6,162.064,341.582,163.052Z" transform="translate(-256.022 -149.515)"/>
        <path d="M312.793,169.982a27.624,27.624,0,0,1-2.009-8.715,1.125,1.125,0,0,0-1.1-1.1,1.11,1.11,0,0,0-1.1,1.1,29.447,29.447,0,0,0,2.087,9.3,1.134,1.134,0,0,0,1.352.767A1.106,1.106,0,0,0,312.793,169.982Z" transform="translate(-252.38 -148.829)"/>
        <path d="M377.594,233.329l-10.975,0q-.016-19.107-.029-38.214c0-6.326.073-12.674-.559-18.977-.588-5.856-1.662-11.919-4.443-17.171-2.758-5.208-7.593-9.408-13.623-9.967-1.409-.13-1.4,2.069,0,2.2,5.062.47,9.123,4.179,11.5,8.462,2.788,5.027,3.831,11,4.386,16.651.589,6,.537,12.048.542,18.074l.015,18.767q.008,10.087.015,20.174l-13.016-.015-6.948-.008-28.716-.032a.739.739,0,0,0,.029-.083,1.113,1.113,0,0,0-.768-1.352,28.157,28.157,0,0,0-3.406-.37,15.437,15.437,0,0,0,1.126-3.121.824.824,0,0,0,.314.034,30.5,30.5,0,0,1,6.407,0,1.1,1.1,0,0,0,1.1-1.1,1.13,1.13,0,0,0-1.1-1.1,30.526,30.526,0,0,0-6.353-.007,15.085,15.085,0,0,0-.336-4.886l5.659-.13a1.1,1.1,0,1,0,0-2.2l-6.175.142a1.117,1.117,0,0,0-.177.022q-.193-.468-.42-.926,4.138-1.286,8.374-2.166a13.94,13.94,0,0,1,.627,15.533c-.742,1.209,1.159,2.315,1.9,1.11a16.116,16.116,0,0,0-.175-17.1,90.355,90.355,0,0,1,19.831-1.384c1.415.058,1.412-2.141,0-2.2q-.975-.04-1.952-.058a1.17,1.17,0,0,0,.03-.285q-.436-17.87-.871-35.74a1.1,1.1,0,0,0-2.2,0q.435,17.87.871,35.74a1.176,1.176,0,0,0,.037.267,92.255,92.255,0,0,0-13.159,1.008,1.855,1.855,0,0,0,.359-.331,2.585,2.585,0,0,0,.438-.759,2.289,2.289,0,0,0,.073-1.263,2.14,2.14,0,0,0-1.265-1.485,2.753,2.753,0,0,0-.319-.137,1.987,1.987,0,0,0-1.235-.006,2.265,2.265,0,0,0-1.033.673,2.3,2.3,0,0,0-.332.487,2.375,2.375,0,0,0-.234.882,2.043,2.043,0,0,0,.318,1.2c.021.034.048.065.071.1a.929.929,0,0,0,.025.134,1.115,1.115,0,0,0,.506.657,2.683,2.683,0,0,0,.474.19,92,92,0,0,0-13.006,3.211,1.041,1.041,0,0,0-.712.742l-14.9.067a1.119,1.119,0,0,0-.369.066q-2.381-1.051-4.812-1.983c.024-.046.049-.092.07-.141,7.063-16.762,2.3-35.2,2.872-52.705a60.086,60.086,0,0,1,1.793-13.252.836.836,0,0,0,.613,0c1.388-.575,2.771-1.167,4.167-1.724a5.322,5.322,0,0,1,3.8-.452,1.109,1.109,0,0,0,1.352-.767,1.121,1.121,0,0,0-.767-1.352,6.784,6.784,0,0,0-4.687.34c-1.307.5-2.6,1.055-3.886,1.6a1.13,1.13,0,0,0-2.056-.415,1.587,1.587,0,0,0-.5-.016c-4.755.657-9.951,1.6-13.1,5.6a30.006,30.006,0,0,0-3.7,7.282l-3.684,8.857-4.1,9.858c-.543,1.305,1.584,1.875,2.12.585,2.9-6.976,5.726-13.991,8.71-20.932,1.247-2.9,2.782-5.453,5.664-6.938a24.587,24.587,0,0,1,7.924-2.084c-4.428,16.89.46,34.468-1.191,51.627a48.8,48.8,0,0,1-3.458,14.278c-.271-.1-.54-.2-.811-.292-.388-.136-.784-.278-1.185-.421.868-5.434-1.438-10.432-2.89-15.556l0-.013c-.077-.272-.154-.544-.226-.817a22.455,22.455,0,0,1-.476-9.082c.45-3.121,1.23-6.2,1.428-9.351a15.834,15.834,0,0,0-1.9-9.262,1.1,1.1,0,0,0-1.9,1.11c3.085,5.109,1.09,11.3.274,16.748a24.944,24.944,0,0,0,.067,8.787c.141.7.313,1.386.5,2.07L273.184,210.6c-.684,1.239,1.214,2.35,1.9,1.11l5.658-10.249c.32.985.646,1.968.952,2.956a21.384,21.384,0,0,1,1.254,8.087,1.2,1.2,0,0,0-.06.27l-.04.388a15.655,15.655,0,0,0-5.6-.968c-2.81.155-5.046,2.034-7.176,3.691a56.945,56.945,0,0,0-6.12,5.51,59.2,59.2,0,0,0-5.962,7.327c-.806,1.167,1.1,2.268,1.9,1.11a55.341,55.341,0,0,1,13.642-13.792,6.977,6.977,0,0,1,4.551-1.647,21.267,21.267,0,0,1,5.181,1.278,96.994,96.994,0,0,1,10.261,3.94,1.123,1.123,0,0,0,1.164-.128l14.931-.067a1.208,1.208,0,0,0,.167-.018,12.8,12.8,0,0,1-1.532,13.346,1.144,1.144,0,0,0-.242.517l-11.771-.013a1.1,1.1,0,0,0,0,2.2l66.574.075,2.635,0c.046,0,.093,0,.139,0,4.505,0,10.033,0,12,0-.024,0,0,0,0,0Z" transform="translate(-238.812 -144.696)"/>
        <path d="M265.862,180.032c-.136-1.4-2.336-1.409-2.2,0l3.155,32.192c.137,1.4,2.337,1.409,2.2,0Z" transform="translate(-240.378 -153.855)"/>
        <path d="M251.971,178.851a12.8,12.8,0,0,1-17.6,2.589.9.9,0,0,0-1.02-.073,1.151,1.151,0,0,0-.67-.039,1.126,1.126,0,0,0-.767,1.352q.79,4.983,1.58,9.966a1.108,1.108,0,0,0,1.353.768,1.126,1.126,0,0,0,.767-1.352l-1.275-8.041a15.077,15.077,0,0,0,10.216,1.829c.257-.045.506-.116.758-.176l1.016,8.6a1.134,1.134,0,0,0,1.1,1.1,1.106,1.106,0,0,0,1.1-1.1l-1.039-8.793a1.5,1.5,0,0,0-.123-.446,15.521,15.521,0,0,0,6.507-5.071C254.72,178.829,252.812,177.732,251.971,178.851Z" transform="translate(-231.892 -153.696)"/>
      </g>
    </g>
    <g transform="translate(125.68 0.505)">
      <path d="M364.245,115.54c-8.207-5.746-11.023-16.236-11.991-25.681-1.1-10.755-.553-21.9-4.863-32.048a28,28,0,0,0-8.61-11.484,29.733,29.733,0,0,0-13.78-5.6c-9.143-1.31-19.117,1.247-25.645,8.016-6.876,7.131-8.986,18.844-3.785,27.506a1.082,1.082,0,0,0,.075.1.9.9,0,0,0,1.048.979,30.072,30.072,0,0,0,21.57-13.36A50.588,50.588,0,0,0,333,80.857c1.145.835,2.243-1.072,1.11-1.9a48.215,48.215,0,0,1-14.552-17.2c.24-.454.476-.911.69-1.38.584-1.277-1.31-2.4-1.9-1.11a27.753,27.753,0,0,1-20.948,15.763c-4.314-7.312-2.9-17.114,2.441-23.538,5.758-6.931,15.278-9.709,24.03-8.706a28.09,28.09,0,0,1,13.309,5.078,25.777,25.777,0,0,1,8.308,11.065c4.064,9.8,3.5,20.577,4.562,30.932,1.056,10.305,4.158,21.332,13.08,27.58C364.3,118.252,365.4,116.347,364.245,115.54Z" transform="translate(-292.668 -40.4)"/>
      <path d="M353.267,141.639a17.577,17.577,0,0,1-10.645-17.032c.066-1.414-2.133-1.411-2.2,0a19.55,19.55,0,0,0,3.813,12.519,120.414,120.414,0,0,1-23.718,24.694,33.155,33.155,0,0,1-4.247-20.8c.174-1.4-2.026-1.387-2.2,0a35.032,35.032,0,0,0,5.2,22.988,1.108,1.108,0,0,0,1.5.4,123.879,123.879,0,0,0,24.9-25.542,20.153,20.153,0,0,0,5.4,4.138,1.185,1.185,0,0,0-.17.237A160.288,160.288,0,0,0,333.8,194.085q-1.176,7.5-1.65,15.094c-.088,1.413,2.111,1.408,2.2,0a158.443,158.443,0,0,1,12.018-51.363c1.926-4.593,4.086-9.087,6.442-13.475a1.1,1.1,0,0,0,.135-.529,1.177,1.177,0,0,0,1.1-.821A1.127,1.127,0,0,0,353.267,141.639Z" transform="translate(-298.317 -62.612)"/>
      <path d="M377.065,139.891A25.006,25.006,0,0,1,364.9,121.278c-.152-1.391-2.353-1.407-2.2,0a27.305,27.305,0,0,0,13.257,20.512A1.1,1.1,0,0,0,377.065,139.891Z" transform="translate(-311.374 -61.726)"/>
      <path d="M352.364,72.74c-1-4.668-2.159-9.522-5.046-13.433-2.411-3.266-6.093-5.845-10.249-6.018-1-.042-1.255,1.51-.247,1.551,3.847.159,7.154,2.513,9.351,5.563,2.632,3.653,3.7,8.181,4.629,12.51C351.013,73.893,352.577,73.729,352.364,72.74Z" transform="translate(-304.292 -43.843)"/>
    </g>
    <g transform="translate(102.474 150.911)">
      <path d="M264.142,266.4l0,.009C264.179,266.5,264.252,266.585,264.142,266.4Z" transform="translate(-261.842 -251.179)"/>
      <path d="M265.259,267.538a.533.533,0,0,0-.118-.062l.111.059Z" transform="translate(-262.109 -251.467)"/>
      <path d="M293.869,258.4a28.227,28.227,0,0,1-12.451,6.582,9.509,9.509,0,0,1-3.494.494c-1.368-.237-.444-1.247.183-1.8,2.081-1.851,4.3-3.566,6.446-5.342a1.014,1.014,0,0,0,.3-.4,15.456,15.456,0,0,1,1.849-.307c1.4-.138,1.409-2.338,0-2.2a18.553,18.553,0,0,0-10.118,4.267c-1.479,1.216-2.919,2.642-4.764,3.289a3.7,3.7,0,0,1-4.185-.835,30.658,30.658,0,0,1,15.77-10.813,1.1,1.1,0,0,0-.585-2.12,33.084,33.084,0,0,0-17.281,12.077,1.047,1.047,0,0,0-.177.364c-.019.01-.037.022-.056.031l-.075.027a2.841,2.841,0,0,1-.281.076l-.07.012a2.6,2.6,0,0,1-.284.007l-.112-.007c-.086-.019-.173-.038-.259-.065l-.078-.026.032.018a.4.4,0,0,0-.039-.021l-.029-.01c-.048-.018-.086-.045-.082-.049-.031-.015-.061-.03-.09-.047-.057-.034-.114-.08-.172-.117-.028-.025-.056-.05-.083-.075-.062-.059-.119-.125-.177-.188-.012-.017-.025-.034-.036-.051a2.548,2.548,0,0,1-.138-.234c-.016-.032-.03-.065-.047-.1h0l.011.019c0-.007-.007-.014-.01-.021a28.778,28.778,0,0,1,16.067-13.019c1.343-.429.769-2.553-.584-2.12a31.051,31.051,0,0,0-17.627,14.45,1.023,1.023,0,0,0-.009,1.038.871.871,0,0,0,.047.265,3.83,3.83,0,0,0,2.46,2.405,3.587,3.587,0,0,0,2.435-.138,5.467,5.467,0,0,0,3.823,1.768,8.783,8.783,0,0,0,5.483-2,2.685,2.685,0,0,0,.289,3.231c1.039,1.1,2.577,1.054,3.952.849a30.269,30.269,0,0,0,15.793-7.606C296.472,259,294.914,257.448,293.869,258.4Z" transform="translate(-261.003 -245.632)"/>
    </g>
    <g transform="translate(113.742 158.196)">
      <path d="M277.991,298.606c12.99,1.708,42.561,1.506,43.978,1.048,2.159-.7,22.983-20.621,22.719-23.452-7.613-.509-31.212-2.507-34.73-2.144C307.3,274.332,278.365,298.655,277.991,298.606Z" transform="translate(-276.809 -260.498)" fill="#fff"/>
      <path d="M389.766,264.638c-.632.008.086-3.3-.972-3.772-6.357-2.824-15.656-3.7-21.515-1.375-.3.118.083,25.454.666,25.972,7.9,7.024,18.156.428,19.622-1.038C405.156,277.1,392.524,264.6,389.766,264.638Zm-2.2,14.657,1.466-10.26C393.43,271.233,393.43,279.295,387.567,279.295Z" transform="translate(-300.634 -256.262)" fill="#fff"/>
      <path d="M365.474,263.15l.275-2.817a1.019,1.019,0,0,0-.341-1.512,26.278,26.278,0,0,0-24.106-.627.905.905,0,0,0-.547.989,1.123,1.123,0,0,0-.008.16q.254,4.969.508,9.938l-32.1-.606a1.158,1.158,0,0,0-.206.017.854.854,0,0,0-.965.118L276.839,292.69a1.2,1.2,0,0,0,.447,2.108,1.055,1.055,0,0,0,.685.254l43.983.939a1,1,0,0,0,.959-.295l18.732-18.769.378,7.393a1.1,1.1,0,0,0,.237.646,1.065,1.065,0,0,0,.456,1.235,18.906,18.906,0,0,0,19.709.341,1.059,1.059,0,0,0,.438-.481,1.105,1.105,0,0,0,.46-.813l.112-1.15a10.635,10.635,0,0,0,2.04-20.948Zm-43.761,30.636-41.561-.887,28.763-22.053a1.245,1.245,0,0,0,.24.028l32.213.608.127,2.484Zm43.155-24.406a4.651,4.651,0,0,1-.842,8.643Zm-3.693,15.342a16.7,16.7,0,0,1-16.964-.187,1.193,1.193,0,0,0,.01-.214c-.161-3.163-1.09-21.318-1.251-24.479a23.992,23.992,0,0,1,20.579.492Q362.362,272.527,361.175,284.721Zm10.152-10.336a8.505,8.505,0,0,1-7.677,7.492l.153-1.575a6.855,6.855,0,0,0,1.288-13.226l.165-1.7A8.532,8.532,0,0,1,371.327,274.386Z" transform="translate(-276.378 -255.571)"/>
      <path d="M377.251,262.672a14.913,14.913,0,0,1-4.307-.985,1.108,1.108,0,0,0-1.352.767,1.148,1.148,0,0,0,.768,1.352c3.917,1.76,9.047,1.027,10.92.363,1.329-.47.772-2.542-.585-2.119A14.563,14.563,0,0,1,377.251,262.672Z" transform="translate(-301.803 -257.19)"/>
    </g>
    <g transform="translate(0 108)">
      <path d="M253.449,251.53l-24.1,7.83-.2-2.7a1.171,1.171,0,0,0-.322-.777,1.1,1.1,0,0,0-1.554,0,1.083,1.083,0,0,0-.322.777l.211,2.852-64.012-4.554L145.514,253.7q-.278-1.781-.557-3.56a1.07,1.07,0,0,0-.067-.465q-8.267-22.689-16.534-45.379-2.316-6.359-4.634-12.72a1.13,1.13,0,0,0-.306-.457c.177-.616,1.959-.366,2.369-.333q2.19.177,4.379.358l8.574.7,17.332,1.42,34.3,2.81,18.181,1.49a11.806,11.806,0,0,1,1.862,4.03c.549,1.842,1.049,3.7,1.57,5.551q1.63,5.786,3.262,11.572l6.523,23.144,3.472,12.319-52.63-3.4-15.168-.978c-1.413-.091-1.407,2.108,0,2.2l53.545,3.454,15.168.978a.961.961,0,0,0,1.051-1.063,1.02,1.02,0,0,0,.838.112l11.139-2.98a1.1,1.1,0,0,0-.584-2.12l-11.139,2.98a1.215,1.215,0,0,0-.148.056q-6.555-23.256-13.109-46.51c-.543-1.925-1.061-3.861-1.637-5.777a10.244,10.244,0,0,0,6.372-1.184c2.63-1.39,4.652-3.671,6.587-5.875.93-1.059-.619-2.62-1.554-1.554a25.109,25.109,0,0,1-5.546,5.191,7.678,7.678,0,0,1-6.736.938,12.833,12.833,0,0,0-.705-1.369l.012,0a1.128,1.128,0,0,0,.768-1.352l-1.177-8.052a1.106,1.106,0,0,0-1.352-.767,1.127,1.127,0,0,0-.767,1.352q.509,3.489,1.019,6.978a.889.889,0,0,0-.6-.043l-72.158-5.913-10.217-.838c-1.352-.111-2.863-.372-4.083.4a2.542,2.542,0,0,0-1.1,3,1.148,1.148,0,0,0,.413.514l16.389,44.982,4.635,12.72c.007.017.016.031.023.048a1.9,1.9,0,0,0,.023.274l.624,3.992a.638.638,0,0,0,.067.194,1.115,1.115,0,0,0,1.048,1.063l65.268,4.643,18.6,1.324a.992.992,0,0,0,.583-.128,1.067,1.067,0,0,0,.5-.046l24.538-7.972C255.374,253.215,254.8,251.091,253.449,251.53Z" transform="translate(-121.176 -187.078)"/>
      <path d="M702.451,367.272c5.968-8.354,6.75,11.654,5.015,11.876l-.363.041c-7.744.981-9.119-2.781-12.61-6.662C692.269,370.053,700.6,367.509,702.451,367.272Z" transform="translate(-652.514 -333.958)" fill="#fff"/>
      <path d="M705.091,364.733c1.123,0,2.02.962,2.668,2.86a22.1,22.1,0,0,1,.955,5.465,24.753,24.753,0,0,1-.059,4.253c-.18,1.536-.527,2.255-1.126,2.332l-.367.042a19.109,19.109,0,0,1-2.381.161c-4.922,0-6.851-2.37-9.084-5.115-.5-.61-1.009-1.24-1.576-1.871a1.664,1.664,0,0,1-.395-1.778c.376-1.012,1.76-2.009,4.115-2.963a24.26,24.26,0,0,1,4.328-1.312C703.2,365.412,704.159,364.733,705.091,364.733Zm2.222,13.929a3.823,3.823,0,0,0,.344-1.414,21.757,21.757,0,0,0,.107-3.12,20.8,20.8,0,0,0-1.153-6.75c-.313-.751-.83-1.645-1.519-1.645-.423,0-1.153.317-2.233,1.829l-.127.177-.216.028a21.9,21.9,0,0,0-4.3,1.28c-2,.808-3.29,1.677-3.552,2.384a.683.683,0,0,0,.2.761c.584.649,1.1,1.289,1.608,1.908,2.158,2.651,3.862,4.746,8.308,4.746a18.121,18.121,0,0,0,2.259-.154h.007Z" transform="translate(-652.514 -333.958)" fill="#dcdcdc"/>
    </g>
    <path d="M350.085,220.6a2.337,2.337,0,0,0-.417-.706,2.278,2.278,0,0,0-.437-.376,1.586,1.586,0,0,0-.286-.16,2.8,2.8,0,0,0-1.164-.272,2.474,2.474,0,0,0-1.143.285,2.036,2.036,0,0,0-.806.8,1.149,1.149,0,0,0-.114.826c-.007.045-.019.085-.023.133a1.116,1.116,0,0,0,0,.222,2.212,2.212,0,0,0,.088.5c.008.023.02.04.028.062.011.038.021.075.036.113a2.338,2.338,0,0,0,.171.378,1.8,1.8,0,0,0,.356.429,2.268,2.268,0,0,0,.706.411,1.193,1.193,0,0,0,.188.055,2.168,2.168,0,0,0,.515.085,2.258,2.258,0,0,0,.471-.05,1.023,1.023,0,0,0,.127-.037,2.737,2.737,0,0,0,.705-.242,2.04,2.04,0,0,0,1.11-1.866A1.955,1.955,0,0,0,350.085,220.6Z" transform="translate(-181.151 -87.629)"/>
    <g transform="translate(39.876 14.116)">
      <path d="M8.361,9.361a1,1,0,0,1-.707-.293L-.707.707a1,1,0,0,1,0-1.414,1,1,0,0,1,1.414,0L9.068,7.653a1,1,0,0,1-.707,1.707Z" transform="translate(9.963 8.361)" fill="#de5600"/>
      <path d="M2.089,11.451a1,1,0,0,1-.98-.8L-.981.2A1,1,0,0,1-.2-.981,1,1,0,0,1,.981-.2l2.09,10.451a1,1,0,0,1-.982,1.2Z" transform="translate(24.594)" fill="#de5600"/>
      <path d="M8.361,9.361a1,1,0,0,1-.707-.293L-.707.707a1,1,0,0,1,0-1.414,1,1,0,0,1,1.414,0L9.068,7.653a1,1,0,0,1-.707,1.707Z" transform="matrix(0.839, -0.545, 0.545, 0.839, 0, 23.853)" fill="#de5600"/>
    </g>
  </g>
</svg>
