<svg xmlns="http://www.w3.org/2000/svg" viewBox="0 0 335.895 236.65">
  <g transform="translate(0)">
    <path d="M809.831,379.057c3.1.456,12.854-1.641,22.973,16.41,3.1,1.006,3.32,1.166,5.975-.73,2.868-25.708-7.16-30.266-16.276-31.451-8.3-1.193-11.491-1-15.478-.2C804.632,364.683,809.4,377.364,809.831,379.057Z" transform="translate(-517.21 -171.511)" fill="#fff"/>
    <path d="M1044.064,310.224c-9.14-4.884-30.027-9.343-34.156-14.212-1.047-1.236,13.6-31.834,20.006-45.426,10.287,5.279,33.365,16.722,33.68,17.517S1047.129,304.889,1044.064,310.224Z" transform="translate(-862.751 -236.175)" fill="#ed6d00"/>
    <path d="M857.821,398.021c6.122.638,16.827-.975,22.663-2.929s18.233-3.451,24.388-3.451c1.6,0-2.545-4.878,17.544,15.152,34.733,34.63,27.114,34.291,68.456,44.658,17.837,4.473,31.474,17.149,47.848,25.519s34.974,11.851,52.76,7.177c6.556-1.723,15.633-1.3,19.012-7.177,3.516-6.115-.8-17.544-3.987-20.734-.8-3.988-.491-3.285-7.637-4.347-8.313-1.235-11.6-3.88-18.679-2.83-21.532,3.19-25.934,4.532-36.684-4.785-11.962-10.367-19.14-15.152-16.747-23.924,1.181-4.33-18.965-16.517-20.608-17.544-19.139-11.962-27.113-8.772-45.455-14.354-4.848-1.476-5.423,1.216-9.57-1.595-12.557-8.515-23.2-25.322-38.244-27.277-10.577-1.374-22.364,8.935-59.845,14.517-7.366,1.1-5.941,6.435-4.288,13.7C849.243,389.963,853.913,397.614,857.821,398.021Z" transform="translate(-814.194 -268.72)"/>
    <path d="M1265.931,539.93c-.265,2.321-1.033,5.046-3.26,5.749-1.458.461-10.579-3.615-12.961-5.237-2.238-1.523-5.662-8.269-3.422-10.509,6.38-6.38,3.343-10.08,2.489-13.037s-4.983-11.829-6.244-13.138-7.531-2.56-7.176-3.19c1.821-3.24,8.017-6.7,11.711-6.079,3.139.528,15.414,14.946,17,23.624C1264.962,523.031,1266.5,534.96,1265.931,539.93Z" transform="translate(-930.159 -309.065)"/>
    <path d="M806.436,346.742c-1.664-.261-3.236.916-4.218,2.284a12.876,12.876,0,0,0-2.179,7.059,33.371,33.371,0,0,0,.791,7.437c5.063,20.133,6.927,23.853,9.7,27.7a15.155,15.155,0,0,0,5.544,5.027,10.514,10.514,0,0,0,12.754-3.406,1.64,1.64,0,0,0,.359-.862,1.25,1.25,0,0,0-.877-1.093c-.465-.176-12.093-29.26-11.79-30.377.271-1-3.766-7.4-4.315-8.146C811.36,351.224,807.639,346.93,806.436,346.742Z" transform="translate(-800.026 -264.909)"/>
    <path d="M1024.565,303.118c-1.534-1.534-10.328,7.1-11.165,8.772s6.007,10.163,5.83,11.6c-5.032,4.346-7.425,14.713-12.381,19.432-4.346,4.139-5.531,11.024-3.488,16.666s8.238,11.28,10.836,11.311c16.825.2,43.2,11.051,48.387,16.046,9.828,9.473,13.816,10.271,21.79-9.666,13.557-13.557,3.069-20.157,1.025-23.085a14.411,14.411,0,0,1,3.077-19.071c.224,2.686,2.787,4.8,5.47,5.046,9.567-1.169,9.3-7.466,10.364-9.941,1.425-3.3,6.274-8.686,4.785-11.961-3.987-8.772-10.367-19.14-13.557-20.735-7.339-3.669-15.7-1.2-23.333,1.816-.5-1.255,4.731-3.823,5.531-4.911,1.188-1.616.041-4.019-1.647-5.1s-11.955-4.975-14.841-4.563c-5.583.8-15.136,33.774-17.544,33.494C1041.891,318.058,1033.338,311.89,1024.565,303.118Z" transform="translate(-860.52 -246.387)" fill="#f6f8f9"/>
    <path d="M1024.848,288.666c0,.864.323,10.362,0,11.164-.35.869-9.587,9.994-10.367,9.569-3.679-2-10.367-9.569-7.974-15.152,5.582-7.177,7.974-12.759,8.772-15.152C1017.756,278.738,1024.848,286.513,1024.848,288.666Z" transform="translate(-861.6 -244.694)" fill="#fff"/>
    <path d="M1128.827,286.753c-.89-3.15.381-12.427,4.785-15.95,7.974-6.38,8.366-17.648,7.5-20.938-1.4-5.322-5.906-17.34-17.18-13.929-3.688,1.459-7.459,3-10.32,5.739a15.891,15.891,0,0,1-2.421,2.168c-2.2,1.376-5.023.962-7.574.5.319,2.443,1.171,4.954.488,7.321-.66,2.285-2.735,4.242-3.5,6.5-.914,2.71,1.1,11.846,7.569,13.158.669.136,3.16,1.339,3.2,2.021.025.461-2.788,6.151-3.987,8.571C1112.878,281.17,1126.725,283.686,1128.827,286.753Z" transform="translate(-889.82 -231.616)" fill="#fff"/>
    <path d="M1175.6,247.357c4.328,6.138,5.873,13.876,7.412,21.228,5.64,26.948,18.526,33.794,25.576,43.694,3.585,5.034,16.475,16.6,10.368,17.545-3.381.52-18.2,3.21-22.329,2.392-25.119-6.746-40.892-24.664-46.091-32.242s-8.027-17.227-5.685-26.114c1.913-7.256-1.655-39.733-6.44-39.733-3.059,0,6.263-4.286,7.962-4.092C1150.257,230.48,1162.336,228.546,1175.6,247.357Z" transform="translate(-901 -230.03)" fill="#fff"/>
    <path d="M818.534,378.28c.809,3.16,3.987,15.152,10.9,17.393,3.1,1.006,6.694.96,9.349-.936.565-.4,2.881-.508-1.075-13.576-8.006-2.083-9.649-4.636-11.794-9.395-.589-1.306-3.39-7.043-7.377-6.245C816.141,367.116,818.1,376.587,818.534,378.28Z" transform="translate(-805.21 -270.511)" fill="#fff"/>
    <path d="M699.686,366.6c3.987-5.582,4.51,7.787,3.351,7.935l-.242.027c-5.174.656-6.093-1.858-8.425-4.451C692.883,368.454,698.451,366.754,699.686,366.6Z" transform="translate(-526.784 -325.108)"/>
  </g>
</svg>