<svg xmlns="http://www.w3.org/2000/svg" viewBox="0 0 503.168 559.976">
  <g transform="translate(210.02 230)">
    <path d="M839.849,416.09c-55.215,6.9-82.722,1.977-99.484-22.673-2.951-4.34,15.823-94.136,15.8-110.61C832.563,230.362,877.763,385.405,839.849,416.09Z" transform="translate(-711.969 -321.598)" fill="#fff"/>
    <path d="M993.533,391.724,979.9,404.639c-22.248-11.008-22.01-21.411-21.48-24.82,1.45-9.336,12.647-13.914,19.949-18.414a42.89,42.89,0,0,0,18.415-23.786c-17.647,3.836-28.811,16.745-46.8,29.923-54.477,39.9-63.584,68.174-81.332,58.315-23.019,22.251-35.3-26.856-15.8-24.691-1.085-12.139,7.35-14.616,14.26-17.51,26.773-11.215,38.08-17.1,75.194-55.245,23.182-23.822,3.069-26.088,23.019-42.2,36.482-7.888,15.632-2.079,36.349-15.89C1025.337,298.915,992.961,376.709,993.533,391.724Z" transform="translate(-961.061 -320.477)" fill="#fff"/>
    <path d="M774.813,205.857c0,12.818-21.549,66.127-77.75,66.127-9.371,0,5.794,21.831,6.9,22.678,16.762,12.818,21.279,22.042,33.523,44.37,1.262,2.3,37.467,15.776-3.945,42.4-4.093,2.631-41.752,23.549-55.215,15.776s-40.425-141-46.341-149.87c-1.708-2.561-5.916-9.86,0-9.86,3.178,0,10.406,2.324,12.817.986,4.824-2.676,4.07-12.261,12.818-9.86,50.285,13.8,53.561-6.052,59.365-12.6,6.957-7.846,29.374-25.856,36.276-25.856C763.124,173.385,788.617,196,774.813,205.857Z" transform="translate(-554.942 -301.507)" fill="#fff"/>
    <path d="M780.553,507.852c-16.762,2.958-66.632,37.167-69.019,41.412-8.874,15.776,8.873,34.51,28.593,24.649,50.285-33.524,31.789-19.958,80.851-29.58,52.257-27.607,89.053-45.841,95.955-44.855,13.8,1.972,14.475,1.472,49.97,53.729-17.748,33.524-53.243,26.621-54.229,35.5-2.9,3.629-2.958,8.873,2.129,11.832,3.944-1.972,14.79,23.663,16.762,25.635.986.986,14.633,4.93,31.394-.986,12.818-17.747,13.8-13.8,32.538-19.719,11.832-22.677,28.593-25.636,31.551-47.327-15.846-38.03-41.412-60.145-43.227-81.836,5.759-11.832-1.808-16.627-1.67-25.929-44.689-1.751-46.8-2.665-85.254-25.342-17.748,12.817-18.849,30.642-24.649,34.509C851.544,473.343,837.739,494.049,780.553,507.852Z" transform="translate(-865.864 -354.2)"/>
    <path d="M833.83,653.449c6.9-7.888,9.859-3.944,14.79,0,6.713,5.37,8.243,21.01-4.93,21.692C837.773,664.3,832.82,654.6,833.83,653.449Z" transform="translate(-789.759 -403.17)"/>
    <path d="M878.594,721.1c-2.178,12.208-29.4,12.366-30.772,10.236,1.972-8.874,24.65-51.27,35.5-85.78,2.538-1.126,14.9,2.937,16.762,6.9,5.916,10.846,8.74,6.7,10.51,6.737,2.372.045,8.751,12.835,7.848,14.3C917.875,674.4,893.527,671.013,878.594,721.1Z" transform="translate(-865.649 -402.398)" fill="#fff8f8"/>
    <path d="M1106.512,651.329c8.026,5.351,26.621-.986,37.467-15.776,17.748-11.831,21.324-15.21,22.677-19.72.446-.3-7.887-10.845-11.832-16.762-11.832-2.958-8.874,9.86-38.511,17.954C1098.623,630.623,1103.725,649.471,1106.512,651.329Z" transform="translate(-1313.647 -392.176)" fill="#fff8f8"/>
    <path d="M549.153,128.813c-1.031,8.161-5.916,12.817-2.958,31.551.211,2.182,58.543-16.142,59.159-16.762.8-.8,7.272-43.363,9.264-54.4-4.051-7.136-18.484-48.083-21.1-49.128-4.93-1.973-53.869,24.759-53.243,27.607,1.416,6.444,15,34.506,16.863,40.235C557.438,108.825,549.527,125.848,549.153,128.813Z" transform="translate(-321.47 -269.97)" fill="#ed6d00"/>
    <path d="M597.758,46.693c-1.464,0-40.345,21.679-43.383,21.691-.035,0,14.511,37.746,14.79,37.467.986-.986,43.669-18.034,44.369-18.734C603.674,66.413,599.731,46.693,597.758,46.693Z" transform="translate(-331.403 -271.44)" fill="#fff"/>
    <path d="M582.475,168.983s18.792-5.477,19.213-5.969c.348-.408,1.911-9.873,1.587-10.154s-18.391,5.406-18.807,6.007C584.183,159.276,581.172,168.322,582.475,168.983Z" transform="translate(-342.887 -294.662)" fill="#fff"/>
    <path d="M690.219,129.321a11.178,11.178,0,0,1,7.369-6.644c2.245-.538,8.544.421,11.249,1.734,1.407.683,5.943,2.709,6.9,3.945.865,1.113,3.944,6.9-1.972,8.873-9.05,3.016-18.165,3.748-19.376,3.277C685.758,137.135,689.887,130.106,690.219,129.321Z" transform="translate(-540.313 -288.029)" fill="#fff"/>
    <path d="M884.074,192.315c0,5.777-2.754,10.333,1.4,14.352,2.022,1.958,15.776,4.93,7.145,18.656-7.145,13.882,4.345,24.269,5.443,27.285.909,2.5-22,14.617-27.645,12.654-12.551-4.365-20.3-12.137-21.425-16.2-3.4-.676-7.981,1.4-8.873.986-10.631-4.879-10.11.331-10.846.986-7.888-13.8-7.654-13.523-12.648-13.177-.17-9.5-.17-15.417-5.774-13.82-.855-5.152,4.856-8.62,5.345-13.82-3.07-9.207,5.19-11.44,8.148-20.314,14.79.986,12.818-6.9,18.957-6.871,3.938.868,14.328,3.4,23.347,5.186C869.671,188.82,872.2,194.874,884.074,192.315Z" transform="translate(-816.53 -301.265)" fill="#fff"/>
    <path d="M1082.719,482.143c-5.371-3.069,2.958-10.237-4.931-7.28-12.818,1.972-20.7-2.152-21.157-3.463-1.571-4.522,9.374-11.612,12.276-12.276,2.736-.626,9.215,3.284,23.019-4.6.439-.252,8.591,14.8,7.493,14.6C1095,468.332,1083.989,482.868,1082.719,482.143Z" transform="translate(-1209.66 -360.651)" fill="#fff"/>
    <path d="M608.64,193.5c-13.618-.616-10.63-11.444-15.35-13.637,1.818-1.834,5.648-19.109,7.462-19.887.745-.32,13.077.546,13.8.986,0,7.888-9.645,7.843-9.3,8.438,1.409,2.409,1.071,15.74,1.409,16.212,1.422,1.988,26.36-6.668,27-6.139C627.374,191.53,613.119,193.041,608.64,193.5Z" transform="translate(-381.943 -296.207)" fill="#fff"/>
  </g>
</svg>
