<svg xmlns="http://www.w3.org/2000/svg" width="189.744" height="22.851" viewBox="0 0 189.744 22.851">
  <g id="スクールロゴ" transform="translate(0)">
    <g id="グループ_29" data-name="グループ 29" transform="translate(116.954)">
      <path id="パス_53" data-name="パス 53" d="M453.129,18.975h-11.9V2.772a.647.647,0,0,0-.648-.647h-4.41a.591.591,0,0,0-.577.647V23.142a.647.647,0,0,0,.648.647h16.888a.647.647,0,0,0,.648-.647V19.551A.591.591,0,0,0,453.129,18.975Z" transform="translate(-435.593 -1.553)" fill="#180909"/>
      <path id="長方形_78" data-name="長方形 78" d="M2.407,0h.821A2.406,2.406,0,0,1,5.634,2.406V16.05a2.406,2.406,0,0,1-2.406,2.406H2.407A2.407,2.407,0,0,1,0,16.049V2.407A2.407,2.407,0,0,1,2.407,0Z" transform="translate(31.44 3.78)" fill="#180909"/>
      <path id="パス_54" data-name="パス 54" d="M636.356,4.95A9.3,9.3,0,0,1,642.3,7.188a.621.621,0,0,0,.41.156c.18,0,.284,0,.411-.151l2.515-3.051a.693.693,0,0,0,.153-.5.681.681,0,0,0-.243-.464A14.863,14.863,0,0,0,636.356,0,13.606,13.606,0,0,0,627.3,3.236a10.764,10.764,0,0,0-3.719,8.159,10.941,10.941,0,0,0,3.644,8.183,13.113,13.113,0,0,0,8.874,3.273,17.063,17.063,0,0,0,9.249-2.871.684.684,0,0,0,.283-.558V13.069a.544.544,0,0,0-.571-.6h-3.966c-.355,0-.5.3-.5.673v3.651a9.986,9.986,0,0,1-4.2,1.081c-4,0-7.125-2.844-7.125-6.475C629.263,7.781,632.379,4.95,636.356,4.95Z" transform="translate(-573.002 0)" fill="#180909"/>
    </g>
    <path id="パス_55" data-name="パス 55" d="M352.055,31.963l-5.145-5.132,5.144-5.131-.456-.455-5.144,5.131-5.145-5.132-.457.456L346,26.833l-5.144,5.131.456.455,5.145-5.131,5.145,5.132Z" transform="translate(-249.269 -15.529)" fill="#180909"/>
    <g id="グループ_30" data-name="グループ 30" transform="translate(0 0.823)">
      <path id="パス_56" data-name="パス 56" d="M86.613,60.454a.431.431,0,0,1-.417-.6l.015-.049A.886.886,0,0,1,87,59.2h4.443a.887.887,0,0,0,.785-.6l.014-.049a.43.43,0,0,0-.416-.6H87.379a.431.431,0,0,1-.418-.6l.784-2.564a.885.885,0,0,1,.785-.6h8.2a.43.43,0,0,1,.417.6l-.016.051a.884.884,0,0,1-.784.6H91.9a.887.887,0,0,0-.786.6L91.1,56.1a.43.43,0,0,0,.417.6h4.442a.431.431,0,0,1,.418.6L95.6,59.852a.885.885,0,0,1-.785.6Z" transform="translate(-62.984 -40.457)" fill="#180909"/>
      <path id="パス_57" data-name="パス 57" d="M193.4,60.328a.449.449,0,0,1-.454-.615l.983-3.185a.929.929,0,0,1,.833-.615h4.4a.934.934,0,0,0,.835-.615l.205-.672a.932.932,0,0,1,.832-.615H202.9a.449.449,0,0,1,.454.615l-1.571,5.087a.931.931,0,0,1-.833.615Zm5.824-2.539a.448.448,0,0,0-.454-.615h-1.875a.929.929,0,0,0-.834.615l-.2.663a.449.449,0,0,0,.453.615h1.876a.93.93,0,0,0,.833-.615Z" transform="translate(-141.01 -40.331)" fill="#180909"/>
      <path id="パス_58" data-name="パス 58" d="M233.5,55.274a.45.45,0,0,1-.453-.616l.01-.032a.929.929,0,0,1,.832-.615h1.867a.448.448,0,0,1,.453.615l-.009.032a.931.931,0,0,1-.833.616Zm-1.56,5.054a.45.45,0,0,1-.455-.615l.986-3.185a.924.924,0,0,1,.831-.615h1.868a.447.447,0,0,1,.453.615l-.983,3.185a.931.931,0,0,1-.833.615Z" transform="translate(-169.183 -40.331)" fill="#180909"/>
      <path id="パス_59" data-name="パス 59" d="M249.649,65.472a.45.45,0,0,1-.454-.615l.987-3.193a.926.926,0,0,1,.832-.615h7.552a.448.448,0,0,1,.453.615l-.986,3.193a.927.927,0,0,1-.832.615Zm6.455-2.54a.447.447,0,0,0-.453-.614h-1.875a.926.926,0,0,0-.833.614l-.2.664a.447.447,0,0,0,.453.615h1.875a.93.93,0,0,0,.834-.615Z" transform="translate(-182.127 -45.476)" fill="#180909"/>
      <path id="パス_60" data-name="パス 60" d="M134.138,57.169a.93.93,0,0,0-.833.615l-.3.988a.448.448,0,0,0,.454.613h.613c.354,0,.577.213.5.474a.844.844,0,0,1-.791.473h-3.767a.45.45,0,0,1-.454-.615l.6-1.933c.1-.337-.023-.615-.283-.615s-.388-.276-.284-.615l.011-.031a.829.829,0,0,1,.662-.615.83.83,0,0,0,.663-.615l.2-.663a.931.931,0,0,1,.834-.615h1.868a.448.448,0,0,1,.452.615l-.2.663a.449.449,0,0,0,.454.615h.929a.449.449,0,0,1,.454.615l-.011.031a.925.925,0,0,1-.831.615Z" transform="translate(-94.677 -40.334)" fill="#180909"/>
      <path id="パス_61" data-name="パス 61" d="M154.649,65.472a.45.45,0,0,1-.454-.615l.986-3.193a.931.931,0,0,1,.833-.615h1.868a.45.45,0,0,1,.455.615l-.6,1.933a.446.446,0,0,0,.451.614h1.877a.931.931,0,0,0,.833-.614l.594-1.933a.931.931,0,0,1,.835-.615h1.235a.449.449,0,0,1,.454.615l-.986,3.193a.929.929,0,0,1-.833.615Z" transform="translate(-112.688 -45.476)" fill="#180909"/>
      <path id="パス_62" data-name="パス 62" d="M86.592,9.549a.388.388,0,0,1-.391-.537l.526-1.636a.826.826,0,0,1,.736-.537H90a.822.822,0,0,0,.735-.536l.253-.853a.748.748,0,0,1,.719-.475h.907a.386.386,0,0,1,.39.536L91.9,9.013a.823.823,0,0,1-.735.537Zm3.551-1.4a.388.388,0,0,0-.392-.537H88.84a.825.825,0,0,0-.736.537l-.029.088a.387.387,0,0,0,.391.537h.911a.824.824,0,0,0,.736-.537Z" transform="translate(-62.989 -4.459)" fill="#180909"/>
      <path id="パス_63" data-name="パス 63" d="M112.6,8.344c-.31,0-.507-.175-.439-.387a.736.736,0,0,1,.689-.388h.905c.309,0,.508.175.439.388a.737.737,0,0,1-.689.387Zm-1,3.1a.387.387,0,0,1-.391-.537l.525-1.637a.828.828,0,0,1,.735-.536h.906a.387.387,0,0,1,.391.536l-.525,1.637a.826.826,0,0,1-.736.537Z" transform="translate(-81.271 -6.356)" fill="#180909"/>
      <path id="パス_64" data-name="パス 64" d="M121.461,15.762c-.309,0-.521-.13-.469-.29s.346-.29.657-.29h2.537c.309,0,.605-.131.657-.291s-.16-.29-.47-.29h-2.538a.387.387,0,0,1-.391-.537l.528-1.642a.823.823,0,0,1,.735-.537h4.57a.387.387,0,0,1,.391.537l-.9,2.8a.827.827,0,0,1-.736.536Zm3.924-2.56a.388.388,0,0,0-.392-.537h-.91a.823.823,0,0,0-.736.537l-.028.088a.387.387,0,0,0,.391.537h.911a.822.822,0,0,0,.735-.537Z" transform="translate(-88.432 -9.511)" fill="#180909"/>
      <path id="パス_65" data-name="パス 65" d="M149.024,8.344c-.31,0-.507-.175-.439-.387a.734.734,0,0,1,.687-.388h.907c.309,0,.507.175.439.388a.735.735,0,0,1-.688.387Zm-1,3.1a.387.387,0,0,1-.391-.537l.525-1.637a.828.828,0,0,1,.735-.536h.908a.388.388,0,0,1,.391.536l-.526,1.637a.827.827,0,0,1-.736.537Z" transform="translate(-107.895 -6.356)" fill="#180909"/>
      <path id="パス_66" data-name="パス 66" d="M164.269,9.507a.825.825,0,0,0-.735.536l-.093.288a.386.386,0,0,0,.391.536h.1c.31,0,.521.131.47.291s-.347.29-.657.29h-2.13a.387.387,0,0,1-.392-.536l.279-.869c.094-.295.034-.536-.132-.536s-.251-.174-.181-.387a.531.531,0,0,1,.428-.386c.168,0,.383-.243.477-.538l.029-.089a.826.826,0,0,1,.736-.535h.906a.387.387,0,0,1,.391.535l-.029.089a.388.388,0,0,0,.392.538h.3c.309,0,.508.173.438.386a.734.734,0,0,1-.687.387Z" transform="translate(-117.801 -6.357)" fill="#180909"/>
      <path id="パス_67" data-name="パス 67" d="M183.71,14.065a.826.826,0,0,1-.736.536H178.4a.386.386,0,0,1-.39-.536l.214-.67a.826.826,0,0,1,.736-.537H181.5c.309,0,.592-.087.626-.193s-.191-.194-.5-.194h-2.537c-.309,0-.52-.132-.469-.292s.348-.293.658-.293h4.569a.387.387,0,0,1,.391.536Zm-1.956-.238c.035-.107-.19-.194-.5-.194h-.911c-.311,0-.592.087-.626.194s.192.193.5.193h.912c.31,0,.59-.086.625-.193" transform="translate(-130.099 -9.511)" fill="#180909"/>
      <path id="パス_68" data-name="パス 68" d="M203.415,10.921a.388.388,0,0,1-.392-.537l.964-3a.824.824,0,0,1,.735-.536h.906a.386.386,0,0,1,.391.536l-.962,3a.825.825,0,0,1-.736.537Z" transform="translate(-148.379 -5.83)" fill="#180909"/>
      <path id="パス_69" data-name="パス 69" d="M90.661,34.232a.387.387,0,0,1-.391-.536l.277-.863a.387.387,0,0,0-.39-.537h-.912a.826.826,0,0,0-.736.537l-.276.863a.824.824,0,0,1-.736.536h-.906A.387.387,0,0,1,86.2,33.7l1.054-3.5a.827.827,0,0,1,.735-.536H88.9a.387.387,0,0,1,.391.536l-.18.787a.388.388,0,0,0,.39.538l2.536,0a.388.388,0,0,1,.391.537L91.9,33.7a.827.827,0,0,1-.737.536Z" transform="translate(-62.989 -22.514)" fill="#180909"/>
      <path id="パス_70" data-name="パス 70" d="M111.6,39.285a.387.387,0,0,1-.391-.536l.528-1.643a.823.823,0,0,1,.735-.535h4.568a.387.387,0,0,1,.392.535l-.528,1.643a.822.822,0,0,1-.735.536Zm3.956-1.4a.386.386,0,0,0-.391-.536h-.91a.824.824,0,0,0-.736.536l-.029.088a.389.389,0,0,0,.391.539h.912a.827.827,0,0,0,.735-.539Z" transform="translate(-81.269 -27.569)" fill="#180909"/>
      <path id="パス_71" data-name="パス 71" d="M136.612,35.605a.387.387,0,0,1-.391-.536l.962-3a.826.826,0,0,1,.736-.536h.906a.387.387,0,0,1,.391.536l-.962,3a.827.827,0,0,1-.736.536Z" transform="translate(-99.551 -23.888)" fill="#180909"/>
      <path id="パス_72" data-name="パス 72" d="M148.02,35.605a.387.387,0,0,1-.391-.536l.964-3a.825.825,0,0,1,.734-.536h.907a.386.386,0,0,1,.39.536l-.962,3a.824.824,0,0,1-.737.536Z" transform="translate(-107.889 -23.888)" fill="#180909"/>
      <path id="パス_73" data-name="パス 73" d="M157.879,40.445c-.31,0-.523-.13-.471-.29s.348-.29.657-.29H160.6c.31,0,.606-.132.657-.291s-.16-.29-.468-.29h-2.538a.386.386,0,0,1-.391-.536l.527-1.643a.825.825,0,0,1,.736-.536h.5a.386.386,0,0,1,.39.536l-.279.867a.388.388,0,0,0,.391.538h.912a.827.827,0,0,0,.736-.538l.279-.867a.823.823,0,0,1,.736-.536h.906a.386.386,0,0,1,.389.536l-.9,2.8a.825.825,0,0,1-.736.537Z" transform="translate(-115.051 -27.569)" fill="#180909"/>
      <path id="パス_74" data-name="パス 74" d="M191.715,38.822a1.213,1.213,0,0,1-.886.463h-.906a.6.6,0,0,1-.595-.563l-.041-.773c-.017-.309-.176-.354-.352-.1l-.677.973a1.206,1.206,0,0,1-.884.463h-.911a.6.6,0,0,1-.593-.563l-.085-1.589a.53.53,0,0,1,.533-.562h.907a.6.6,0,0,1,.592.562l.027.507c.016.309.174.354.352.1l.494-.708a1.216,1.216,0,0,1,.886-.462h1.109a.6.6,0,0,1,.593.562l.027.507c.016.309.173.354.35.1l.491-.708a1.073,1.073,0,0,1,.728-.462c.223,0,.261.208.083.462Z" transform="translate(-135.797 -27.568)" fill="#180909"/>
      <path id="パス_75" data-name="パス 75" d="M214.161,39.285a.386.386,0,0,1-.39-.536l.528-1.643a.82.82,0,0,1,.735-.535H219.6a.386.386,0,0,1,.391.535l-.527,1.643a.825.825,0,0,1-.736.536Zm3.957-1.4a.387.387,0,0,0-.391-.536h-.911a.828.828,0,0,0-.736.536l-.028.088a.389.389,0,0,0,.391.539h.911a.827.827,0,0,0,.736-.539Z" transform="translate(-156.235 -27.569)" fill="#180909"/>
      <path id="パス_76" data-name="パス 76" d="M238.648,39.285a.387.387,0,0,1-.392-.536l.528-1.643a.826.826,0,0,1,.735-.535h4.57a.388.388,0,0,1,.392.535l-.528,1.643a.826.826,0,0,1-.736.536Zm3.956-1.4a.387.387,0,0,0-.391-.536H241.3a.823.823,0,0,0-.736.536l-.029.088a.389.389,0,0,0,.391.539h.911a.825.825,0,0,0,.736-.539Z" transform="translate(-174.133 -27.569)" fill="#180909"/>
      <path id="パス_77" data-name="パス 77" d="M263.134,36.129a.387.387,0,0,1-.391-.536l.526-1.637a.827.827,0,0,1,.736-.537h2.536a.826.826,0,0,0,.737-.536l.029-.094a.827.827,0,0,1,.736-.537h.906a.387.387,0,0,1,.391.537l-.9,2.8a.825.825,0,0,1-.736.536Zm3.55-1.4a.387.387,0,0,0-.391-.536h-.911a.825.825,0,0,0-.736.536l-.029.088a.389.389,0,0,0,.391.539h.912a.826.826,0,0,0,.735-.539Z" transform="translate(-192.031 -24.411)" fill="#180909"/>
      <path id="パス_78" data-name="パス 78" d="M19.641,18.16l-.395,7.981a.88.88,0,0,1-.568.839,1.623,1.623,0,0,1-1.268-.071l-5.167-2.141a1.385,1.385,0,0,1-.984-1.3,1.072,1.072,0,0,1,.072-.395l2.078-5.338a.394.394,0,0,0,.029-.228c-.048-.315-.3-.528-.758-.646l-3.3-.892a1.3,1.3,0,0,0-.649.009,1.071,1.071,0,0,0-.524.278L4.39,20.09a1.522,1.522,0,0,1-.746.443,1.216,1.216,0,0,1-.8-.018L.288,19.456c-.334-.136-.374-.373-.136-.7a1.17,1.17,0,0,1,.217-.222L7.49,12.885.737,11.448c-.175-.036-.191-.106-.048-.213a.833.833,0,0,1,.128-.073l2.912-1.37a1.3,1.3,0,0,1,.332-.1A1.168,1.168,0,0,1,4.4,9.682l2.7.394a1.272,1.272,0,0,0,.375-.014.865.865,0,0,0,.319-.11l4.74-2.609a.7.7,0,0,1,.248-.08,1.266,1.266,0,0,1,.322-.015l.292.035c.195.017.286.059.274.127a.069.069,0,0,1-.033.043L9.512,10.679a.75.75,0,0,1-.327.128,1.333,1.333,0,0,1-.423.012l-3.139-.487a1.387,1.387,0,0,0-.721.124l-1.191.68a.489.489,0,0,0-.111.077c-.118.11-.082.183.115.219l5.811,1.184,1.158.214c.294.055.415.144.38.309a.293.293,0,0,1-.068.1l-.121.129-1.2,1.287a.325.325,0,0,0-.085.142c-.058.207.08.351.418.43l8.526,1.993a1.46,1.46,0,0,1,1.065.712.386.386,0,0,1,.044.227" transform="translate(0 -6.117)" fill="#180909"/>
      <path id="パス_79" data-name="パス 79" d="M49.8,3.47c.027.228-.594.41-1.388.41s-1.462-.183-1.489-.41.594-.412,1.389-.412,1.46.184,1.488.412" transform="translate(-34.296 -3.058)" fill="#180909"/>
    </g>
  </g>
</svg>
