<svg xmlns="http://www.w3.org/2000/svg" width="483.899" height="340.697" viewBox="0 0 483.899 340.697">
  <g id="グループ_164" data-name="グループ 164" transform="translate(-798.1 -227.96)">
    <g id="PC">
      <path id="PC-2" data-name="PC" d="M1058.651,335.654c-13.037-6.966-42.83-13.327-48.72-20.272-1.494-1.763,19.393-45.408,28.537-64.8,14.674,7.53,47.592,23.853,48.042,24.986C1086.966,276.721,1063.023,328.044,1058.651,335.654Z" fill="#ed6d00"/>
    </g>
    <path id="パンツ" d="M862.256,414.466c8.733.91,24-1.39,32.327-4.178s26.007-4.922,34.787-4.922c2.275,0-3.63-6.958,25.025,21.613,49.543,49.4,38.676,48.913,97.646,63.7,25.443,6.38,44.9,24.461,68.251,36.4s49.887,16.9,75.257,10.238c9.352-2.458,22.3-1.855,27.119-10.238,5.015-8.722-1.137-25.025-5.687-29.575-1.138-5.688-.7-4.686-10.894-6.2-11.857-1.762-16.54-5.534-26.644-4.037-30.713,4.55-36.993,6.464-52.326-6.825-17.063-14.788-27.3-21.613-23.888-34.126,1.685-6.177-27.051-23.56-29.4-25.025-27.3-17.063-38.675-12.513-64.838-20.475-6.915-2.105-7.736,1.735-13.65-2.275-17.911-12.146-33.092-36.12-54.552-38.908-15.087-1.96-31.9,12.745-85.363,20.707-10.507,1.565-8.474,9.179-6.116,19.537C850.02,402.972,856.681,413.885,862.256,414.466Z"/>
    <g id="靴">
      <path id="パス_2327" data-name="パス 2327" d="M1278.974,559.337c-.378,3.311-1.473,7.2-4.65,8.2-2.08.657-15.09-5.157-18.487-7.47-3.192-2.173-7.745-9.318-4.55-12.513,9.1-9.1,7.943-16.289,6.724-20.506S1247.4,509.61,1245.6,507.742s-10.742-3.651-10.237-4.55c2.6-4.621,11.435-9.558,16.7-8.671,4.478.753,21.987,21.319,24.245,33.7C1277.593,535.233,1279.784,552.248,1278.974,559.337Z"/>
      <path id="パス_2328" data-name="パス 2328" d="M813.472,349.532c-1.217-1.24-2.586-2.506-4.3-2.774-2.374-.372-4.616,1.306-6.017,3.258a18.365,18.365,0,0,0-3.108,10.069,47.577,47.577,0,0,0,1.128,10.608,181.209,181.209,0,0,0,5.274,21.2c2.059,6.446,4.607,12.821,8.56,18.314a21.618,21.618,0,0,0,7.909,7.17,15,15,0,0,0,18.192-4.859,2.338,2.338,0,0,0,.512-1.23,1.783,1.783,0,0,0-1.25-1.559,7.35,7.35,0,0,0-2.1-.291c-4.064-.283-7.773-2.645-10.438-5.727a36.417,36.417,0,0,1-5.9-10.633,110.548,110.548,0,0,1-5.531-18.666c-.422-2.086-.747-4.4.362-6.219a5.879,5.879,0,0,1,3.737-2.452c1.236-.311,3.577-.1,4.01-1.691.387-1.429-1.787-3.53-2.57-4.591q-1.8-2.449-3.769-4.777Q815.917,352.021,813.472,349.532Z"/>
    </g>
    <path id="パーカー" d="M1034.021,310.952c-2.188-2.188-14.732,10.122-15.925,12.513s8.568,14.5,8.316,16.551c-7.178,6.2-10.591,20.987-17.66,27.718-6.2,5.9-7.89,15.725-4.975,23.773s11.75,16.09,15.457,16.134c24,.286,61.627,15.764,69.019,22.888,14.019,13.512,19.707,14.65,31.082-13.788,19.338-19.338,4.378-28.752,1.462-32.928-5.815-8.329-3.75-21.125,4.389-27.2.32,3.831,3.975,6.848,7.8,7.2,13.646-1.667,13.262-10.65,14.784-14.18,2.032-4.713,8.949-12.39,6.825-17.062-5.687-12.513-14.788-27.3-19.338-29.576-10.469-5.234-22.394-1.707-33.282,2.591-.713-1.79,6.748-5.453,7.889-7,1.694-2.305.058-5.733-2.35-7.277s-17.053-7.1-21.17-6.509c-7.963,1.137-21.591,48.176-25.025,47.776C1058.734,332.263,1046.534,323.465,1034.021,310.952Z" fill="#f6f8f9"/>
    <path id="手" d="M1032.884,292.752c0,1.233.461,14.781,0,15.925-.5,1.239-13.675,14.255-14.788,13.65-5.248-2.853-14.788-13.65-11.375-21.613,7.962-10.237,11.375-18.2,12.513-21.613C1022.769,278.59,1032.885,289.681,1032.884,292.752Z" fill="#fff"/>
    <path id="顔面" d="M1140.948,308.677c-1.269-4.493.544-17.726,6.825-22.751,11.375-9.1,11.934-25.174,10.7-29.866-2-7.592-8.424-24.734-24.506-19.868-5.261,2.081-10.639,4.277-14.72,8.186a22.649,22.649,0,0,1-3.453,3.093c-3.134,1.962-7.165,1.372-10.8.712.455,3.485,1.67,7.067.7,10.443-.941,3.26-3.9,6.051-4.986,9.266-1.3,3.866,1.573,16.9,10.8,18.769.955.194,4.507,1.91,4.558,2.883.035.658-3.977,8.774-5.687,12.226C1118.2,300.714,1137.95,304.3,1140.948,308.677Z" fill="#fff"/>
    <path id="髪" d="M1191.719,254.746c6.174,8.756,8.378,19.793,10.573,30.28,8.044,38.439,26.425,48.2,36.482,62.326,5.113,7.18,23.5,23.685,14.788,25.026-4.822.742-25.958,4.579-31.85,3.412-11.712-2.319-27.364-12.454-37.12-19.335-10.713-7.556-21.208-15.846-28.624-26.655s-11.45-24.573-8.109-37.249c2.728-10.35,13.157-19.45,11.161-29.966-4.422-23.3-13.522-26.709-20.347-26.709-4.364,0,8.933-6.113,11.356-5.837C1155.568,230.672,1172.8,227.913,1191.719,254.746Z" fill="#fff"/>
    <path id="顔" d="M819.031,383.753c1.154,4.508,5.687,21.613,15.542,24.809,4.426,1.435,9.549,1.369,13.336-1.335.806-.576,4.11-.724-1.533-19.365-11.42-2.972-13.763-6.613-16.823-13.4-.84-1.863-4.835-10.046-10.522-8.908C815.618,367.828,818.412,381.338,819.031,383.753Z" fill="#fff"/>
    <path id="パス_2329" data-name="パス 2329" d="M1204.484,311.334a94.066,94.066,0,0,0,27.716,36.3,91.155,91.155,0,0,0,10.975,7.471,1.707,1.707,0,0,1-1.723,2.946,96.933,96.933,0,0,1-33.721-33.013,94.089,94.089,0,0,1-6.194-11.981C1200.678,311.06,1203.617,309.32,1204.484,311.334Z"/>
    <path id="パス_2330" data-name="パス 2330" d="M1163.571,292.763c2.741,12.14,10.019,22.5,18.671,31.214a194.045,194.045,0,0,0,29.054,23.555,137.014,137.014,0,0,1-21.218-26.079c-4.488-7.185-8.457-15.046-8.629-23.693-.044-2.2,3.368-2.2,3.412,0,.151,7.568,3.585,14.482,7.451,20.816a130.8,130.8,0,0,0,11.908,16.485,135.11,135.11,0,0,0,50.525,37.174,1.717,1.717,0,0,1,.612,2.334,1.748,1.748,0,0,1-2.334.612,136.41,136.41,0,0,1-23.592-12.9,1.707,1.707,0,0,1-.843-.215,234.886,234.886,0,0,1-32.915-21.773c-10.068-7.947-19.91-16.662-27.018-27.447a58.446,58.446,0,0,1-8.374-19.177C1159.8,291.531,1163.087,290.618,1163.571,292.763Z"/>
    <path id="パス_2331" data-name="パス 2331" d="M1138.281,233.588c8.433-6.37,20.236-7.1,29.927-3.363,9.922,3.825,17.745,11.647,23.21,20.613a97.788,97.788,0,0,1,9.538,22.417,1.638,1.638,0,0,1,1.051-.035,57.181,57.181,0,0,0,50.41-10.354c1.7-1.366,4.124,1.034,2.413,2.413a60.762,60.762,0,0,1-52.837,11.449c.847,2.928,1.644,5.868,2.433,8.793,1.175,4.349,2.37,8.689,3.716,12.969a1.4,1.4,0,0,1,1.792.791c5.736,12.135,20.163,14.84,32.075,16.875,2.16.369,1.244,3.658-.907,3.291-10.485-1.792-22.561-4.327-29.959-12.314a91.084,91.084,0,0,0,30.217,40.355c1.726,1.312.028,4.277-1.722,2.947a97.493,97.493,0,0,1-22.116-23.465c-6.44-9.648-10.664-20.329-13.871-31.431-6.119-21.178-10.541-47.177-31.188-59.472-9.888-5.888-22.978-6.7-32.46.468C1138.251,237.859,1136.548,234.9,1138.281,233.588Z"/>
    <path id="パス_2332" data-name="パス 2332" d="M1127.729,256.318a20.68,20.68,0,0,1,5.694-6.43,1.706,1.706,0,0,1,1.314-.172,1.706,1.706,0,0,1,1.192,2.1,1.983,1.983,0,0,1-.77,1.007c.024-.018.022-.016-.005,0l-.009.009-.062.047-.055.043q-.189.151-.375.309-.354.3-.692.613a18.617,18.617,0,0,0-1.318,1.362c-.2.228-.387.462-.578.7l-.1.134q-.13.176-.256.355a18.7,18.7,0,0,0-1.033,1.647,1.707,1.707,0,0,1-2.947-1.722Z"/>
    <path id="パス_2333" data-name="パス 2333" d="M1110.242,270.317a1.53,1.53,0,0,1,1.4.13,11.681,11.681,0,0,0,11.689,1.015,1.749,1.749,0,0,1,2.334.612,1.439,1.439,0,0,1,.074.165,1.531,1.531,0,0,1,.9,1.066,8.744,8.744,0,0,1-1.819,7.334,8.444,8.444,0,0,1-6.919,2.929,9.459,9.459,0,0,1-6.689-3.692,20.714,20.714,0,0,1-3.441-7.614A1.732,1.732,0,0,1,1110.242,270.317Zm7.4,9.811a5.093,5.093,0,0,0,5.788-5.046,15.264,15.264,0,0,1-11.3-.445C1113.164,277.235,1114.781,279.678,1117.643,280.128Z"/>
    <path id="右足" d="M1223.987,524.8c-.248,1.09,4.23,1.381,6.825,1.138,1.525-.143,6.825-7.963,18.719,23.914,1.041-3.006,3.24-5.439,5.238-7.913,10.168-12.589-5.142-31.83-6.275-33.2s-26.2-3.844-26.442-2.335C1221.873,507.541,1224.877,520.886,1223.987,524.8Z" fill="#fff"/>
    <path id="パス_2334" data-name="パス 2334" d="M1079.965,340.75a1.747,1.747,0,0,1,2.334.612,85.4,85.4,0,0,1,5.183,8.742,1.707,1.707,0,0,1-2.947,1.722,85.387,85.387,0,0,0-5.182-8.741A1.717,1.717,0,0,1,1079.965,340.75Z"/>
    <path id="パス_2335" data-name="パス 2335" d="M800.538,349.9c1.837-3.8,5.578-8.125,10.223-5.956,2.337,1.091,4.2,3.316,5.919,5.173a79.4,79.4,0,0,1,5.258,6.323,76.187,76.187,0,0,1,8.41,14.222,1.725,1.725,0,0,1-.008,1.5c.177.41.346.823.506,1.236,1.248,3.217,2.025,6.952,4.406,9.581,2.589,2.858,6.564,3.451,10.244,3.811a8.685,8.685,0,0,1,5.57-6.5,28.954,28.954,0,0,1,6.983-1.055c2.5-.249,5-.542,7.487-.893a197.448,197.448,0,0,0,29.4-6.459q7.148-2.154,14.12-4.845c4.6-1.776,9.087-3.838,13.742-5.465a39.009,39.009,0,0,1,14.1-2.55,33.871,33.871,0,0,1,12.737,3.206c8.553,3.863,15.992,10.172,23.253,16.008q11.8,9.488,22.853,19.87c.776.73,1.538,1.475,2.308,2.211.027-.009.047-.026.075-.034a6.494,6.494,0,0,1,.987-.152c.712-.1,1.424-.19,2.14-.255a35.47,35.47,0,0,1,4.174-.126,25.522,25.522,0,0,1-4.512-12.181c-.787-7.758,2.29-15.516,7.538-21.174a31.3,31.3,0,0,1,4.253-3.755,1.491,1.491,0,0,1,.892-.323c.108-.223.214-.446.315-.672a43.112,43.112,0,0,0,2.109-7.955c1.062-4.631,3.135-9.13,7.752-11.061a1.038,1.038,0,0,1,.186-.048,16.814,16.814,0,0,1,.632-2.421,1.545,1.545,0,0,1-.629-.484,38.062,38.062,0,0,1-4.11-6.207c-1.042-2-2.209-4.294-2.265-6.613a1.776,1.776,0,0,1-.906-1.954,1.569,1.569,0,0,0,0-.444l-10.494-5.277a1.709,1.709,0,0,1-.7-2.137,1.672,1.672,0,0,1-.125-1.76l.848-1.715a8.6,8.6,0,0,1-1.412-3.657c-1.81-3.021-2.75-6.931.886-9.007.946-.541.941-.756,1.1-1.831a12.274,12.274,0,0,1,.619-2.488,13.716,13.716,0,0,1,2.789-4.558,13.239,13.239,0,0,1,1.936-1.7,13.73,13.73,0,0,0,2.208-1.382c.487-.56.209-1.565.118-2.247a8.714,8.714,0,0,1-.068-2.5,7.047,7.047,0,0,1,6.859-5.87,1.77,1.77,0,0,0,1.177.048.17.17,0,0,1,.032,0,4.767,4.767,0,0,1,.478.064.221.221,0,0,1,.057.017c.034.013.3.112.43.182l.027.017.02.015,13.681-27.658a1.47,1.47,0,0,1,.891-.8,1.669,1.669,0,0,1,1.939-.252l47.272,24a1.463,1.463,0,0,1,.636.055,1.775,1.775,0,0,1,1.2,1.278,1.713,1.713,0,0,1,.254,1.916l-2.93,6.119a24.77,24.77,0,0,1,2.477.071,23.6,23.6,0,0,1,12.792,4.929,1.644,1.644,0,0,1,.367.4,8.77,8.77,0,0,1,1.331-.213,7.853,7.853,0,0,1,5.788,2.142,9.5,9.5,0,0,1,2.921,5.84,16.417,16.417,0,0,0,2.722-5.244,23.265,23.265,0,0,1-6.723-1.943,17.363,17.363,0,0,1-8.383-9c-3.247-7.732-.513-16.333,5.623-21.639a13.173,13.173,0,0,1-1.8-5.524c-.183-1.988-.142-4.992,2.081-5.846a5.711,5.711,0,0,1,3.266.1,22.413,22.413,0,0,0,4.093.429c.183,0,.364-.013.546-.017a1.732,1.732,0,0,1,.16-.381l.751-.986a1.288,1.288,0,0,1,.288-.314,1.7,1.7,0,0,1,.238-.308,44.226,44.226,0,0,1,22.914-11.317,1.762,1.762,0,0,1,2.1,1.192,1.718,1.718,0,0,1-1.192,2.1,41.13,41.13,0,0,0-20.191,9.387c.814-.193,1.624-.414,2.425-.688,2.082-.715,2.976,2.58.907,3.29a26.454,26.454,0,0,1-12.214,1.194,14.283,14.283,0,0,0-2.662-.493c-.334.245-.146,2.067-.114,2.431a10.106,10.106,0,0,0,2.14,5.246,1.737,1.737,0,0,1-.613,2.334c-5.826,4.222-8.53,12.2-5.453,18.887a14.138,14.138,0,0,0,7.245,7.176c3.743,1.6,7.943,1.706,11.949,1.738,2.2.017,2.2,3.43,0,3.412-1.312-.01-2.633-.043-3.952-.121a1.857,1.857,0,0,1-.055.309,20.286,20.286,0,0,1-5.534,9.05,39.433,39.433,0,0,1,12.623-1.99,19.3,19.3,0,0,1,11.835,4.569,23.788,23.788,0,0,1,1.991,1.911,27.152,27.152,0,0,1,11.023-23.186,1.5,1.5,0,0,1,.931-.316c1.019-1.686,2.052-3.364,2.982-5.1,4.126-7.7,4.423-16.708-.012-24.374a1.708,1.708,0,0,1,2.947-1.723,27.8,27.8,0,0,1,2.643,21.643c-2.233,7.5-7.969,13.317-10.244,20.79-4.514,14.83,2.706,30.249,12.321,41.326,5.438,6.264,11.721,11.712,18.03,17.074A109.419,109.419,0,0,1,1156,311.75c-.734-2.074,2.562-2.967,3.291-.907a107.727,107.727,0,0,0,34.694,48.242,104.643,104.643,0,0,0,14.141,9.372c1.921,1.065.2,4.014-1.723,2.947a109.911,109.911,0,0,1-24.849-18.9,1.8,1.8,0,0,1-2.932,1.614c-7.755-6.582-15.727-13.417-22.035-21.466a17.153,17.153,0,0,1-2.975,12.129,21.65,21.65,0,0,1-4.63,4.616,1.725,1.725,0,0,1,.158.738,15.147,15.147,0,0,1-10.192,14.214,14.947,14.947,0,0,1-14.488-3.317,1.772,1.772,0,0,1-.335.513,16.187,16.187,0,0,0-4.318,9.953,16.943,16.943,0,0,0,2.808,10.343c3.687,5.878,9.623,11.346,8.435,18.94-.621,3.966-3.125,7.257-5.524,10.34a86.644,86.644,0,0,0-7.366,10.933c-2.054,3.675-3.583,7.538-5.319,11.36-1.445,3.18-3.451,6.372-6.775,7.824a11.537,11.537,0,0,1-1.615.571,7.758,7.758,0,0,1,.992,6.508c-.569,2.059-2.215,4.382-1.6,6.592.552,1.982,2.68,3.453,4.125,4.768,7.507,6.829,14.869,13.874,22.593,20.456a47.61,47.61,0,0,0,10.891,7.318,25.713,25.713,0,0,0,13.6,1.962c4.982-.524,9.824-1.947,14.758-2.768a87.423,87.423,0,0,1,44.529,4.1,1.8,1.8,0,0,1,2.263.549,46.425,46.425,0,0,1,6.514,12.663,1.368,1.368,0,0,1,.9.007,30.2,30.2,0,0,0,10.128,1.951,14.664,14.664,0,0,1,21.685-11.649,1.458,1.458,0,0,1,.853,1.374,64.356,64.356,0,0,1,18.266,25.36,97,97,0,0,1,5.326,17.757c1.22,5.953,2.233,12.128,1.437,18.2-.623,4.755-2.628,12.125-8.76,11.681-2.8-.2-5.488-1.7-8.009-2.836a56.156,56.156,0,0,1-7.207-3.789c-3.457-2.216-7.947-5.7-8.706-10.038-2.694-3.825-3.038-8.734-4.9-12.945a34.478,34.478,0,0,0-7.809-11.044,65.473,65.473,0,0,1-11.406-.743c-.084.5-.159.994-.26,1.489a1.747,1.747,0,0,1-2.293,1.133,119.419,119.419,0,0,1-98.123,1.992c-10.782-4.633-20.536-11.165-30.231-17.7-9.642-6.5-19.4-13.126-30.212-17.549-11.426-4.674-23.676-6.648-35.549-9.819a95.166,95.166,0,0,1-29.686-13.22,144.523,144.523,0,0,1-22.276-19.491c-13.991-14.606-26.3-30.921-41.888-43.938q-2.793-2.332-5.726-4.486a1.812,1.812,0,0,1-.413-.428c-8.437-.413-16.815,1.03-25.018,3.074-9.51,2.37-18.85,5.669-28.5,7.432-8.132,1.485-17.151,1.109-22.631-5.953-.42-.542-.8-1.108-1.164-1.685a53.672,53.672,0,0,1-7.234,2.626c-.011.026-.015.052-.027.078a16.781,16.781,0,0,1-22.435,8.081c-4.229-2.008-7.173-5.9-9.428-9.882a82.7,82.7,0,0,1-6.132-13.974c-1.677-4.886-3.015-9.879-4.274-14.885-1.33-5.287-2.775-10.61-3.206-16.064A27.539,27.539,0,0,1,800.538,349.9Zm456.111,207.129a35.437,35.437,0,0,0,6.857,4.325,72.22,72.22,0,0,0,7.318,3.3c1.139.424,2.55.909,3.74.393a5.156,5.156,0,0,0,2.3-2.812c2.3-5.253,1.968-11.438,1.133-16.975a105.758,105.758,0,0,0-4.149-17.478c-3.931-11.853-10.626-23.128-20.744-30.7a1.819,1.819,0,0,1-.451-.491,11.481,11.481,0,0,0-14.452,6.641c3.52-.474,7.075,1.932,9.55,4.676a58.212,58.212,0,0,1,9.322,13.953c2.219,4.671,4.957,10.489,3.082,15.693a23.451,23.451,0,0,1-3.9,6.4c-1.477,1.885-4.007,4.294-3.942,6.871C1252.379,553.368,1254.842,555.508,1256.649,557.025Zm-31.278-33.091a2.36,2.36,0,0,1,.357.005,60.644,60.644,0,0,0,14.916.384,1.7,1.7,0,0,1,.163,3.385,36.7,36.7,0,0,1,6.108,9.236,44.126,44.126,0,0,1,2.368,6.659c.263.953.528,1.9.84,2.821,2.046-3.737,6-6.54,7.055-10.819.78-3.176-.752-6.629-1.937-9.524a55.218,55.218,0,0,0-4.553-8.722,50.606,50.606,0,0,0-5.965-7.715,15.145,15.145,0,0,0-1.853-1.655,1.558,1.558,0,0,1-.9.525,33.043,33.043,0,0,1-17.791-.906A48.2,48.2,0,0,1,1225.371,523.934ZM1023.749,345.406c-2.891,1.838-3.929,5.813-4.608,8.938a46.128,46.128,0,0,1-1.647,6.476c-.711,1.895-1.758,3.617-2.591,5.454-.8,1.776-1.242,3.692-.292,5.5a12.01,12.01,0,0,0,3.756,3.848c3.567,2.594,7.265,5.039,10.956,7.452,7.442,4.866,15.209,9.4,23.615,12.39,2.715.966,7.711,2.968,10.034.2,1.247-1.489,1.539-3.806,2.267-5.566a31.3,31.3,0,0,1,2.763-5.239c3.931-5.98,9.458-10.44,15.364-14.337q-2.814.814-5.629,1.622c-5.134,1.463-10.5,2.806-15.885,2.335-5.071-.443-9.805-2.355-14.29-4.673a104.059,104.059,0,0,1-13.129-7.73C1028.782,358,1024.2,352.042,1023.749,345.406Zm-.734-14.254a33.747,33.747,0,0,0,3.067,4.7,33.769,33.769,0,0,1,7.926-9.337A18.724,18.724,0,0,1,1043.55,322a45.063,45.063,0,0,0-7.783-8.58c-.443-.377-1.586-1.621-2.2-1.63-.569-.009-1.788,1.021-2.274,1.341a30.533,30.533,0,0,0-7.846,7.518c-.973,1.365-2.326,3.071-2.463,4.8C1020.834,327.37,1022.135,329.514,1023.015,331.152Zm1.9-47.293a1.2,1.2,0,0,1-.088.175,4.252,4.252,0,0,0-.129.5c.006.046-.03.418-.03.471,0,.113.005.226.013.339.007.073.01.1.012.131s.008.041.016.092c.022.113.046.224.074.335.056.223.129.437.2.655.029.074.039.1.048.126.04.089.082.177.125.265.1.211.219.417.338.619.241.406.508.8.787,1.176.07.1.141.19.212.285q.186.244.059.076c.145.187.293.371.44.556a1.751,1.751,0,0,1,0,2.414,1.726,1.726,0,0,1-2.413,0,19.091,19.091,0,0,1-2.543-3.844l-.033.066c-.061-.154-.127-.306-.184-.463a.71.71,0,0,0-.038-.183c-.048-.1-.089-.219-.134-.327a13.17,13.17,0,0,1-.562-2.449c0-.342,0-.683.022-1.024.009-.125.022-.25.036-.375l0-.03c.005-.035.01-.07.016-.1.009-.058.019-.114.03-.171a5.372,5.372,0,0,1,.209-.78.457.457,0,0,0,.018-.186.127.127,0,0,0,.019-.032l.02-.151a.041.041,0,0,0,0-.016.343.343,0,0,0,.015-.064l-.019.136c.01-.069.023-.139.035-.208.005-.015.018-.025.022-.041a.678.678,0,0,1,.024-.1.24.24,0,0,0,0-.038c.014-.034.032-.065.048-.1a.629.629,0,0,0,0-.115q.15-.308.3-.613a1.793,1.793,0,0,1-.24-.172,1.759,1.759,0,0,1-.4.054,3.591,3.591,0,0,0-3.04,1.741c-.754,1.225-.393,2.5-.254,3.841a7.028,7.028,0,0,1,0,1.486,5.868,5.868,0,0,0-.14.739,3.854,3.854,0,0,1-.876,1.649c-1.03,1.123-2.61,1.583-3.73,2.629a10.057,10.057,0,0,0-2.436,3.468c-.556,1.33-.518,2.746-.963,4.085a3.666,3.666,0,0,1-1.17,1.707c-.511.423-1.278.613-1.737,1.07-1,1,0,2.677.665,3.747a1.541,1.541,0,0,1,.551.591,1.93,1.93,0,0,0,.145.627,1.469,1.469,0,0,1,0,.289l.072-.146c.039.081.075.163.118.241a5.926,5.926,0,0,0,.861,2.389,15.745,15.745,0,0,0,.892,1.689.538.538,0,0,0,.243.24,17.958,17.958,0,0,0,3.32,3.431,50.527,50.527,0,0,1,4.3,3.139,7.03,7.03,0,0,1,1.141,1.462c.413-.67.859-1.315,1.295-1.926a33.559,33.559,0,0,1,9.808-9.212,10.131,10.131,0,0,1,1.858-.931c.022-2.307-.965-4.445-1.671-6.628a10.793,10.793,0,0,1-.1-7.541c.455-1.133,1.228-2.371,1.016-3.64a5.764,5.764,0,0,0-2.082-3.1C1027.774,286.484,1026.031,285.509,1024.916,283.859Zm14.735-31.241q-6.634,13.413-13.268,26.825a1.476,1.476,0,0,1,.693.622,1.858,1.858,0,0,1,.182.978,1.8,1.8,0,0,1,.175.354,5.953,5.953,0,0,0,2.468,2.622,16.187,16.187,0,0,1,3.052,2.7,7.148,7.148,0,0,1,1.256,7.587,9.914,9.914,0,0,0-1.084,3.607,11.62,11.62,0,0,0,.8,3.736c.808,2.4,1.78,4.8,1.652,7.367a6.2,6.2,0,0,1,.779.516,47.421,47.421,0,0,1,9.054,9.282h0c0,.005,0,.013.007.018l.012.016.006.02c.027.036.045.075.068.112a2.806,2.806,0,0,0,.25.469,1.438,1.438,0,0,0,.166.181,4.423,4.423,0,0,0,.475.621c.006.007.015.009.021.016l.01.014.02.035c.033.069.064.139.1.208,0,.009.015.014.02.023.016.032.028.067.044.1a1.838,1.838,0,0,0,.14.208l.01.021a1.505,1.505,0,0,0,.058.155.429.429,0,0,0,.006.147c.016.047.04.09.058.136h0l0,0c.023.062.05.122.077.182l0,.005a.508.508,0,0,0,.112.42.449.449,0,0,0,.113.1l-.072.082c4.355.841,7.567,3.968,11.24,6.3.565.359,1.147.688,1.737,1l12.078-25.221c.009-.017.022-.028.03-.046.041-.087.078-.175.117-.262l.061-.128,0,0c.414-.908.811-1.822,1.156-2.756.057-.131.11-.263.167-.394.142-.286.281-.573.421-.86.07-.019.139-.043.209-.062q3.146-6.565,6.289-13.131c-.057.014-.112.033-.167.052a11.59,11.59,0,0,0,.509-1.1,9,9,0,0,0,1.038-2.249,1.016,1.016,0,0,0,.033-.435c.249-.565.511-1.122.741-1.695a.424.424,0,0,0,.016-.059c.166-.364.318-.732.472-1.1.294-.461.595-.916.852-1.4q.284-.533.537-1.08c.078-.169.153-.34.228-.51l.02-.05c.037-.094.075-.187.111-.281.11-.281.205-.566.3-.851Zm66.574,39.051a4.6,4.6,0,0,0-4.873-.078c-3.925,2.177-4.611,6.974-5.011,11.077,1.961-.566,3.627-2.368,5.105-3.767,2.009-1.9,4.289-3.617,7.1-3.884A5.892,5.892,0,0,0,1106.225,291.669Zm2.8,6.711c-1.987.068-3.671,1.517-5.167,2.943a17.094,17.094,0,0,0,5.452-2.981A1.962,1.962,0,0,1,1109.02,298.38Zm25.667,6.564a16.3,16.3,0,0,0-11.376-3.574c-7.514.281-14.44,3.676-21.8,4.84a97.744,97.744,0,0,0,24.275,2.612c4.372-.073,8.894-.252,13.168.839A26.139,26.139,0,0,0,1134.687,304.944Zm7.975,4.068c.687,1.023,1.343,2.065,1.974,3.11a20.339,20.339,0,0,1,1.746,1.269,41.13,41.13,0,0,1-1.451-16.721,33.466,33.466,0,0,1,1.791-7.191,23.6,23.6,0,0,0-3.8,18.183A1.663,1.663,0,0,1,1142.662,309.012Zm-4.62,52.043a11.616,11.616,0,0,0,7.591-9.526c-5.693,3.1-12.488,4.573-18.533,6.324l-.864.25A11.739,11.739,0,0,0,1138.042,361.055Zm-5.6-8.3c4.59-1.329,9.283-2.639,13.34-5.251,3.519-2.266,6.438-5.587,7.3-9.773.932-4.542-.567-9.369-2.578-13.415-1.85-3.722-4.346-7.338-7.957-9.535-3.919-2.385-8.6-2.626-13.065-2.6-4.932.028-9.824.127-14.745-.328a99.469,99.469,0,0,1-14.648-2.45c-2.418-.6-4.81-1.292-7.177-2.067a1.763,1.763,0,0,1,.053-3.344,1.278,1.278,0,0,1-.1-.589c.435-4.645,1.017-9.746,4.6-13.138a11.125,11.125,0,0,1,1.181-.97,20.6,20.6,0,0,0-13.92-3.446l-6.164,12.873q1.731-.318,3.489-.525c2.178-.252,2.16,3.163,0,3.413a48.444,48.444,0,0,0-5.315.925L1063.191,330.8a25.622,25.622,0,0,0,15.608.669,1.571,1.571,0,0,1,1.864.79,13.091,13.091,0,0,1,4.2,1.767,1.713,1.713,0,0,1,.558.51,168.5,168.5,0,0,0,25.268-13.982c1.829-1.227,3.539,1.728,1.723,2.947a171.765,171.765,0,0,1-31.408,16.6c-2.036.822-2.921-2.478-.907-3.291.533-.215,1.06-.446,1.591-.667a4.277,4.277,0,0,0-2.6-.585c-1.259.207-1.569,1.307-1.64,2.344a34.618,34.618,0,0,0,.253,4.985q.228,2.959.457,5.919a1.722,1.722,0,0,1-1.707,1.707,1.74,1.74,0,0,1-1.706-1.707l-.534-6.929a16.487,16.487,0,0,1,.124-5.87c.035-.12.084-.232.126-.349a29.765,29.765,0,0,1-19.753-5.611c-3.377-2.434-6.91-5.406-11.37-4.607-4.25.761-7.764,3.9-10.535,7.023-2.9,3.27-5.721,7.245-5.792,11.784-.069,4.427,2.3,8.573,5.336,11.642,3.348,3.38,7.532,5.743,11.641,8.065,4.085,2.309,8.213,4.668,12.723,6.05,10.011,3.067,20.24-1.184,29.83-3.96l30.689-8.885Zm-22.8,79.5c1.667-3.517,3.015-7.151,4.853-10.594a78.858,78.858,0,0,1,6.952-10.8c2.239-2.927,4.953-5.868,5.99-9.487,1.975-6.882-4.453-12.538-7.762-17.812a20.111,20.111,0,0,1-1.024-20.169,18.887,18.887,0,0,1,2.732-3.881l-27.139,7.857-1.575.457a1.568,1.568,0,0,1-.814,1.431c-8.075,4.834-16.506,10.049-21.513,18.291a27.273,27.273,0,0,0-2.666,5.808c-.649,2.006-1.317,4.027-3.023,5.394-3.246,2.6-7.814,1.635-11.416.424-9.23-3.1-17.73-7.972-25.844-13.289-3.965-2.6-8.029-5.18-11.775-8.09-3.193-2.48-5.552-5.8-4.8-9.932a24.426,24.426,0,0,0-6.6,15.425,21.534,21.534,0,0,0,9.469,18.827c6.385,4.162,14.256,5.177,21.628,6.325,8.979,1.4,17.983,2.951,26.647,5.757a71.554,71.554,0,0,1,21.365,10.734,84.148,84.148,0,0,1,8.907,8.29c2.7,2.746,6.014,5.544,10.106,5.429C1106.082,438.543,1108.189,435.3,1109.636,432.25ZM852.328,403.5c1.607,3.523,3.979,6.656,7.608,8.251,3.558,1.563,7.653,1.537,11.44,1.071a94.6,94.6,0,0,0,12.973-2.9c4.547-1.227,9.066-2.552,13.613-3.776,8.987-2.42,18.218-4.492,27.575-4.437a57.917,57.917,0,0,1,7.039.477,1.885,1.885,0,0,1,1.17,3.077c14.65,11.554,26.445,26.17,38.94,39.935,13.346,14.7,28.061,28.738,47.149,35.458,11.563,4.07,23.744,5.907,35.475,9.392,11.309,3.36,21.578,8.816,31.45,15.2,9.675,6.254,18.981,13.107,29.077,18.689a112.545,112.545,0,0,0,31.49,11.655,116.682,116.682,0,0,0,66.519-5.657c2.133-.848,4.224-1.79,6.3-2.777a1.864,1.864,0,0,1,1.7-2.189,44.435,44.435,0,0,0-7.157-30.486,85.336,85.336,0,0,0-27.65-5.6,83.713,83.713,0,0,0-14.518.771c-5.007.719-9.89,2.085-14.89,2.836a31.513,31.513,0,0,1-14.051-.608,37.528,37.528,0,0,1-11.386-6.1c-3.627-2.724-6.959-5.8-10.311-8.849l-11.568-10.524c-2.156-1.961-4.338-3.9-6.467-5.889-1.638-1.53-3.141-3.311-3.452-5.6-.369-2.722,1.059-4.985,1.765-7.509.358-1.283.428-3.589-1.228-3.9a1.417,1.417,0,0,1-1.222-1.584c-5.7-1.235-10.361-7.113-14.437-10.929-6.2-5.8-13.87-9.877-21.83-12.7-8.953-3.174-18.339-4.879-27.7-6.356-7.837-1.236-16.113-2.224-23.037-6.412a24.34,24.34,0,0,1-4.118-3.147,36.152,36.152,0,0,0-4.744-.24c-.908.017-1.791.088-2.661.177,1.488,1.5-.758,3.793-2.322,2.477a1.4,1.4,0,0,1-1.282-.481,4.521,4.521,0,0,1-.782-1.478q-9.36-9.008-19.285-17.4c-7.067-5.957-14.274-11.979-22.022-17.039-7.335-4.791-15.537-8.136-24.428-6.543a65.194,65.194,0,0,0-13.119,4.228c-4.385,1.8-8.76,3.6-13.23,5.183a197.248,197.248,0,0,1-27.489,7.538q-6.9,1.363-13.874,2.239c-2.381.3-4.767.556-7.157.776-2,.184-4.274.326-5.833,1.749-2.4,2.188-1.954,6.186-1.393,9.043A49.84,49.84,0,0,0,852.328,403.5Zm-3.023,1.61c.009-.005.019-.006.028-.01a46.939,46.939,0,0,1-2.33-6.444,36.1,36.1,0,0,1-1.859-9.5,26.226,26.226,0,0,1-8.2-1.858,13.142,13.142,0,0,1-6.227-5.969,73.219,73.219,0,0,1-3.16-8.037c-1.007-2.6-2.644-5.936-5.6-6.691-7.177-1.836-3.125,13.568-2.317,16.614a63.034,63.034,0,0,0,8.456,19.387c2.081,3.014,4.923,5.292,8.68,5.621C841.165,408.614,845.368,406.812,849.3,405.112Zm-47.777-42.675c.164,4.771,1.351,9.426,2.491,14.038,1.1,4.429,2.215,8.855,3.538,13.223a96.73,96.73,0,0,0,4.67,12.6c1.766,3.819,3.769,7.813,6.782,10.814a13.514,13.514,0,0,0,12.394,3.751,13.3,13.3,0,0,0,7.915-5.351,14.02,14.02,0,0,1-10.77-3.267c-2.67-2.288-4.494-5.444-6.079-8.535a83.017,83.017,0,0,1-4.95-11.68A62.451,62.451,0,0,1,814.81,376.2c-.426-3.359-1.071-7.6,1.022-10.562a6.508,6.508,0,0,1,7.38-2.185,73.341,73.341,0,0,0-10.118-13.162c-1.21-1.246-2.8-3.355-4.669-3.524-1.887-.171-3.311,2-4.152,3.4A22.248,22.248,0,0,0,801.528,362.437Z"/>
    <path id="パス_2486" data-name="パス 2486" d="M702.06,367.176c5.688-7.962,6.433,11.107,4.78,11.319l-.346.039c-7.38.935-8.691-2.65-12.018-6.349C692.356,369.827,700.3,367.4,702.06,367.176Z" transform="translate(344.595 -77.969)"/>
  </g>
</svg>
