<svg xmlns="http://www.w3.org/2000/svg" width="648" height="720.94" viewBox="0 0 648 720.94">
  <g id="男性" transform="translate(-539 -36.869)">
    <g id="色">
      <path id="Tシャツ" d="M751.815,455.319c70.675,8.834,103.489-7.572,124.944-39.124,3.777-5.555-26.22-52.27-29.892-72.581s-.564-42.569,12.061-58.9c-47.8-8.61-37.7-21.23-84.336,20.661-4.147,3.725-21.515,30.046-30.349,64.121C736.628,398.87,750.563,455.162,751.815,455.319Z" fill="#fff"/>
      <g id="上着">
        <path id="左" d="M855.131,371.777c8.906,17.047,19.538,34.568,18.806,53.787L891.386,442.1c28.478-14.09,28.173-27.406,27.495-31.769-1.856-11.95-16.188-17.81-25.535-23.57-11.548-7.118-19.318-17.564-23.571-30.446,22.589,4.91,36.877,21.434,59.91,38.3,69.73,51.071,81.387,87.262,104.1,74.642,29.464,28.481,45.178-34.375,20.218-31.6,1.389-15.538-9.408-18.708-18.253-22.413-34.269-14.355-48.742-21.894-96.248-70.713-29.673-30.492-3.929-33.392-29.464-54.016-46.7-10.1-13.749-1.964-40.267-19.643C839.486,307.465,835.671,337.948,855.131,371.777Z" fill="#fff"/>
        <path id="右" d="M634.067,211.938c0,16.407,27.582,84.642,99.52,84.642,11.995,0-7.417,27.943-8.835,29.027-21.455,16.407-27.237,28.214-42.91,56.793-1.616,2.947-47.958,20.193,5.049,54.268,5.239,3.368,37.935,20.9,70.675,20.193-11.272-21.272-14.511-42.806-12.665-67.317,1.344-17.842,18.264-79.705,30.148-82.943,36.785-10.021,34.261-30.214,41.833-41.572,2.186-3.278,7.573-12.621,0-12.621-4.068,0-13.319,2.975-16.406,1.262-6.175-3.425-5.21-15.694-16.407-12.621-64.365,17.669-68.558-7.747-75.987-16.125-8.9-10.043-37.6-33.1-46.433-33.1C649.029,170.374,616.4,199.318,634.067,211.938Z" fill="#fff"/>
      </g>
      <g id="ズボン">
        <path id="パス_2338" data-name="パス 2338" d="M1024.7,531.042c21.455,3.787,85.288,47.574,88.344,53.007,11.359,20.193-11.358,44.172-36.6,31.551-64.365-42.91-40.69-25.546-103.489-37.862-66.889-35.337-113.987-58.676-122.822-57.414-17.669,2.524-18.528,1.884-63.962,68.773,22.717,42.91,68.151,34.075,69.413,45.434,3.717,4.645,3.786,11.358-2.725,15.145-5.048-2.524-18.931,30.289-21.455,32.813-1.262,1.262-18.73,6.31-40.185-1.262-16.407-22.717-17.669-17.669-41.648-25.241-15.145-29.027-36.6-32.814-40.386-60.579,20.283-48.678,53.007-76.985,55.33-104.75-7.372-15.145,2.314-21.282,2.138-33.189,57.2-2.242,59.9-3.411,109.124-32.438,22.717,16.406,24.126,39.221,31.551,44.172C933.831,486.87,951.5,513.374,1024.7,531.042Z"/>
        <path id="しぼり" d="M859.09,654.724c-8.834-10.1-12.62-5.048-18.931,0-8.592,6.873-10.551,26.893,6.311,27.765C854.042,668.607,860.382,656.2,859.09,654.724Z" fill="#fff"/>
        <path id="しぼり-2" data-name="しぼり" d="M1115.847,614.338c2.882-3.842,3.389-15.564,2.591-15.637-.63-.059-13.815,18.468-14.161,19.012C1103.8,618.468,1112.061,619.386,1115.847,614.338Z" fill="#fff"/>
      </g>
      <g id="靴">
        <path id="右-2" data-name="右" d="M867.645,691.044c27.765,23.979,26.64,25.216,31.287,51.262,2.788,15.627,37.627,15.828,39.388,13.1-2.524-11.358-31.552-65.626-45.434-109.8-3.248-1.441-19.071,3.759-21.455,8.834-7.573,13.883-11.187,8.579-13.452,8.623-3.036.058-11.2,16.429-10.046,18.3C848.653,682.531,868.37,688.525,867.645,691.044Z" fill="#fff8f8"/>
        <path id="左-2" data-name="左" d="M1180.634,666.082c-10.273,6.849-34.075-1.262-47.958-20.193-22.717-15.144-27.3-19.469-29.027-25.241-.571-.389,10.1-13.882,15.145-21.455,15.144-3.786,11.358,12.621,49.294,22.981C1190.731,639.579,1184.2,663.705,1180.634,666.082Z" fill="#fff8f8"/>
      </g>
      <g id="PC">
        <path id="PC-2" data-name="PC" d="M624.068,153.688c1.32,10.446,7.572,16.406,3.786,40.385-.27,2.793-74.934-20.662-75.723-21.455-1.018-1.022-9.308-55.5-11.858-69.632,5.185-9.134,23.659-61.546,27-62.883,6.31-2.525,68.952,31.691,68.151,35.337-1.812,8.248-19.2,44.168-21.585,51.5C613.462,128.1,623.588,149.894,624.068,153.688Z" fill="#ed6d00"/>
        <g id="画面">
          <path id="パス_2339" data-name="パス 2339" d="M574.568,46.693c1.874,0,51.642,27.749,55.53,27.765.044,0-18.574,48.315-18.931,47.958-1.262-1.262-55.9-23.083-56.792-23.979C566.995,71.934,572.043,46.693,574.568,46.693Z" fill="#fff"/>
          <path id="タッチパッド" d="M608.829,173.5c-7.293-2.721-24.054-7.011-24.592-7.64-.446-.522-2.446-12.637-2.031-13s23.54,6.92,24.073,7.689C606.642,161.076,610.5,172.654,608.829,173.5Z" fill="#fff"/>
        </g>
        <path id="マウス" d="M723.622,131.224a14.309,14.309,0,0,0-9.432-8.5c-2.874-.688-10.936.539-14.4,2.22-1.8.874-7.607,3.468-8.834,5.049-1.107,1.424-5.049,8.834,2.524,11.358,11.584,3.861,23.252,4.8,24.8,4.194C729.332,141.226,724.047,132.229,723.622,131.224Z" fill="#fff"/>
      </g>
      <path id="顔面" d="M829.045,194.914c-.005,7.394,3.525,13.226-1.786,18.37-2.588,2.506-20.193,6.31-9.146,23.879,9.146,17.769-5.562,31.064-6.967,34.924-1.163,3.2.312,19.509,4.159,21.517,2.69,1.4,24-2.807,31.226-5.32,16.065-5.587,25.984-15.536,27.424-20.731,4.355-.865,10.215,1.786,11.358,1.262,13.608-6.245,12.941.424,13.883,1.262,10.1-17.669,9.8-17.309,16.19-16.866.217-12.162.217-19.734,7.391-17.69,1.094-6.6-6.216-11.034-6.842-17.69,3.929-11.785-6.643-14.643-10.429-26-18.931,1.262-16.407-8.834-24.265-8.795-5.04,1.111-18.34,4.351-29.884,6.638C847.481,190.44,844.24,198.189,829.045,194.914Z" fill="#fff"/>
      <path id="右手" d="M1077.985,489.878c6.875-3.928-3.786-13.1,6.311-9.318,16.407,2.524,26.5-2.755,27.081-4.432,2.011-5.788-12-14.863-15.714-15.714-3.5-.8-11.795,4.2-29.464-5.892-.562-.322-11,18.941-9.591,18.69C1062.271,472.2,1076.36,490.806,1077.985,489.878Z" fill="#fff"/>
      <path id="左手" d="M625.33,202.908c1.688.173,13.607-14.648,19.648-17.455-2.327-2.348-7.229-24.459-9.552-25.455-.953-.409-16.739.7-17.669,1.262,0,10.1,12.345,10.039,11.9,10.8-1.8,3.083-1.371,20.147-1.8,20.751-1.82,2.544-33.741-8.535-34.564-7.858C601.351,200.384,619.6,202.318,625.33,202.908Z" fill="#fff"/>
    </g>
    <g id="線画">
      <path id="体" d="M1111.225,469.171a6.379,6.379,0,0,0-3.316-.545,4.642,4.642,0,0,0-.062-2.449,5.562,5.562,0,0,0-4.821-3.521,8.333,8.333,0,0,0-1.538-.032,7.03,7.03,0,0,0-5.912-4.467c-3.2-.465-6.08.921-9.139,1.575-3.541.758-6.9-.6-9.98-2.256-3.147-1.691-6.206-3.559-9.293-5.358a43.507,43.507,0,0,0-.6-11.908,1.83,1.83,0,0,0-1.322-1.323,14.084,14.084,0,0,1-7.124-3.181,1.906,1.906,0,0,0-1.153-.474,19.993,19.993,0,0,0-.853-5.8c-2.3-7.571-9.106-11.041-15.865-13.984-8.072-3.513-16.153-7.022-24.022-10.976a198.2,198.2,0,0,1-41.055-27.962c-12.349-10.748-23.735-22.537-35.036-34.364-5.3-5.546-11.278-11.225-14.1-18.529-2.928-7.566-.909-16.038-4.127-23.528-2.8-6.51-8.807-10.991-15.286-13.445-7.43-2.815-15.576-2.835-23.438-2.681a20.772,20.772,0,0,0-8.54-13.7c.344-.066.686-.141,1.025-.235a16.692,16.692,0,0,1,3.714-.954c.336-.012,2.187.293,1.788,1.1a1.9,1.9,0,0,0,2.973,2.294c2.3-1.849,5-4.093,8.087-4.26,2.17-.116,4.917,1.265,4.919,3.691a1.915,1.915,0,0,0,3.231,1.339c3.47-3.26,4.26-7.864,6.1-12.044.825-1.878,1.977-3.92,3.894-4.86a4.057,4.057,0,0,1,4.81.461,1.912,1.912,0,0,0,3.231-1.338c-.144-4.8-.33-9.6-.43-14.4-.032-1.551-.073-3.449,1.745-3.91,1.578-.4,3.36.156,4.864.616a1.918,1.918,0,0,0,2.138-2.781l-6.082-12.643c-.991-2.061-2.366-4.227-2.932-6.453a2.77,2.77,0,0,1,.1-2.3c.359-.49.833-.7,1.316-.353,1.773,1.28,3.818-1.53,2.294-2.973l-11.315-10.718a6.19,6.19,0,0,0-.255-5.39c-1.324-2.573-4.094-3.672-6.828-3.989-3.265-.377-6.662.415-9.868-.471-2.34-.646-4.687-2.8-3.624-5.4a1.9,1.9,0,0,0-1.322-2.329,29.177,29.177,0,0,0-20.789,3.064,1.716,1.716,0,0,0-.9,1.2h0a20.923,20.923,0,0,0-10.194-.145,28.764,28.764,0,0,0-8.589,4.1c-4.013,2.557-10.829,6.742-14.909,1.963a1.9,1.9,0,0,0-2.677,0,13.42,13.42,0,0,0-3.218,8.95,13.929,13.929,0,0,0,1.06,4.774c.6,1.507,1.014,2.7-.127,4.052-1.969,2.334-5.149,3.723-7.616,5.454a21.548,21.548,0,0,0-6.116,6.033c-3.261,5.211-1.591,10.506,1.521,15.288,1.543,2.371,3.287,4.694,4.12,7.433a17.764,17.764,0,0,1,.494,7.622,24.735,24.735,0,0,0-15.154.413c-.517.187-1.021.406-1.521.629l-.04-.047a.481.481,0,0,0-.524-.192c-1.3-1.3-4.764-2.2-5.4-3.842a14.941,14.941,0,0,0-10.91-8.92c-6.43-1.228-12.732.848-18.9,2.44a104.786,104.786,0,0,1-19.275,3.118c-6.026.4-12.548.722-18.423-.921-5.723-1.6-9.54-5.777-13.17-10.239-3.8-4.673-7.717-9.231-11.909-13.561a164.79,164.79,0,0,0-27.677-23.416c-4.636-3.032-9.8-5.565-15.379-6.1-2.842-3.787-6.25-7.825-11.257-8.365a11.436,11.436,0,0,0-3.4.173,24.517,24.517,0,0,1-6-14.294c-.279-4.049.357-9.02-4.189-10.946-2.112-.895-4.441-.7-6.673-.553q-1.7.111-3.39.222a139.955,139.955,0,0,0-11.364-28.043,1.959,1.959,0,0,0-.159-.235,1.752,1.752,0,0,0,.6-.705,407.205,407.205,0,0,0,21.484-53.541,1.926,1.926,0,0,0,.09-.551,1.836,1.836,0,0,0-.495-2.746,669.078,669.078,0,0,0-64.488-34.086,2.018,2.018,0,0,0-.787-.19,2.206,2.206,0,0,0-.815-.235,1.417,1.417,0,0,0-.718-.141l-4.521.57a1.873,1.873,0,0,0-.955.259l-.383.295a1.5,1.5,0,0,0-.2.241,1.931,1.931,0,0,0-.746.953L542.056,96.548a1.923,1.923,0,0,0-.236.185,9.549,9.549,0,0,0-1.153,12.148,2.017,2.017,0,0,0-.034.829q4.75,29.917,9.5,59.834a1.682,1.682,0,0,0-.012,1.884l.584.967a5.841,5.841,0,0,1,3.183,2.1l36.077,9.938c3.095,1.56,5.115,4.339,7.16,7.04,2.123,2.8,4.328,5.505,7.41,7.306,6.792,3.967,14.859,3.259,22.3,4.959-.032,4,2.217,8.131,6.236,9.186a24.069,24.069,0,0,0,1.249,12.464c2,5.607,5.041,10.87,7.9,16.071,2.727,4.955,5.6,9.837,8.737,14.543,6.2,9.292,13.494,17.886,22.488,24.585,17.983,13.393,40.774,17.084,62.49,20.069a129.077,129.077,0,0,0-11.472,21.977,110.66,110.66,0,0,0-20.546,19.045c-7.005,8.406-12.148,17.9-17.638,27.305a103.332,103.332,0,0,1-9.088,13.6c-3.414,4.164-7.487,7.369-11.467,10.939-3.949,3.544-6.964,8.024-6.625,13.545.349,5.679,3.408,10.725,6.8,15.114a79.728,79.728,0,0,0,24.381,20.478c21.6,12.054,46.524,15.157,70.737,17.662,1.718.178,2.2-1.669,1.485-2.851a183.371,183.371,0,0,0,21.889,1.766c16.019.176,31.418-3.53,46.11-9.762,13.429-5.7,26.016-13.115,38.47-20.666a1.656,1.656,0,0,0,.973-.357c.516-.387,1.035-.777,1.55-1.173l.239-.145a1.971,1.971,0,0,0,.5-.443q1.1-.867,2.139-1.8a1.658,1.658,0,0,0,.585.822,75.99,75.99,0,0,1,13.458,13.641c.686.9,1.336,1.836,1.98,2.772l-.082.04c.046.075.11.136.15.215.018.03.035.062.056.091.073.094.15.185.22.283s.131.208.2.308c.1.129.209.252.3.387.054.079.1.159.152.24a4.6,4.6,0,0,1,.421.579c.091.154.161.321.26.471s.2.287.293.436c.029.047.054.1.08.144l.016-.008a77.093,77.093,0,0,1,4.567,8.52c2.442,5.363,4.513,10.845,8.4,15.38,3.9,4.557,8.937,8.238,13.611,11.955a105.937,105.937,0,0,0,15.282,10.468c2.144,1.163,4.053-2.108,1.911-3.27a112.587,112.587,0,0,1-17.2-12.039c-4.524-3.683-9.506-7.306-12.764-12.231-3.18-4.8-4.942-10.373-7.561-15.474-.9-1.764-1.9-3.478-2.942-5.166A77.743,77.743,0,0,0,910.7,431.98c5.837-5.755,12.2-12.884,10.5-21.707-.113-.58-.264-1.146-.431-1.705a2.342,2.342,0,0,1-.354-1.13,2.433,2.433,0,0,1-.023-.253c-.008-.031-.018-.062-.025-.094a6,6,0,0,0-.216-.774c-.045-.124-.083-.251-.128-.376-.038-.059-.086-.107-.12-.17a5.828,5.828,0,0,1-.451-1.133,4.043,4.043,0,0,1-.4-1.065c-.07-.1-.155-.18-.217-.281l0-.006-.1-.227a52.182,52.182,0,0,0-10.22-9.893c-8.4-6.323-18.085-10.881-25.939-17.934-4.214-3.783-8.175-8.43-9.652-14.012-.092-.347-.169-.7-.235-1.052q4.45,1.314,8.761,3.047c14.474,5.852,27.358,15.129,39.313,25.029,13.2,10.927,25.8,22.592,38.6,33.982l41.228,36.7c5.786,5.15,11.636,10.792,19.043,13.506a19.172,19.172,0,0,0,15.788-1.052c4.082,3.383,8.738,7.049,14.363,6.752a12.7,12.7,0,0,0,8.408-4.108,33.421,33.421,0,0,1,8.151,6.477,31.724,31.724,0,0,1,3.376,4.423,17.285,17.285,0,0,0,3.045,4.079,5.841,5.841,0,0,0,9.193-2.007,8.033,8.033,0,0,0,.186-6.167,79.609,79.609,0,0,0,17.707,2.09c5.478,0,11.258-1.486,13.485-7.025a1.629,1.629,0,0,0,.071-1.14,2.047,2.047,0,0,0,.228-.47A4.385,4.385,0,0,0,1111.225,469.171ZM1056.613,439.3a17.508,17.508,0,0,0,6.487,3.012c.174,1.089.294,2.184.372,3.282-.2-.1-.406-.2-.607-.294l-2.431-1.164-4.43-2.121C1056.247,441.121,1056.459,440.216,1056.613,439.3ZM855.376,305.523l-.061-.076c.043.055-.051-.067-.059-.078-.058-.079-.116-.16-.172-.242q-.166-.245-.315-.5c-.1-.171-.19-.347-.275-.525-.021-.045-.042-.09-.062-.135l-.03-.068c-.034-.082-.067-.165-.1-.248a.645.645,0,0,0-.7-.445q.678-1.8,1.426-3.583a58.426,58.426,0,0,1,4.185,6.234c-.773.364-1.543.733-2.324,1.077l-.109-.073c-.041-.029-.081-.057-.121-.087-.011-.008-.134-.1-.078-.057s-.08-.064-.077-.061l-.114-.094c-.076-.064-.15-.129-.224-.2A7.7,7.7,0,0,1,855.376,305.523Zm.212,1.97c-1.324.559-2.655,1.1-4,1.6.493-1.631,1.044-3.244,1.625-4.846A8.424,8.424,0,0,0,855.588,307.493Zm.134-9.048a.451.451,0,0,0-.133-.1c.646-1.49,1.334-2.962,2.043-4.424l7.435,8.925c-.454.251-.908.5-1.356.745q-1.645.9-3.328,1.718A60.89,60.89,0,0,0,855.722,298.445Zm2.513-5.761c.776-1.553,1.593-3.083,2.432-4.6a.607.607,0,0,0,.1.145q5.329,5.318,10.209,11.057c-1.549,1.059-3.171,2.029-4.79,2.941Zm3.421-5.35a.582.582,0,0,0-.461-.183c.7-1.249,1.442-2.474,2.18-3.7a70.224,70.224,0,0,1,13.364,10.741c-.1.127-.182.265-.291.389A27.061,27.061,0,0,1,872,298.556Q867.056,292.74,861.656,287.334Zm2.36-4.971c.4-.645.82-1.268,1.225-1.906a71.8,71.8,0,0,1,14.276,5.38,12.894,12.894,0,0,1-2.014,7.331A71.5,71.5,0,0,0,864.016,282.363Zm14.334-1.908a14.408,14.408,0,0,1,1.056,3.923,73.161,73.161,0,0,0-13.451-5.033q.189-.291.375-.585a31.377,31.377,0,0,1,11.069-.126A15.4,15.4,0,0,1,878.35,280.455Zm-1.894-3.227a32.9,32.9,0,0,0-9.2.093c.017-.025.032-.051.049-.077a1.588,1.588,0,0,0-.168-2.115A16.237,16.237,0,0,1,872,273.012,19.452,19.452,0,0,1,876.456,277.228Zm9.01-91.911a7.638,7.638,0,0,0,1.834,5,10.477,10.477,0,0,0,7.235,3.451c3.03.337,6.222-.388,9.2.334,1.647.4,4.505,2.573,2.535,4.344a1.91,1.91,0,0,0,0,2.677l9.649,9.14a5.478,5.478,0,0,0-.9.8c-1.929,2.21-1.319,5.233-.255,7.691,2.14,4.944,4.587,9.779,6.976,14.623-3.187-.213-6.307.7-7.263,4.356-.7,2.676-.21,5.759-.129,8.486l.179,5.979c-3.34-.8-7.161.927-9.318,3.7-2.748,3.533-3.271,8.365-5.512,12.136a8.907,8.907,0,0,0-6.213-3.542c-3.456-.4-6.559,1.229-9.318,3.216a5.1,5.1,0,0,0-2.937-2.2,9.359,9.359,0,0,0-5.209.456,12.461,12.461,0,0,1-2.894.712,4.2,4.2,0,0,0,.321-3.7c-.464-1.25-1.791-2.2-.842-3.48.9-1.21,2.156-2.067,2.83-3.46a4.328,4.328,0,0,0-.289-4.655,5.888,5.888,0,0,0-3.341-1.868c-.728-.191-2.062-.279-2.387-1.095a1.357,1.357,0,0,1,.634-1.682,1.619,1.619,0,0,0,.928-1.674,9.472,9.472,0,0,0,1.613.612c6.033,1.594,13.148-1.851,15.007-7.961a10.783,10.783,0,0,0-1.119-9.1,9.965,9.965,0,0,0-5.542-4.089,1.7,1.7,0,0,0-1.821-.511l-3.419.962a33.606,33.606,0,0,1,10.149-6.492c1.641-.667,1.941-3.1,0-3.651-1.515-.431-5.325-1.936-2.6-3.522,1.771-1.031,3.7-1.719,4.635-3.7a6.131,6.131,0,0,0-1.144-6.455,9.559,9.559,0,0,0-4.49-2.719,7.882,7.882,0,0,0-1.17-6.974c-2.086-2.906-5.613-3.906-9.006-4.468A25.135,25.135,0,0,1,885.466,185.317Zm-61.657,68.255a23.211,23.211,0,0,0-.033-9.138,23.6,23.6,0,0,0-3.66-7.853c-1.462-2.224-3.167-4.472-3.835-7.092a8.325,8.325,0,0,1,1.98-7.356c1.954-2.393,4.642-4,7.2-5.657.4-.26.815-.525,1.231-.794a14.186,14.186,0,0,0,7.525,8.4c4.576,2.227,9.743,2.38,14.734,2.456,2.441.037,2.434-3.749,0-3.786-6.819-.1-17.372-.652-18.9-9.2a1.449,1.449,0,0,0-.1-.321,8.652,8.652,0,0,0,1.887-2.5c1.389-2.9-.249-5.169-.9-7.974a9.307,9.307,0,0,1,.9-6.407c4.113,2.868,9.993,1.628,14.206-.685,3.012-1.653,5.736-3.89,8.941-5.179a16.78,16.78,0,0,1,10.54-.6,1.822,1.822,0,0,0,2.286-1.43,1.726,1.726,0,0,0,.381.094,1.492,1.492,0,0,0,1.334,1.862c2.607.362,5.675.674,7.76,2.456,1.509,1.289,2.315,3.912.673,5.387a1.906,1.906,0,0,0,.835,3.164c2.013.475,5.7,1.161,5.8,3.853.069,1.775-2.82,2.408-4,3.257a4.686,4.686,0,0,0-1.764,5.713,5.677,5.677,0,0,0,2.025,2.5A38.3,38.3,0,0,0,868.33,227.6c-1.023,1.376.673,3.193,2.138,2.781l8.513-2.4a6.241,6.241,0,0,1,5.117,4.324,7.565,7.565,0,0,1-1.857,7.224,9.239,9.239,0,0,1-7.121,2.746c-2.582-.172-5.076-1.62-5.245-4.415a1.91,1.91,0,0,0-2.149-1.6,1.945,1.945,0,0,0-1.6,2.149,7.508,7.508,0,0,0,2.352,4.915,2.064,2.064,0,0,0-.34.139,5.181,5.181,0,0,0-1.992,6.862,5.317,5.317,0,0,0,3.232,2.453c.609.2,2.427.3,2.77.894.468.812-1.492,2.309-1.955,2.83a5.8,5.8,0,0,0-1.79,4.246,5.439,5.439,0,0,0,.74,2.2c.22.4.785,1,.8,1.48.044,1.056-1.7,1.863-2.456,2.274a1.781,1.781,0,0,0-.387,2.863,1.52,1.52,0,0,0,.954,1.2A25.773,25.773,0,0,1,870.6,272.1a17.432,17.432,0,0,0-4.751,2.4,1.849,1.849,0,0,0-1.812.835q-1.887,2.8-3.661,5.688a1.861,1.861,0,0,0-.653.283c-4.308,2.928-9.473,3.977-14.441,5.254l-16.188,4.162L821,292.8c-.978.252-2.6.946-3.615.511-.928-.4-1.444-1.653-1.877-2.478a33.768,33.768,0,0,1-3.679-12.724,32.529,32.529,0,0,0,.594-4.483,1.9,1.9,0,0,0,1.456-.812C818.095,266.975,822.489,260.814,823.809,253.572Zm-4.369,1.877a30.392,30.392,0,0,1-1.743,4.344,38.863,38.863,0,0,1-3.075-5.16A20.716,20.716,0,0,1,819.44,255.449Zm-6.215-.833a39.914,39.914,0,0,0,3.841,6.43q-.531,1-1.11,1.976a38.132,38.132,0,0,1-9.634-7.133A21.106,21.106,0,0,1,813.225,254.616Zm-.639,12.149A57.67,57.67,0,0,1,802.073,258a20.962,20.962,0,0,1,3.006-1.592,39.009,39.009,0,0,0,10.224,7.7c-1.048,1.673-2.18,3.3-3.326,4.9a2.04,2.04,0,0,0-2.942-.039,125.456,125.456,0,0,1-12.27-5.983,20.311,20.311,0,0,1,4.255-4.255,59.056,59.056,0,0,0,10.929,9.129C812.634,268.3,813.266,267.2,812.586,266.765ZM794.2,269.546a47.166,47.166,0,0,0,14.372,4.667c-.019.22-.022.44-.046.659a1.661,1.661,0,0,0-.6,1.411c.021.543.063,1.085.105,1.626-.031.134-.072.263-.1.4a59.923,59.923,0,0,1-15.134-2.57,22.647,22.647,0,0,1,1.463-8.262,20.181,20.181,0,0,1,1.777-3.46,128.281,128.281,0,0,0,12.627,6.15v.009c.048.931.037,1.858,0,2.783a46.1,46.1,0,0,1-13.821-4.5C794.11,268.085,793.472,269.174,794.2,269.546Zm.351,24.479c-.047-1.314-.161-2.626-.3-3.938l7.694.086a29.716,29.716,0,0,1-4.06,4.019Zm1.77,1.351c-.571.4-1.151.8-1.751,1.163.012-.418.01-.834.008-1.25Zm-2.2-6.553c-.144-1.212-.319-2.427-.488-3.643a.544.544,0,0,0,.32.2,53.721,53.721,0,0,0,10.637,1.121,28.9,28.9,0,0,1-1.628,2.425Zm.168-4.664a.628.628,0,0,0-.736.424c-.048-.342-.09-.681-.137-1.023a60.814,60.814,0,0,1-.606-6.5,61.354,61.354,0,0,0,14.793,2.492,29.047,29.047,0,0,1-2.3,5.688A51.985,51.985,0,0,1,794.285,284.159ZM572.031,41.269a668.851,668.851,0,0,1,61.911,32.708,400.17,400.17,0,0,1-21.051,52.478,1.891,1.891,0,0,0,.338,2.191,1.869,1.869,0,0,0-.779,2.571A135.143,135.143,0,0,1,623.21,157.6c-.291.019-.582.037-.872.057-2.124.144-4.472.486-5.644,2.514-1.1,1.9-.547,4.269.475,6.067a11.991,11.991,0,0,0,10.416,5.894,1.909,1.909,0,0,0,.608.016c.024,0,.048,0,.073,0a10.449,10.449,0,0,1-1.287,3.4l-.038.078a1.466,1.466,0,0,0-.208.316,10.962,10.962,0,0,0-.513,1.246,10.214,10.214,0,0,0-.824,3.047,6.639,6.639,0,0,0,.032,1.483l-64.572-19.562q-4.48-30.655-10.584-61.041a2.055,2.055,0,0,0,.254-.477Q561.278,70.955,572.031,41.269Zm-5.1-.166,1.2-.151-21.02,58.033-1.443-1.326ZM542.84,104.422l-.006-.026c-.007-.073-.017-.146-.022-.213a7.946,7.946,0,0,1-.005-1.225c0-.05,0-.122.005-.193a.862.862,0,0,0,.028-.116q.052-.3.128-.6t.176-.586a2.381,2.381,0,0,1,.084-.251c.01-.019.016-.025.029-.052.061-.133.148-.252.218-.38l1.387,1.275-2.012,2.412Zm48.621,76.492L554.9,170.841a1.933,1.933,0,0,0-.755-.059q-4.928-31.039-9.856-62.078c0-.019-.01-.033-.014-.052l2.933-3.516q5.8,29.244,10.112,58.753a1.457,1.457,0,0,0,1.212,1.336,1.939,1.939,0,0,0,.742.411l68.314,20.7a4.477,4.477,0,0,1-.617,4l-.953.9c-.059.041-.106.09-.168.129a1.978,1.978,0,0,0-.431.372C614.387,187.266,602.917,184.071,591.461,180.914Zm36.046,19.107c-7.163-1.517-15.142-.8-21.5-4.777-3.371-2.108-5.5-5.485-7.933-8.557a247.307,247.307,0,0,1,27.269,9.07,1.47,1.47,0,0,0,1.927-.561,1.983,1.983,0,0,0,.306-.234l.943-.893a8.2,8.2,0,0,0,1.06-1l.665-.629c-.041-.027-.074-.065-.113-.1a8.133,8.133,0,0,0,1.4-5.768c-.236-1.676-1.164-3.062-1.709-4.633a5.264,5.264,0,0,1,.177-4.082,2.193,2.193,0,0,0,.2-.912c.052-.109.093-.222.15-.329.026-.051.059-.088.088-.135.088-.227.166-.455.263-.681a20.313,20.313,0,0,0,1.324-4.073c.01-.017.03-.025.039-.043a1.911,1.911,0,0,0,.191-1.459,1.98,1.98,0,0,0-.87-1.131,6.426,6.426,0,0,0-1.024-.466,3.61,3.61,0,0,0-.654-.176,6.563,6.563,0,0,0-1.136-.118,4.765,4.765,0,0,0-.584.042c-.056,0-.1-.021-.161-.019a8.249,8.249,0,0,1-5.666-1.946c-.867-.742-3.488-3.684-1.784-4.661.855-.49,2.332-.33,3.268-.392l4.2-.274c2.291-.15,5.054-.733,7.309-.106,2.166.6,2.283,2.782,2.32,4.695a37.151,37.151,0,0,0,.643,7.052,28.4,28.4,0,0,0,5.381,11.463,36.3,36.3,0,0,0-7.619,5.023C632.481,192.013,628.968,195.707,627.507,200.021Zm3.53,3.6,3.939,3.761c-.161.309-.325.616-.471.934s-.249.642-.376.963c-2.6-.754-3.6-3.338-3.457-5.871a2.142,2.142,0,0,0,.246-1.585c.063-.249.134-.5.219-.732,1.375-3.825,4.715-7.061,7.832-9.532,3.022-2.4,7.631-5.679,11.712-5.021,2.725.439,4.868,2.5,6.636,4.669-.672.1-1.335.233-1.993.39a35.021,35.021,0,0,0-3.78-3.865.645.645,0,0,0-.892,0,.636.636,0,0,0,0,.893,34.886,34.886,0,0,1,3.316,3.333,26.143,26.143,0,0,0-3.245,1.263,51.321,51.321,0,0,0-4.265-4.271.631.631,0,1,0-.893.892,51.15,51.15,0,0,1,3.966,3.936c-.795.406-1.573.848-2.333,1.316-1.2-1.282-2.358-2.6-3.44-3.978a.635.635,0,0,0-.893,0,.651.651,0,0,0,0,.892c1.031,1.314,2.133,2.569,3.267,3.794-.354.236-.717.458-1.062.705-.753.54-1.492,1.114-2.222,1.7l-3.927-3.976c-.572-.579-1.463.314-.892.892l3.84,3.888a35.118,35.118,0,0,0-3.211,3.116l-4.229-4.1c-.583-.566-1.476.326-.892.893l4.3,4.171a25.472,25.472,0,0,0-2.225,3.154l-3.682-3.515a.631.631,0,1,0-.892.892ZM734.214,310.807A123.574,123.574,0,0,1,769.1,270.88c1.944-1.43.053-4.715-1.911-3.269a129.011,129.011,0,0,0-12.145,10.1,126.2,126.2,0,0,0-16.762,19.468c-2.207-.3-4.414-.6-6.619-.923-21.33-3.091-43.61-7.642-60.334-22.209-8.028-6.993-14.474-15.554-20.059-24.569-2.842-4.588-5.474-9.3-8.011-14.064-2.695-5.059-5.727-10.291-6.619-16.037-.854-5.495,1.118-10.559,4.764-14.634a32.041,32.041,0,0,1,12.96-8.989c11.216-3.818,21.866,4.808,30.117,11.348a183.963,183.963,0,0,1,24.9,23.868c3.5,4.054,6.605,8.619,10.662,12.156,4.267,3.72,9.344,5.422,14.918,5.976,11.943,1.187,24.377-.662,35.9-3.761,5.357-1.44,11.82-3.517,17.235-1.21,3.93,1.674,5.29,8.543,10.338,11.067.194.1.385.173.576.251a24.309,24.309,0,0,0-9.572,15.138c-1.673,9.378,2.35,18.625,1.238,27.965-.908.395-1.831.765-2.784,1.081-5.451,1.807-11.16,2.619-16.8,3.6a115.356,115.356,0,0,0-15.783,3.8,112.017,112.017,0,0,0-25.084,11.721Q732.081,314.714,734.214,310.807Zm17.559,144.728c-23.265-2.661-47.205-7.107-66.841-20.658a74.646,74.646,0,0,1-12.139-10.418c-3.625-3.878-7.3-8.318-9.038-13.405a12.857,12.857,0,0,1-.5-7.733,14.3,14.3,0,0,1,4.1-6.148c3.738-3.626,7.939-6.6,11.374-10.558,7.138-8.231,12-18.044,17.516-27.358a110.754,110.754,0,0,1,19.219-24.329,108.283,108.283,0,0,1,54.517-27.665c.26-.048.523-.093.784-.14a157.351,157.351,0,0,0-14.921,25.849,158.13,158.13,0,0,0-3.929,122.578ZM869.594,424c-7.253,4.409-14.522,8.8-21.969,12.877-13.132,7.189-26.932,13.448-41.652,16.538-16.307,3.423-32.889,1.84-49.221-.545a1.952,1.952,0,0,0-1.626.486,157.425,157.425,0,0,1-8.387-32.808,154.206,154.206,0,0,1,3.819-61.9,156.5,156.5,0,0,1,25.559-52.466c5.544-.978,11.091-2.082,16.2-4.236a1.538,1.538,0,0,0,1.677-.75,32.12,32.12,0,0,0,6.867-4.384,32.575,32.575,0,0,0,8.523-11.26,37.182,37.182,0,0,0,2.981,7.441c1.156,2.158,2.8,4.118,5.437,4.212,2.851.1,5.967-1.205,8.7-1.907l18.887-4.856a87.116,87.116,0,0,0,11.489-3.373c-6.382,11.7-10.99,24.382-12.223,37.717-1.271,13.747,1.581,28.013,8.854,39.831a53.744,53.744,0,0,0,5.318,7.208,1.492,1.492,0,0,0-.515,1.421c1.249,10.185,6.365,19.048,12,27.424,1.412,2.1,2.9,4.145,4.261,6.277,1.315,2.068,2.5,4.341,2.286,6.868C876.48,418.221,872.97,421.4,869.594,424Zm48.087-11.745c.361,3.718-1.232,7.025-3.373,9.957a61.551,61.551,0,0,1-7.809,8.543,73.525,73.525,0,0,1-12.788,9.517,78.662,78.662,0,0,0-16.067-17.239,1.967,1.967,0,0,0-.988-.418,16.262,16.262,0,0,0,3.435-5.831c1.742-5.455-1.058-10.064-4.048-14.421-5.621-8.191-11.653-16.854-13.567-26.772a49.469,49.469,0,0,0,4.3,3.589c5.645,4.175,12.239,6.756,18.811,9.078,6.431,2.271,13.015,4.306,18.969,7.7C910.56,399.381,916.967,404.916,917.681,412.259Zm109.186,57.684c-7.419.1-13.881-5.132-19.172-9.752-6.685-5.839-13.266-11.8-19.9-17.7l-40.058-35.659c-22.469-20-45.529-42.282-75.232-50.647a10.4,10.4,0,0,1,6.017-8.863c2.229-.977.3-4.238-1.911-3.27-6.431,2.818-8.873,10.384-7.642,16.89,2.155,11.388,12.82,19.252,22,25.2l-1.872-.651c-6.536-2.273-13.133-4.6-18.906-8.506a46.825,46.825,0,0,1-13.66-14.672c-7.351-12.187-9.691-26.814-7.716-40.814a80.612,80.612,0,0,1,1.551-7.954,98.318,98.318,0,0,0,14.757-6.411c5.023-2.7,10.734-5.907,14.4-10.468a.708.708,0,0,0,.418-.523,16.2,16.2,0,0,0,3.279-7.975c.016-.139.015-.274.028-.412,3.582-.069,7.169-.1,10.745.165,7.342.54,14.925,2.558,20.334,7.831a18.114,18.114,0,0,1,5.021,8.556c1.018,3.987.861,8.151,1.26,12.22.746,7.6,4.085,13.866,8.913,19.678,4.977,5.991,10.632,11.483,16.049,17.071,11.116,11.464,22.532,22.7,35.016,32.684A202.47,202.47,0,0,0,1021.88,411.4c3.992,1.859,8.02,3.642,12.055,5.4,3.483,1.523,7.067,2.915,10.409,4.738,3.145,1.716,6,3.947,7.518,7.282a17.557,17.557,0,0,1,.938,10.528,37.361,37.361,0,0,1-4.445,10.991,99.275,99.275,0,0,1-5.95,9.435C1038.7,464.894,1033.585,469.85,1026.867,469.943Zm11.863-.708c.129-.1.262-.195.39-.3.358-.293.692-.617,1.038-.926l7.8,6.292C1044.5,473.835,1041.387,471.426,1038.73,469.235Zm9.949-9.042a77.9,77.9,0,0,0,10.091,6.652,22.737,22.737,0,0,1-3.14,4.444,67.37,67.37,0,0,0-10.731-7.173c-.717-.384-1.354.706-.637,1.09a66.117,66.117,0,0,1,10.459,6.963,8.475,8.475,0,0,1-4.365,2.129c-.122.017-.243.022-.364.034l-8.885-7.169c4.476-4.346,7.818-10.05,10.8-15.411a45.821,45.821,0,0,0,3.742-8.509l4.51,2.159c.87.417,1.739.837,2.611,1.25.247.117.5.227.749.328a38.728,38.728,0,0,1-.2,5.407l-8.243-4.109c-.725-.362-1.364.727-.637,1.09l8.706,4.34a38.736,38.736,0,0,1-1.388,6.167,44.985,44.985,0,0,1-9.838-5.189c-.668-.466-1.3.628-.637,1.09a46.038,46.038,0,0,0,10.079,5.293,36.6,36.6,0,0,1-2.024,4.649,75.612,75.612,0,0,1-9.767-6.418C1048.938,458.807,1048.039,459.694,1048.679,460.193Zm61.3,13.086a1.747,1.747,0,0,0-.016,1.126,2.066,2.066,0,0,0-.283.485c-1.829,4.55-8.164,4.34-12.148,4.2a77.344,77.344,0,0,1-16.017-2.292,1.791,1.791,0,0,0-1.345.16c-.355-.544-.725-1.074-1.1-1.582a1.936,1.936,0,0,0-2.59-.679,1.907,1.907,0,0,0-.679,2.59c1.534,2.089,4.465,5.793,2.516,8.484s-4.067-.712-5.063-2.319a37.144,37.144,0,0,0-12.635-12.4q.227-.328.443-.663a39.472,39.472,0,0,0,5.551-14.209c2.472,1.451,4.938,2.915,7.448,4.3a24.233,24.233,0,0,0,8.593,3.161c3.267.4,6.13-.722,9.241-1.487,1.743-.428,4.642-.623,5.743,1.111-.548.107-1.1.2-1.649.257a23.963,23.963,0,0,1-7.011-.3,1.932,1.932,0,0,0-2.329,1.322,1.913,1.913,0,0,0,1.323,2.329,29.314,29.314,0,0,0,11.873-.19c1.282-.269,2.927-.647,4.015.168a1.577,1.577,0,0,1,.414.507c-.079-.131-.029-.005,0,.079,0,.043.008.124.006.16-.013.259-.037.17-.081.3l0,.009c-.087.049-.176.1-.266.136a1.586,1.586,0,0,0-.861,1.126,35.077,35.077,0,0,1-12.316-1.4c-2.344-.7-3.336,2.957-1.006,3.651a38.368,38.368,0,0,0,11.726,1.611,54.2,54.2,0,0,0,5.8-.567,4.152,4.152,0,0,1,2.234.068,1.992,1.992,0,0,1,.436.368.319.319,0,0,1,.107.15A1.379,1.379,0,0,0,1109.975,473.279Z"/>
      <path id="下半身" d="M725.243,557.179q17.393-26.357,33.293-53.646,1.492-2.572,2.967-5.157a1.7,1.7,0,0,1,.082-.993c1.223-3.274.179-6.575-.9-9.74-1.15-3.378-2.219-6.751-1.721-10.361.917-6.646,7.367-13.035,5.113-19.953-.757-2.322,2.9-3.317,3.651-1.006,2.506,7.69-3.559,13.762-4.938,20.9-.724,3.747.876,7.268,2,10.76a17.694,17.694,0,0,1,.913,8.689,1.73,1.73,0,0,1,.051,1.911q-15.168,26.576-31.831,52.257c-9.854,15.179-22.94,31.455-21.3,50.673.728,8.548,5.073,15.3,11.289,20.953,5.776,5.25,12.437,9.618,17.321,15.789,2.551,3.222,4.29,6.9,6.5,10.339a17.034,17.034,0,0,0,8.964,7.224c3.789,1.326,7.791,1.868,11.671,2.857a27.871,27.871,0,0,1,10.547,4.953c6.23,4.884,10.18,12.331,17.257,16.179,7.534,4.1,16.677,3.629,24.9,2.544,1.688-.222,3.37-.49,5.049-.767a1.946,1.946,0,0,1,.185-.467,1.905,1.905,0,0,1,2.591-.679c1.661,1.281,2.418-1.649,2.385-2.759-.062-2.125-.655-4.208-.728-6.342a27.129,27.129,0,0,1,1.873-10.738A28.294,28.294,0,0,1,847.2,644.815c2.213-.959,4.143,2.3,1.911,3.269A24.941,24.941,0,0,0,834.8,665.87a22.858,22.858,0,0,0-.441,5.911c.007.142.027.283.039.425a.561.561,0,0,1,.756-.55,79.594,79.594,0,0,0,11.879,3.183q.8-2.446,1.786-4.816L838.378,666.8c-.774-.239-.444-1.458.335-1.217l10.592,3.27c.639-1.448,1.316-2.879,2.064-4.275L840.222,659.9c-.738-.31-.414-1.531.335-1.217l11.429,4.8c.681-1.211,1.39-2.407,2.151-3.574a68.166,68.166,0,0,1-10.481-5.735c-.672-.45-.041-1.543.636-1.089a67.247,67.247,0,0,0,10.541,5.765c.527-.773,1.064-1.54,1.625-2.291l-5.738-5.93a1.914,1.914,0,0,1,2.182-3.044,2.014,2.014,0,0,1,.456-1.9,8.714,8.714,0,0,0-1.811-13.037,2.028,2.028,0,0,1-.77-.919c-7.894-4.311-17.885-3.789-26.5-2.372-11.98,1.97-24.136,5.58-36.253,2.425-2.356-.614-1.357-4.267,1.006-3.651,9.8,2.552,19.879.273,29.591-1.581a110.706,110.706,0,0,1,12.206-1.76c-1.97-.483-4.053-.69-5.975-1a37.5,37.5,0,0,1-12.409-4.41c-7.893-4.444-14.769-11.12-20.881-17.733-2.959-3.2-5.743-6.934-6.238-11.394-.552-4.979,2.436-9.1,5.1-12.989q8.979-13.116,18.642-25.745,8.64-11.292,17.8-22.17a231.372,231.372,0,0,0-36.512,19.226c-2.051,1.327-3.951-1.949-1.911-3.27a234.889,234.889,0,0,1,53.637-25.707l.018,0c4.535-2.089,9.6-1.169,14.228.374,5.573,1.861,11.05,4.091,16.5,6.275q16.6,6.647,32.742,14.359c10.774,5.151,21.354,10.682,31.781,16.5,10.334,5.768,20.624,11.7,31.534,16.338,11.337,4.815,23.466,8.134,35.828,8.134a1.833,1.833,0,0,1,1.248-.546c10.9-.576,21.461,2.7,31.1,7.577,10.017,5.061,18.806,11.914,28.053,18.188,9.006,6.112,19.845,11.866,31.115,9.928a23.47,23.47,0,0,0,18.934-18.516,15.552,15.552,0,0,0-.457-7.875,14.242,14.242,0,0,0-4.653-6.1c-4.555-3.8-9.728-6.989-14.575-10.4-9.991-7.04-19.9-14.22-30.062-21.013a177.391,177.391,0,0,0-31.155-17.091c-10.854-4.447-22.107-7.81-33.309-11.251-20.818-6.4-42.126-13.392-59.271-27.329q-3.094-2.516-5.935-5.315c-1.741-1.71.937-4.387,2.678-2.677,16.2,15.916,38.071,23.76,59.327,30.371,11.569,3.6,23.232,6.953,34.53,11.357a175.753,175.753,0,0,1,32.348,16.882c10.439,6.822,20.533,14.181,30.726,21.363,5.115,3.6,10.329,7.1,15.345,10.842,4.407,3.287,7.747,7.207,8.4,12.842.058.506.086,1.011.107,1.517a2.725,2.725,0,0,1,.439.452,14.322,14.322,0,0,1,.8,1.194,1.834,1.834,0,0,1,1.035-.318c15.1-.222,21.65,16.389,34.767,20.689,3.5,1.147,7.166,1.7,10.639,2.941a25.8,25.8,0,0,1,8.555,5.037c5.195,4.615,8.4,11.088,10,17.77a57.973,57.973,0,0,1,1.505,10.916,22.229,22.229,0,0,1-1.155,8.966,11.108,11.108,0,0,1-5.9,6.363c-3.155,1.373-6.788,1.464-10.174,1.265a41.057,41.057,0,0,1-19.384-6.177c-6.063-3.82-10.459-9.377-15.429-14.419a46.416,46.416,0,0,0-9.669-7.532c-3.608-2.118-7.386-3.942-10.93-6.172-5.9-3.711-11.461-8.985-12.924-16.052-8.782,3.066-18.65,1.239-27.027-2.664-10.547-4.914-19.415-12.794-29.2-18.98-9.391-5.937-19.75-11.181-30.919-12.527a46.842,46.842,0,0,0-5.4-.32,1.819,1.819,0,0,1-1.27.552c-23.543,1-45.149-9.884-65.156-21.029-20.658-11.508-41.568-22.331-63.409-31.444q-9.242-3.856-18.619-7.368c-5.159-1.932-11.868-5.145-17.22-2.186a1.888,1.888,0,0,1-.889.244q-4.026,1.358-8,2.866a2.158,2.158,0,0,1-.153.218,598.777,598.777,0,0,0-37.238,47.923q-2.127,3.043-4.215,6.115a22.025,22.025,0,0,0-3.321,6.078c-1.246,4.349,1.415,8.358,4.178,11.48a126.279,126.279,0,0,0,9.321,9.262,65.43,65.43,0,0,0,10.4,8.006,36.166,36.166,0,0,0,13.3,4.778c4.353.673,8.865,1.3,12.157,4.479a42.046,42.046,0,0,1,5.219.642,29.275,29.275,0,0,1,12.533,5.65,1.46,1.46,0,0,1,.549,1.756,11.865,11.865,0,0,1,2.135,5.1,12.75,12.75,0,0,1-3.124,10.481,1.8,1.8,0,0,1-1.776.485l6.006,6.208a1.951,1.951,0,0,1,0,2.677c-.324.408-.62.835-.932,1.252a13.473,13.473,0,0,0,1.283.7l.145.056c.159.061.319.117.481.17.283.093.57.173.859.242s.56.118.842.165l.164.017c.169.016.339.028.509.036.3.014.595.015.892,0,.17-.006.34-.017.51-.031.053-.005.2-.023.293-.035a11.678,11.678,0,0,1,3.42-7.176,37.333,37.333,0,0,1,12.353-8.251c4.509-1.9,10.4-3.935,14.639-.436a1.522,1.522,0,0,1,.57,1.668,1.767,1.767,0,0,1,.747,1.044A342.429,342.429,0,0,0,909.7,683.962c4.938,12.067,10.751,23.684,16.767,35.241,2.994,5.751,5.961,11.521,8.626,17.433,1.317,2.922,2.565,5.877,3.708,8.872,1,2.621,2.1,5.546.533,8.19-1.189,2-3.552,3.006-5.735,3.457a37.191,37.191,0,0,1-24.314-3.649c-10.316-5.73-16.7-18.074-13.561-29.752.632-2.351,4.285-1.353,3.651,1.006a20.266,20.266,0,0,0-.178,9.558,20.213,20.213,0,0,1,7.915-8.554.631.631,0,0,1,.636,1.09,18.9,18.9,0,0,0-8.038,9.412,24.279,24.279,0,0,0,9.981,13.071,30.6,30.6,0,0,0,14.487,4.606,34.669,34.669,0,0,0,7.577-.29c1.836-.288,4.655-.827,4.607-3.178a11.873,11.873,0,0,0-1.107-3.686q-.836-2.2-1.745-4.375c-1.149-2.745-2.389-5.454-3.671-8.139-2.585-5.411-5.37-10.722-8.141-16.04-5.489-10.533-10.663-21.193-15.2-32.174a342.71,342.71,0,0,1-13.105-37.9,1.894,1.894,0,0,1-.051-.846,2.116,2.116,0,0,1-.293-.2c-1.893-1.563-4.918-.662-7-.034a35.316,35.316,0,0,0-7.345,3.172c-4.043,2.315-10.495,6.364-9.7,11.807.427,2.926,2.221,5.41,3.6,7.947a22.692,22.692,0,0,1,2.7,7.964,21.131,21.131,0,0,1-.534,8.263c-.727,2.677-2.694,5.55-2.27,8.414.354,2.384-3.294,3.412-3.651,1.007a10.991,10.991,0,0,1,.063-3.406,2.255,2.255,0,0,1-.707-.657c-.083-.119-.171-.235-.257-.352a14.128,14.128,0,0,0-5.026-4.123,1.433,1.433,0,0,1-.3-.2c-2.777-.789-5.555-1.573-8.329-2.372a15.739,15.739,0,0,1-5.308-2.364c-.012.064-.029.126-.042.189a1.907,1.907,0,0,1-2.329,1.323,58.68,58.68,0,0,1-11.555-5.214c0,.013,0,.025,0,.038a6.343,6.343,0,0,1-2.721,5.1,5.227,5.227,0,0,1-2.926.886,1.643,1.643,0,0,1-1,.515c-8.647,1.449-17.647,2.8-26.339.925a28.318,28.318,0,0,1-11.482-5.3c-3.254-2.541-5.884-5.726-8.63-8.78-2.718-3.023-5.6-5.954-9.31-7.734-3.681-1.767-7.843-2.366-11.793-3.248-3.886-.867-7.854-2.007-11.088-4.423-3.478-2.6-5.606-6.32-7.707-10.029a42.369,42.369,0,0,0-7.4-9.754c-2.9-2.819-6.084-5.324-9.2-7.9-6.4-5.28-12.339-11.066-15.026-19.13C704.152,590.779,715.22,572.367,725.243,557.179Zm385.068,56.852-.07-.056a25.591,25.591,0,0,1-2.137,1.749,11.984,11.984,0,0,0,3.234-.752c-.2-.19-.381-.4-.592-.583Q1110.532,614.206,1110.311,614.031Zm.8-.928a17.063,17.063,0,0,1,1.448,1.307,12.486,12.486,0,0,0,1.831-1.115q-1.084-.645-2.14-1.338C1111.891,612.357,1111.5,612.723,1111.114,613.1Zm1.977-2.1q1.143.744,2.323,1.432a11.181,11.181,0,0,0,1.329-1.474,25.477,25.477,0,0,1-2.573-1.324C1113.827,610.1,1113.461,610.554,1113.091,611Zm2.7-3.848c-.285.491-.616.954-.93,1.427a23.993,23.993,0,0,0,2.572,1.31,11.709,11.709,0,0,0,.716-1.549c-.269-.166-.533-.342-.814-.486q-.34-.176-.69-.327l-.055-.024-.005,0c-.063-.026-.126-.052-.189-.076-.127-.05-.254-.1-.382-.143A.725.725,0,0,1,1115.8,607.153Zm.6-1.068a13.1,13.1,0,0,1,2.139,1.021,11.915,11.915,0,0,0,.351-2.19,12.323,12.323,0,0,1-1.679-.524C1116.96,604.965,1116.688,605.529,1116.4,606.085Zm2.066-5.2a24.6,24.6,0,0,1-.773,2.367l.037.015q.3.113.6.208c.185.058.376.094.564.143A12.484,12.484,0,0,0,1118.464,600.886Zm14.019,40.85c5.229,4.022,9.2,9.331,13.963,13.842a37.468,37.468,0,0,0,16.588,9.174,36.3,36.3,0,0,0,9.568,1.11c2.953-.053,6.232-.44,8.281-2.812,1.706-1.975,2.191-4.788,2.3-7.313a44.969,44.969,0,0,0-.751-9.6c-1.108-6.365-3.434-12.66-7.908-17.444a22.15,22.15,0,0,0-7.042-5.138c-3.122-1.406-6.557-2-9.847-2.874a30.748,30.748,0,0,1-9.836-4.4,72.341,72.341,0,0,1-8.017-6.829c-4.947-4.659-10.6-9.867-17.776-10.007a15.713,15.713,0,0,1-1.687,13.021,15.957,15.957,0,0,1-14.981,6.963C1108.7,631.333,1123.654,634.945,1132.483,641.736ZM850.367,678.244c1.338,1.688,3.335,2.2,5.429,2.793l8.48,2.416a1.808,1.808,0,0,1,.981.647,17.628,17.628,0,0,1,4.833,3.828,22.587,22.587,0,0,0,1.618-7.006A17.264,17.264,0,0,0,870,673.2c-1.166-2.391-2.693-4.583-3.715-7.048a14.3,14.3,0,0,1-.677-2.114,13.179,13.179,0,0,1-4.389-.211,12.3,12.3,0,0,1-4.056-1.741,58.111,58.111,0,0,0-7.144,15.86A1.335,1.335,0,0,1,850.367,678.244ZM834.618,674a1.866,1.866,0,0,1,.781.288,54.53,54.53,0,0,0,10.354,5.08c.264-1.12.574-2.224.906-3.32a79.655,79.655,0,0,1-11.844-3.176.608.608,0,0,1-.4-.446Q834.493,673.215,834.618,674Z"/>
      <g id="靴ひも">
        <path id="靴ひも-2" data-name="靴ひも" d="M869.682,697.273a1.787,1.787,0,0,1,.8-1.061,1.725,1.725,0,0,1,1.388-1.3c.816-2.469,2.915-4.406,4.883-6.056,2.433-2.039,5.715-4.876,9.13-4.26a9.22,9.22,0,0,1,4.172,2.463,6.525,6.525,0,0,1,2.422,4.079,7.194,7.194,0,0,1-3.206,6.431,27.284,27.284,0,0,1,13.766,12.216c1.158,2.143-2.109,4.057-3.269,1.91a23.515,23.515,0,0,0-15.077-11.631,1.778,1.778,0,0,1-.9-.514c-.123.011-.245.029-.368.037a2.041,2.041,0,0,1,.093,1.127c-.1.475-.178.955-.251,1.435a9.566,9.566,0,0,1,3.039.132,1.54,1.54,0,0,1,.514.227,1.761,1.761,0,0,1,1-.012,1.954,1.954,0,0,1,1.323,2.329c-.014.1-.02.137-.023.154l-.007.059c-.026.209-.052.418-.076.628q-.06.539-.107,1.079-.1,1.126-.133,2.255c-.01.334,0,.667,0,1a11.654,11.654,0,0,1,3.887.3,1.554,1.554,0,0,1,.161.061,2.6,2.6,0,0,1,.529-.361,1.939,1.939,0,0,1,2.59.679,1.916,1.916,0,0,1-.679,2.59l-.019.009,0,.016c-.123.44-.225.883-.316,1.331a23.592,23.592,0,0,0-.4,2.724,30.425,30.425,0,0,0,.076,6.176,1.9,1.9,0,0,1-1.893,1.894,1.949,1.949,0,0,1-1.893-1.894,30.406,30.406,0,0,1,.019-7.071c.105-.87.245-1.738.411-2.6l-.068-.016a2.244,2.244,0,0,1-.469-.079h-.009c-.165-.016-.33-.027-.495-.034-.29-.013-.579-.012-.869,0-.155.007-.31.019-.465.034a1.864,1.864,0,0,1-3.157,1.112h0a1.894,1.894,0,0,1-1.911-3.27,11.155,11.155,0,0,1,1.192-.622,45.29,45.29,0,0,1,.235-5.062c-.05-.011-.1-.018-.152-.028a7.609,7.609,0,0,0-1.494-.007c-.184.031-.366.072-.547.116,0,.168-.009.336,0,.5a1.9,1.9,0,0,1-.922,1.616c.061.246.133.49.19.737a9.318,9.318,0,0,1,.333,4.505,3.8,3.8,0,0,1-3.675,2.742,5.25,5.25,0,0,1-3.758-1.784c2.219,3.687,5.533,6.616,7.7,10.363,1.221,2.114-2.05,4.022-3.269,1.911a52.918,52.918,0,0,0-5.029-6.6,27.178,27.178,0,0,1-4.23-6.952A24.129,24.129,0,0,1,869.682,697.273Zm14.706-1.577c1.721-.384,3.617-1.38,4.217-3.161a2.018,2.018,0,0,0-.629-2.243,7.683,7.683,0,0,0-2.553-1.921c-.919-.318-1.875.278-2.635.743a27.136,27.136,0,0,0-2.9,2.04,30.809,30.809,0,0,0-3.048,2.8,10.775,10.775,0,0,0-.755.89,1.781,1.781,0,0,1,1.073.015C879.455,695.566,881.989,696.231,884.388,695.7Zm-4.524,4.011a1.557,1.557,0,0,1,.106-.3c-.621-.095-1.241-.219-1.857-.364a19.9,19.9,0,0,1,1.459,2.324C879.655,700.808,879.747,700.255,879.864,699.707Zm-3.618,9.653c.538.931,1.291,2.344,2.3,2.842.021.01.253.1.319.123.4.136.212-.1.135.028.133-.213.022-.72-.022-1.01a26.85,26.85,0,0,0-.905-3.733,1.528,1.528,0,0,1-.288-.222,2,2,0,0,1-.453-1.919,16.442,16.442,0,0,0-3.388-5.515,20.048,20.048,0,0,0,.707,5.576A16.479,16.479,0,0,0,876.246,709.36Z"/>
        <path id="靴ひも-3" data-name="靴ひも" d="M1111.2,618.143a1.925,1.925,0,0,1,2.59.679,19.54,19.54,0,0,0,7.015,6.469,12.932,12.932,0,0,1,11.052-13.952,25.894,25.894,0,0,0-9.409-6.225,1.945,1.945,0,0,1-1.322-2.329,1.907,1.907,0,0,1,2.328-1.322,30.294,30.294,0,0,1,16.894,15.726c3.056-1.716,6.438-2.791,9.994-2.067,4.445.906,7.948,5.468,6.43,10.02a1.883,1.883,0,0,1-1.322,1.322c-1.524.244-3.052.455-4.582.646a2.509,2.509,0,0,1,.5,1.231c.178,1.326.286,2.658.366,3.99.144.119.284.243.43.36.641-.357,1.284-.712,1.936-1.049a1.927,1.927,0,0,1,2.59.679,2,2,0,0,1,.093.3,1.642,1.642,0,0,1,.747-.156,1.94,1.94,0,0,1,1.893,1.893c.1,1.325.11,2.651.082,3.976q1.386-1.071,2.724-2.192a1.936,1.936,0,0,1,2.677,0,1.915,1.915,0,0,1,0,2.677c-.832.7-1.68,1.378-2.535,2.048a25.656,25.656,0,0,0,20.316,3.956c.79-.183,1.127,1.033.335,1.217a26.858,26.858,0,0,1-12.275-.065,32.131,32.131,0,0,1-8.931,10.063,35.6,35.6,0,0,1,3.908,10.038c.175.792-1.041,1.13-1.217.336a34.641,34.641,0,0,0-11-18.573.527.527,0,0,1-.1-.721c-.185.117-.367.238-.555.352a1.914,1.914,0,0,1-2.59-.679,1.991,1.991,0,0,1-.2-1.135,9.168,9.168,0,0,0-1.434-1.765,2.091,2.091,0,0,1-.582-.538c-.915-.792-1.925-1.492-2.926-2.2.008.026.017.051.024.076a1.922,1.922,0,0,1-1.825,2.4c-4.3.442-9.33.513-12.325-3.191-2.007-2.481-2.419-6.283-1.878-9.627a1.6,1.6,0,0,1-1.328.552,23.514,23.514,0,0,1-17.261-10.621A1.917,1.917,0,0,1,1111.2,618.143Zm43.195,28.8a35.546,35.546,0,0,1,6.767,8.012,30.706,30.706,0,0,0,8.318-9.319,26.374,26.374,0,0,1-8.161-3.968c-.726.553-1.451,1.107-2.192,1.64-.144,1.054-.321,2.1-.539,3.147a1.875,1.875,0,0,1-3.679-.295c-.327.21-.658.414-.985.623A.618.618,0,0,1,1154.4,646.945Zm-3.682-2.545a1.771,1.771,0,0,1,.221-.2c1.582-.958,3.114-1.967,4.618-3a42.064,42.064,0,0,0,.145-4.4q-.7-.454-1.394-.93c-.826.456-1.659.9-2.466,1.389-.038,1.688-.123,3.376-.31,5.058a2.11,2.11,0,0,1-1.083,1.7C1150.545,644.134,1150.624,644.274,1150.716,644.4Zm2.621-21.434c.127-3.077-3.686-4.619-6.5-4.246a14.7,14.7,0,0,0-5.835,2.471,30,30,0,0,0-3.785,2.823c2.334.546,5.107.1,7.349-.062C1147.505,623.745,1150.427,623.4,1153.337,622.966Zm-5.535,18.629c.053-.6.1-1.2.144-1.806-.178.125-.361.243-.539.369a1.635,1.635,0,0,1-1.268.224C1146.7,640.783,1147.254,641.184,1147.8,641.595Zm-3.331-2.5c.1.081.19.169.29.249a1.942,1.942,0,0,1,.735-2.458c.848-.6,1.714-1.18,2.587-1.745-.021-1.452-.116-2.9-.246-4.351a18.721,18.721,0,0,1-2.6,1.015c-.066.52-.143,1.038-.238,1.555a1.9,1.9,0,0,1-.87,1.131,1.97,1.97,0,0,1-1.276.224C1143.463,636.15,1143.988,637.616,1144.471,639.1Zm-3.016-10.292.18-.021h0c0-.287.013-.574.007-.862-.748.038-1.5.062-2.246.049.227.372.437.754.653,1.133a2.211,2.211,0,0,1,.84-.246C1141.081,628.843,1141.268,628.826,1141.455,628.806Zm-8.487,7.015c.8,3.87,4.462,4.368,7.854,4.212a49.244,49.244,0,0,0-6.179-12.459,1.456,1.456,0,0,1-.341-.087A11.769,11.769,0,0,0,1132.968,635.821Zm-5.184-8.254a2.054,2.054,0,0,1,1.782,1.279c.114-.388.228-.775.366-1.133,1.382-3.581,4.175-6.245,7.223-8.456a25.25,25.25,0,0,0-2.357-4.333,1.633,1.633,0,0,1-.456.051,9.385,9.385,0,0,0-7.4,2.99,7.026,7.026,0,0,0-1.118,1.529,7.283,7.283,0,0,0-.848,1.906q-.162.522-.274,1.058c-.034.162-.063.325-.091.488-.014.08-.022.119-.027.143s0,.053-.007.141c-.029.424-.039.844-.031,1.263a1.784,1.784,0,0,1,.078.517l-.008.6a1.951,1.951,0,0,1-.423,1.159A17.918,17.918,0,0,0,1127.784,627.567Z"/>
      </g>
      <g id="PC-3" data-name="PC">
        <g id="靴-2" data-name="靴">
          <path id="パス_2340" data-name="パス 2340" d="M887.273,655.16a181.372,181.372,0,0,0,9.818,24.947c.351.728-.737,1.369-1.09.637a183.7,183.7,0,0,1-9.945-25.248C885.814,654.718,887.032,654.386,887.273,655.16Z"/>
          <path id="パス_2341" data-name="パス 2341" d="M902.1,695.387a277.016,277.016,0,0,1,13.424,29.04q1.671,4.242,3.2,8.54c.273.766-.946,1.1-1.217.335A274.214,274.214,0,0,0,905.111,704q-1.986-4.023-4.1-7.978C900.627,695.307,901.716,694.669,902.1,695.387Z"/>
          <path id="パス_2342" data-name="パス 2342" d="M562.606,106.527l44.871,18.322c2.226.909,1.252,4.573-1.006,3.651L561.6,110.178C559.374,109.269,560.348,105.605,562.606,106.527Z"/>
        </g>
        <path id="パス_2343" data-name="パス 2343" d="M553.185,98.53a399.9,399.9,0,0,0,15.679-40.007q1.9-5.73,3.619-11.515a.589.589,0,0,1,.584-.438.664.664,0,0,1,.945-.685L618.088,68.14l12.352,6.237c.725.366.087,1.455-.637,1.09L585.727,53.211l-12.01-6.064a.61.61,0,0,1-.017.2A401.1,401.1,0,0,1,559.119,88.1q-2.129,5.068-4.4,10.074a.5.5,0,0,1,.376.015l43.86,18.436,11.958,5.026,13.8-35.341,3.995-10.23c.292-.748,1.513-.422,1.217.336Q622.963,94.242,616,112.072l-3.995,10.23a.671.671,0,0,1-.151.234c-.012.383-.3.739-.745.552l-43.859-18.435-12.49-5.25a.647.647,0,0,1-.385-.462c-.034.075-.067.151-.1.226C553.939,99.906,552.851,99.265,553.185,98.53Z"/>
        <path id="パス_2344" data-name="パス 2344" d="M581.849,153.03a.643.643,0,0,1,.149-.524c-.342-.432-.019-1.232.621-1.007l24.514,8.63a.668.668,0,0,1,.293,1.037l2.562,12.7c0,.012,0,.022,0,.034.254.438-.07,1.139-.676.937l-25.131-8.386a.612.612,0,0,1-.428-.628Q582.8,159.427,581.849,153.03Zm27.205,19.425q-1.514-5.905-3.026-11.811c-.006-.021,0-.039,0-.059l-23.419-6.9q1.193,5.9,2.386,11.8a.621.621,0,0,1,.2.493l23.88,6.616A.673.673,0,0,1,609.054,172.455Z"/>
        <path id="パス_2345" data-name="パス 2345" d="M623.539,152.631c-.779-.218-.512-1.452.272-1.233a48.048,48.048,0,0,0,28.406-.771c8.261-2.829,15.6-7.676,23.409-11.491a56.709,56.709,0,0,1,13.249-4.806c.064-.11.122-.222.2-.328.009-.012.02-.015.028-.026s0-.043,0-.063a.508.508,0,0,1-.01-.522,5.432,5.432,0,0,1,.147-1.339c.725-2.85,3.453-4.328,6-5.421a.672.672,0,0,1,.243-.195c6.035-2.763,12.678-5.671,19.45-4.06,4.414,1.049,8.626,4.58,9.4,9.11a9.574,9.574,0,0,1-6.17,14.843,16.345,16.345,0,0,1-5.783-.169c-2.115-.367-4.216-.832-6.32-1.256l-6.609-1.333a50.162,50.162,0,0,1-6.178-1.39,7.3,7.3,0,0,1-4.379-3.329,4.951,4.951,0,0,1-.548-3.092c-8.2,1.914-15.521,6.241-22.882,10.182a92.879,92.879,0,0,1-11.8,5.512,49.057,49.057,0,0,1-30.122,1.177Zm99.578-20.671a.393.393,0,0,0-.028-.126,1.088,1.088,0,0,0-.063-.3,1.1,1.1,0,0,0-.028-.141c-.008-.042-.019-.083-.025-.127s-.012-.076-.021-.113l0-.008c-.005-.017,0-.036-.009-.051v0l-.013-.051a1.016,1.016,0,0,0-.046-.157.165.165,0,0,0,0-.022c0-.036-.031-.066-.038-.1l.009-.013a11.166,11.166,0,0,0-7.4-6.922c-6.372-1.9-12.784.724-18.566,3.351a.614.614,0,0,1-.295.256c-2.249.92-5.212,2.084-6.049,4.617-.005.017-.007.035-.012.051A22.591,22.591,0,0,1,704,127.158a.632.632,0,0,1,.066,1.261,21.3,21.3,0,0,0-13.712,5.476,3.586,3.586,0,0,0,.288,1.156,2.743,2.743,0,0,0,3.012,1.441c1.442-.153,2.829-.7,4.266-.918a18.125,18.125,0,0,1,4.285-.127,22.148,22.148,0,0,1,8.176,2.612c2.509,1.269,5.407,2.789,8.269,1.771a7.183,7.183,0,0,0,4.278-4.848,7.376,7.376,0,0,0,.2-3.006Zm-32.757,6.88a7.277,7.277,0,0,0,4.2,2.413c3.605.953,7.343,1.526,11,2.263q2.745.553,5.49,1.107a24.418,24.418,0,0,0,5.054.639,8.681,8.681,0,0,0,7.544-4.225,8.261,8.261,0,0,0,.687-6.594,8.8,8.8,0,0,1-3.8,5.853c-2.549,1.636-5.519,1.229-8.186.1-1.614-.681-3.13-1.568-4.73-2.278a17.405,17.405,0,0,0-4.865-1.356,17.209,17.209,0,0,0-5.041.113c-1.628.277-3.236,1-4.911.9a3.733,3.733,0,0,1-3.184-2.071A3.936,3.936,0,0,0,690.36,138.84Z"/>
      </g>
      <path id="目" d="M850.724,198.768a1.919,1.919,0,0,1,2.329,1.322,8.014,8.014,0,0,0,.367,1.308c.017.045.034.09.052.134l.007.016c.028.053.059.107.066.12q.159.321.347.626c.112.181.236.351.355.526l.02.02c.08.088.156.181.237.268.145.158.3.31.456.456.091.083.19.159.28.243l.006.006.023.015c.184.126.368.25.561.362.142.081.427.31.593.3-.2-.083-.239-.1-.11-.049.046.018.092.035.139.051.116.041.234.079.352.112.095.027.191.052.287.074.067.015.434.029.186.046-.28.02.126.01.191.014.124.008.248.01.372.009s.247-.009.37-.015h.034a2.735,2.735,0,0,0,.623-.161c.028-.009.067-.019.1-.029-.01,0,0-.005.059-.032s.132-.067.2-.1a1.893,1.893,0,1,1,1.911,3.269,7.419,7.419,0,0,1-7.657-.5A9.716,9.716,0,0,1,849.4,201.1,1.931,1.931,0,0,1,850.724,198.768Z"/>
    </g>
  </g>
</svg>
