<svg xmlns="http://www.w3.org/2000/svg" width="321" height="294.935" viewBox="0 0 321 294.935">
  <g id="靴もち女性" transform="translate(-837 -106.872)">
    <g id="色">
      <path id="スカート" d="M950.915,255.033c23.815-.256,73.234-19.482,77.391-15.325,13.792,12.26,10.727,39.079,13.026,45.975,4.455,13.364,23.754,24.52,29.117,32.949,3.065,12.26-10.727,53.637-36.013,40.611-17.478,6.19-22.2,24.071-31.416,23.753-22.221-.766-31.161,6.17-40.611,6.9-19.923,1.532-40.206-34.137-52.871-37.546-1.223-.33-7.663-3.065-15.325-2.3-.479.048-7.281,7.556-8.042,7.551-.588-.005-2.379-4.007-1.787-4.8.128-.17,32.6-39.531,34.3-41.164C943.252,287.982,952.087,265.563,950.915,255.033Z" fill="#fff"/>
      <path id="パーカー" d="M1024.475,220.552c-6.292-8.988,3.946-17.292,11.493-13.026,17.624,9.961,36.687,29.342,38.313,29.883,13.792,4.6,12.26,13.027,22.221,9.2,13.026,12.26,20.689-3.831,7.662-9.2-1.158-3.286-.249-5.042.767-8.428-.81-2.123-6.13-3.832-16.092-10.728-9.961-12.26-33.714-23.753-38.312-30.65-3.065-11.493-3.831-19.156-10.5-19.915,1.858-3.112-.231-8.436-3.3-11.5-.767-3.065-3.065-6.13-13.742-6.412-6.181,9.477-13.843,11.776-31.4,17.944-.068-9.233,7.594-13.064,4.529-19.961-4.341,1.93-6.01,2.89-16.091-3.831-2.3-1.532-4.6,2.3-14.558,2.3-13.027,5.364-29.118,7.662-47.508,9.961-4.625.578-15.325,9.961-9.961,16.858,4.431,5.7,16.788,18.024,18.39,17.623,9.2-2.3,11.494-6.13,26.819,7.663,0,14.558,0,23.753-3.832,37.546-.8,2.9-3.065,23.754,14.559,22.987,16.859-.733,32.314,2.766,38.312.767,9.2-3.065,17.624-15.325,26.819-21.455C1030.134,237.468,1029.838,228.214,1024.475,220.552Z"/>
      <g id="PC">
        <path id="PC-2" data-name="PC" d="M916.434,195.266c5.86,6.256,13.295,12.9,19.156,19.156,18.39-22.987,40.753-51.706,40.744-52.683-.01-1.024-17.248-18.943-19.289-19.344C955.083,142.009,916.176,194.991,916.434,195.266Z" fill="#ed6d00"/>
        <path id="パス_2487" data-name="パス 2487" d="M699.23,366.483c3.66-5.125,4.14,7.149,3.076,7.285l-.222.025c-4.75.6-5.593-1.706-7.735-4.086C692.984,368.19,698.1,366.629,699.23,366.483Z" transform="translate(246.775 -192.989)"/>
      </g>
      <path id="パーカー右袖" d="M934.934,187.26c.789-.823,4.767-10.213,4.72-10.8-.029-.363-3.389-6.161-4.013-6.5-1.118-.612-15.776,11.952-15.376,13.817C922.564,194.5,934.412,187.8,934.934,187.26Z"/>
      <path id="靴" d="M1157.035,296.41c-.479.411-8.428,4.6-25.286-4.6-1.52-.829-2.079-6.847-2.359-8.555-2.238-13.666-6.576-14.251-6.836-13.666-1.224,2.753-3.627,7.313-4.851,10.066a19.467,19.467,0,0,1,.322-10.083l-5.536,4.856a29.635,29.635,0,0,1,4.52-14.7c1.327.8,13.6-1.428,15.507,1.432,9.2,13.793,3.831,16.857,17.467,30.016C1151.278,292.429,1158.6,295.068,1157.035,296.41Z"/>
      <g id="手">
        <path id="パス_2312" data-name="パス 2312" d="M1105.665,251.009c-.034.719,8.505,7.786,13.05,8.873,3.25.777,12.5-.057,13.757-.173-.106-1.537,6.94-1.611-3.021-15.4-.654-.9-10.728,5.363-19.157-.767C1110,243.908,1105.692,250.437,1105.665,251.009Z" fill="#fff"/>
        <path id="パス_2313" data-name="パス 2313" d="M937.122,187.6c.713-1.02,9.2,12.26,17.123,9.573,2.117-.717,9.7-5.741,9.682-13.14,0-1.228-4.194-3.679-5.35-4.1,4.6-3.065,6.417-5.407,5.753-7.958-14.181,1.828-22.61,10.257-24.909,4.893C938.711,177.328,933.466,192.836,937.122,187.6Z" fill="#fff"/>
      </g>
      <g id="足">
        <path id="右足" d="M1064.945,347.892c.289,1.747,11.634,8.286,20.829,22.078,6.9,7.663,3.832,24.52,10.728,27.585,6.13,0,5.364-26.819,5.364-29.117-15.325-10.728-16.455-15.133-19.35-20.257-1.517-2.686-10.007-14.872-11.3-14.991C1069.4,333.023,1064.733,346.613,1064.945,347.892Z" fill="#fff"/>
        <path id="左足" d="M848.238,383.763c-1.725.632-5.1-3.6-6.892-4.023-1.192-.282-6.135,4.789,1.528,15.516,9.961.767,25.1,6.052,26.052,4.6,13.027-19.923,29.884-28.351,48.274-42.91-8.429-6.9-20.047-7.366-23.754-6.13C891.148,351.58,871.225,375.334,848.238,383.763Z" fill="#fff"/>
      </g>
      <path id="顔面_髪" data-name="顔面＆髪" d="M993.825,119.407c-1.018,2.6,5.363,6.9-3.065,13.026-1.707,1.242,5.228,14.919,6.13,17.624,1.532,4.6-5.364,9.195-5.364,17.624.926.329,23.121-7.723,24.52-9.961,3.831-6.13,4.6-8.429,14.559-8.429,5.507,0,12.639-10.517,15.325-15.325,0,0,10.727,4.6,12.26-3.065,6.667.374,13.55,4.033,19.156,7.662,6.9-12.26-.767-26.052-16.858-21.454-3.745,1.069-7.6-3.065-11.493-3.065-4.6,0-4.451,4.492-6.13,3.065-15.325-13.027-26.053-7.663-26.819-7.663C1001.467,109.446,1000.721,119.407,993.825,119.407Z" fill="#fff"/>
    </g>
    <g id="線画">
      <path id="パス_2314" data-name="パス 2314" d="M1006.661,116.87a1.17,1.17,0,0,1,1.149,1.15c0,.033,0,.067,0,.1a2.621,2.621,0,0,1,.082.261c.014.027.028.054.044.081s.053.082.079.123c.065.071.127.143.2.209.031.029.063.056.095.084.091.056.178.119.272.171l.13.067c.084.029.168.06.255.083a1.274,1.274,0,0,0,.415.088l-.119-.017c.046,0,.093.009.14.012.062.005.125.008.188.01.141,0,.283,0,.424,0s.273-.022.409-.035l.183-.031c.3-.052.593-.121.886-.194a1.15,1.15,0,1,1,.611,2.217,6.682,6.682,0,0,1-4.449-.1,3.59,3.59,0,0,1-2.144-3.13A1.16,1.16,0,0,1,1006.661,116.87Z"/>
      <path id="パス_2315" data-name="パス 2315" d="M959.449,141.461l17.308,18.327c.926.981-.744,2.561-1.671,1.579l-17.308-18.328C956.852,142.059,958.522,140.479,959.449,141.461Z"/>
      <path id="パス_2316" data-name="パス 2316" d="M918.072,195.1l17.308,18.328c.925.98-.744,2.56-1.672,1.578L916.4,196.676C915.475,195.7,917.144,194.116,918.072,195.1Z"/>
      <path id="パス_2317" data-name="パス 2317" d="M933.965,168.332l22.715-27.3c1.215-1.46,2.963.015,1.746,1.477l-22.715,27.3C934.5,171.27,932.748,169.795,933.965,168.332Z"/>
      <path id="パス_2318" data-name="パス 2318" d="M915.551,194.833l6.5-7.7c.348-.412,2.073,1.09,1.725,1.5l-6.5,7.7C916.928,196.747,915.2,195.245,915.551,194.833Z"/>
      <path id="パス_2319" data-name="パス 2319" d="M961.182,180.6a1.478,1.478,0,0,0-1.01-.007l.723-.926a20.806,20.806,0,0,1-2.786.855,1.182,1.182,0,0,1-1.3-.528l-.155-.255a1.165,1.165,0,0,1,.413-1.572,1.142,1.142,0,0,1,1.092-.027,9.659,9.659,0,0,0,4.528-2.238,4.716,4.716,0,0,0,1.226-2.051c.034-.116.063-.234.088-.352,0-.018.028-.157.038-.207s.018-.223.02-.26c.005-.1.006-.2,0-.3s-.009-.2-.019-.3c-.007-.022-.039-.217-.04-.221a4.174,4.174,0,0,0-.225-.684,1.156,1.156,0,0,1,.8-1.414,1.18,1.18,0,0,1,1.414.8,4.848,4.848,0,0,1,.365,1.748l8.56-10.956c2.1-2.693,3.919-1.282,1.811,1.415l-14.31,18.317A3.369,3.369,0,0,0,961.182,180.6Z"/>
      <path id="パス_2320" data-name="パス 2320" d="M935.579,212.074l11.059-14.155a7.083,7.083,0,0,0,.852.326c.388.114.787.189,1.18.286a2.022,2.022,0,0,0,.364.056l-11.643,14.9C935.287,216.183,933.472,214.772,935.579,212.074Z"/>
      <path id="パス_2321" data-name="パス 2321" d="M1032.479,139.154a21.983,21.983,0,0,0,12.118-11.8,1.187,1.187,0,0,1,1.414-.8,1.156,1.156,0,0,1,.8,1.413,24.531,24.531,0,0,1-13.724,13.41,1.158,1.158,0,0,1-1.414-.8A1.176,1.176,0,0,1,1032.479,139.154Z"/>
      <path id="パス_2322" data-name="パス 2322" d="M1036.222,129.341c.351-.118.7-.245,1.041-.383l.1-.039c.065-.029.131-.057.2-.087.169-.075.336-.153.5-.234a17.609,17.609,0,0,0,1.928-1.1q.438-.287.859-.6c.21-.156.446-.347.729-.59a17.7,17.7,0,0,0,1.584-1.551,1.149,1.149,0,0,1,1.625,1.625,18.723,18.723,0,0,1-7.95,5.17,1.158,1.158,0,0,1-1.414-.8A1.175,1.175,0,0,1,1036.222,129.341Z"/>
      <path id="パス_2323" data-name="パス 2323" d="M1038.479,123.012l4.306-.871a1.149,1.149,0,1,1,.611,2.216l-4.306.871a1.149,1.149,0,1,1-.611-2.216Z"/>
      <path id="パス_2324" data-name="パス 2324" d="M837.03,383.476c.177-2.081,1.15-4.539,3.334-5.223a3.131,3.131,0,0,1,3.1.755,6.475,6.475,0,0,1,1.512,2.974,1.4,1.4,0,0,0,.189.468c.113.112.309.058.482.072a2.931,2.931,0,0,1,1.483.491,1.162,1.162,0,0,1,.471-.286c10.009-3.27,18.789-8.991,26.73-15.765a1.106,1.106,0,0,1,.306-.389c3.278-2.719,6.45-5.56,9.539-8.49a.761.761,0,0,1-.081-.039,3.26,3.26,0,0,1-1.363-1.841,3.171,3.171,0,0,1,.026-1.677,1.337,1.337,0,0,1,.16-1.321c10.235-12.6,20.431-25.226,30.709-37.788a149.373,149.373,0,0,1,15.188-16.563c.133-.119.27-.233.4-.351a1.034,1.034,0,0,1,.3-1.067,69.024,69.024,0,0,0,18.447-32.583,67.051,67.051,0,0,0,1.725-10.722,1.143,1.143,0,0,1,.327-.732,10.943,10.943,0,0,1-1.642-7.593.993.993,0,0,1,.3-.6,11.691,11.691,0,0,1-1.33-6.882c.311-3.323,1.643-6.349,2.8-9.441a26.562,26.562,0,0,0,1.778-10.067c-.059-3.291-.491-6.56-.618-9.847a24.379,24.379,0,0,1,1.475-10.168,15.889,15.889,0,0,1-3.673.205c-2.855-.224-4.988-1.941-6.691-4.13-1.035-1.329-1.943-2.751-3.058-4.017-.5-.572-1.04-1.114-1.6-1.634a.839.839,0,0,1-.359.3,3.186,3.186,0,0,1-2.14.182,7.026,7.026,0,0,1-1.276-.494.879.879,0,0,1-.448.462c-3.712,1.579-8.591,3.192-11.8-.295-1.164-1.262-1.78-3.02-3.092-4.14a11.238,11.238,0,0,0-2.621-1.34,6.523,6.523,0,0,1-2.339-1.871c-.618-.776-1.109-1.643-1.724-2.42a31.358,31.358,0,0,0-2.341-2.522,18.629,18.629,0,0,1-3.8-4.839c-1.987-4.14-.1-8.025,2.661-11.258,2.544-2.983,5.937-5.512,9.866-6.222,2.362-.427,4.774-.215,7.14-.573a63.172,63.172,0,0,0,6.574-1.713c5.969-1.569,12.192-1.7,18.286-2.52-.27.388-.5.8-.742,1.213s-.467.829-.68,1.252c-3.934.448-7.907.707-11.79,1.34a49.005,49.005,0,0,0-5.8,1.306,38.081,38.081,0,0,1-6.063,1.452c-2.151.26-4.354.081-6.487.494a13.127,13.127,0,0,0-4.977,2.165,19.825,19.825,0,0,0-3.9,3.665,10.607,10.607,0,0,0-2.649,5.056c-.551,4.02,3.468,6.8,5.793,9.444,1.357,1.542,2.211,3.65,4.134,4.566a14.579,14.579,0,0,1,2.647,1.346,8.389,8.389,0,0,1,1.83,2.033c1.13,1.655,1.96,3.345,4.1,3.787a10.019,10.019,0,0,0,5.759-1.028l-.734-.344a1.183,1.183,0,0,1-1.384.173c-.691-.455-.744-1.262-.847-2.018a12.672,12.672,0,0,1-.123-2.227,13.233,13.233,0,0,1,.9-4.355c1.075-2.712,3.075-5.433,6-6.263a1.055,1.055,0,0,1,.818.079,1.383,1.383,0,0,1,.447.11,5.374,5.374,0,0,0-.736-2.045c-.626-.957-1.762-.644-2.759-.707a15.068,15.068,0,0,1-7.29-2.412c-1.233-.807-.082-2.8,1.161-1.985a12.874,12.874,0,0,0,3.635,1.667,17.3,17.3,0,0,0,4.074.46,3.781,3.781,0,0,1,3.288,2.028,8.681,8.681,0,0,1,1,3.583,7.486,7.486,0,0,1,3.8,2.269,1.176,1.176,0,0,1,0,1.626c-.015.014-.034.025-.051.038,1.663.328,3.4-.886,4.7-1.823a16.2,16.2,0,0,1,5.336-2.7c3.641-.973,7.739-.763,10.942-2.991,1.217-.846,2.368,1.145,1.16,1.985-3.57,2.483-8.04,2.159-12.047,3.382-3.947,1.2-7.693,6.48-12.177,3.778a1.055,1.055,0,0,1-.545-.917,7.039,7.039,0,0,0-1.985,3.022,23.749,23.749,0,0,0-1,4.246,29.667,29.667,0,0,1,6.2,6.531,13.739,13.739,0,0,0,3.2,3.507,6.6,6.6,0,0,0,4.462.932c1.5-.116,2.85-.132,3.783-1.415a3.5,3.5,0,0,1,1.4-1.25,7.908,7.908,0,0,1,2.19-.313c.651-.1.346-.832.562-1.385a2.794,2.794,0,0,1,1.218-1.333c.458-.285,1.057-.436,1.35-.923a1.439,1.439,0,0,0-.084-1.587,1.154,1.154,0,0,1,.413-1.573,2.329,2.329,0,0,0,.442-4.194c-.013-.008-.023-.019-.035-.027a.9.9,0,0,1-.257-.053c-.622-.238-1.242-.482-1.867-.711a9.078,9.078,0,0,0-1-.311c-.077-.018-.154-.034-.231-.049-.047-.009-.093-.017-.14-.024l.118.015a1.721,1.721,0,0,0-.494-.036,2.339,2.339,0,0,1-2.16-1.25,1.677,1.677,0,0,1,1.082-2.3,1.173,1.173,0,0,1,1.414.8,1.263,1.263,0,0,1,.011.475,6.949,6.949,0,0,1,.965.141,22.136,22.136,0,0,1,2.911,1.032,1.484,1.484,0,0,1,.265.138,1.1,1.1,0,0,1,.576.174,4.652,4.652,0,0,1,.434,7.647,3.761,3.761,0,0,1-.106,2.251,4.5,4.5,0,0,1-2.338,2.287c-.571.34-.307.846-.494,1.435a2.3,2.3,0,0,1-1.143,1.305,3.91,3.91,0,0,1-1.651.368c-.8.037-1.1.057-1.587.729a4.7,4.7,0,0,1-1.541,1.388,1.169,1.169,0,0,1,.068,1.131c-2.586,5.7-1.135,12.242-.868,18.237a28.391,28.391,0,0,1-.933,9.4c-.92,3.092-2.406,5.994-3.2,9.128-.734,2.91-.84,6.433,1.146,8.9a1.268,1.268,0,0,1-.66,1.991c-.377,4.22,2.857,7.937,6.5,9.632,4.573,2.129,9.853,1.812,14.746,1.463a78.819,78.819,0,0,1,8.086-.323c2.712.086,5.407.433,8.1.762,4.771.584,9.7,1.186,14.425-.017,4.054-1.032,8.161-3.359,9.845-7.387a1.192,1.192,0,0,1,1.376-.808,51.966,51.966,0,0,1,4.187-4.34c1.326-1.217,2.718-2.361,4.157-3.442,1.415-1.062,2.955-1.973,4.316-3.1,6.745-5.61-1.059-13.056-3.213-18.861a10.772,10.772,0,0,1-.207-7.34,15.982,15.982,0,0,1-3.065,2.3c-1.3.716-2.457-1.268-1.161-1.985,3.142-1.737,5.139-4.9,8.118-6.875,2.683-1.776,6.337-2.309,8.964-.224a1.042,1.042,0,0,1,.795.149c5.688,3.506,11.14,7.343,16.48,11.356,5.143,3.866,10.316,7.677,14.849,12.265a34.908,34.908,0,0,0,6.726,5.805c2.336,1.387,4.952,2.21,7.311,3.553a13.687,13.687,0,0,1,3.165,2.408c.888.934,1.594,2.021,2.462,2.972,1.974,2.163,4.779,2.234,7.225.753,2.7-1.637,4.672-4.632,6.332-7.249,1.812-2.856,3.37-6.2,2.668-9.66a1.353,1.353,0,0,1-.025-.246c-2.159-1.883-4.934-2.778-7.545-3.838a22.22,22.22,0,0,1-7.34-4.568c-2.144-2.071-3.929-4.476-6.037-6.582a46.244,46.244,0,0,0-6.538-5.337c-4.687-3.222-9.73-5.876-14.478-9-4.694-3.089-9.544-6.794-12.426-11.725a14.423,14.423,0,0,1-1.772-4.63c-.334-1.8-.343-3.637-.594-5.449a9.885,9.885,0,0,0-5.206-7.618,1.166,1.166,0,0,1-.286-.214,1.1,1.1,0,0,1-.217-.1c-.057-.034-.118-.061-.178-.09a2.591,2.591,0,0,0-.337-.1,2.683,2.683,0,0,0-.507,0,.884.884,0,0,1-.276-.012.856.856,0,0,1-.427-.137,1.17,1.17,0,0,1-.239-.2,8.053,8.053,0,0,1-1.887,1,7.745,7.745,0,0,1-5.672-.276,17.916,17.916,0,0,0-6.231-1.783,18.5,18.5,0,0,0-6.535,1.157c-4.345,1.489-8.219,4.017-12.43,5.813a25.335,25.335,0,0,1-8.833,2.239,11.853,11.853,0,0,1-.493,5.735c-1.207,3.554-4.521,7.926-2.415,11.75.714,1.3-1.271,2.458-1.985,1.16-2.067-3.753-.3-7.776,1.294-11.327a13.236,13.236,0,0,0,1.486-5.781,9.009,9.009,0,0,0-.2-1.627,13.293,13.293,0,0,1-3.182-.756,1.179,1.179,0,0,1-.341.044l-3.511-.075a1.134,1.134,0,0,1-.992-.569c-.669-1.492-1.347-3.054-1.951-4.655a40.577,40.577,0,0,0-7.65,12.41c-.528,1.365-2.751.772-2.216-.611a43.513,43.513,0,0,1,9.018-14.262c-1.492-4.833-1.94-9.893.893-14.442a1.076,1.076,0,0,1,.816-.529,10.091,10.091,0,0,1,1.719-3.214,5.762,5.762,0,0,1-1.865-.776,16.9,16.9,0,0,1-1.961-1.57l-1.326-1.163a1.5,1.5,0,0,1-.675-.509,4.6,4.6,0,0,0-4.2-1.662c-1.867.284-3.348,1.735-5.146,2.26-2,.583-4.1.1-6.109.569a12.529,12.529,0,0,0-1.811.593l-.241-.21a16.572,16.572,0,0,0-1.627-1.5c.687-.3,1.379-.583,2.09-.822a12.179,12.179,0,0,1,3.66-.572,10.969,10.969,0,0,0,3.886-.438c2.115-.831,3.793-2.336,6.2-2.212a6.931,6.931,0,0,1,4.571,2.041,1.316,1.316,0,0,1,.3.193,42.588,42.588,0,0,0,3.324,2.861,3.685,3.685,0,0,0,1.709.74,3.575,3.575,0,0,0,1.795-.28.841.841,0,0,1,.434-.05,10.186,10.186,0,0,1,4.075-1.185,35.371,35.371,0,0,0-2.618-4.551c-1.575-2.492-3.811-5.837-3.039-8.944a5.918,5.918,0,0,1,2.421-3.183c.936-.714,2.313-1.456,2.457-2.751.2-1.784-1.354-3.48-1.783-5.158a4.419,4.419,0,0,1,.987-4.5,1.165,1.165,0,0,1,1.625,0c1.765,1.922,4.113-1.507,5.056-2.668a17.138,17.138,0,0,1,15.57-6.189.985.985,0,0,1,.8-1.239,28.315,28.315,0,0,1,27.018,9.18,2.14,2.14,0,0,1-.065-.39,2.74,2.74,0,0,1,2.258-2.635,51.807,51.807,0,0,1,5.125-1.047,1.131,1.131,0,0,1,.933.206,1.116,1.116,0,0,1,.65.151l6.713,3.806a1.018,1.018,0,0,1,.343.335,16.253,16.253,0,0,1,2.174-1.046,14.593,14.593,0,0,1,19.975,13.693,15.061,15.061,0,0,1-2.819,8.509c-.055.363-.115.727-.2,1.086a.992.992,0,0,1-.665.764,1.152,1.152,0,0,1-2.241.182c-.754-3.088-3.954-4.433-6.742-5.15-1.638-.421-3.307-.715-4.927-1.2a26.862,26.862,0,0,1-4.917-2.054,1.111,1.111,0,0,1-.406-.361c-.216.837-.44,1.673-.7,2.493a4.069,4.069,0,0,1-2.649,2.9,10.233,10.233,0,0,1-4.42.132,4.709,4.709,0,0,1-2.783-1.44,1.828,1.828,0,0,1-1.134-.428l-.028.027a1.147,1.147,0,0,1-.571.288,24.527,24.527,0,0,1-15.037,14.376,9.789,9.789,0,0,1,4.28,1.578,6.533,6.533,0,0,1,2.345,5.247,1.078,1.078,0,0,1,.65.173,7.462,7.462,0,0,1,2.838,9.489,6.283,6.283,0,0,1-.4.689c.05.008.1.014.149.023a3.553,3.553,0,0,1,1.123.435,1.161,1.161,0,0,1,.251.21,1.279,1.279,0,0,1,.251.1,11.954,11.954,0,0,1,5.491,6.052c1.228,3,.761,6.295,1.587,9.381a17.74,17.74,0,0,0,4.841,7.534,44.733,44.733,0,0,0,6.478,5.372c4.71,3.274,9.8,5.947,14.594,9.087a58.882,58.882,0,0,1,6.76,5.07,80.982,80.982,0,0,1,6.135,6.508,23.422,23.422,0,0,0,3.664,3.423,20.807,20.807,0,0,0,4.292,2.251c3.018,1.224,6.109,2.27,8.595,4.457a.991.991,0,0,1,.369.76,1.1,1.1,0,0,1,.212.471,13.147,13.147,0,0,1-.952,7.748l6.359,5.144a1.17,1.17,0,0,1,.084,1.544,1.116,1.116,0,0,1,1.382.453c1.5,2.341,4.521,2.761,7.068,2.434,3.127-.4,6.072-1.655,9.208-2.054a.82.82,0,0,1,.442.068,3.692,3.692,0,0,1,2.784,2.381c.625,1.452,1.042,2.975,1.718,4.411a26.572,26.572,0,0,1,2.049,4.186,3.4,3.4,0,0,1-1.265,3.79,1.153,1.153,0,0,1-.338.158,3.817,3.817,0,0,1,.056.793,3.64,3.64,0,0,1-.882,2.212c3.662,3.986,5.022,9.367,6.725,14.39a28.556,28.556,0,0,0,3.874,7.893,31.5,31.5,0,0,0,5.576,5.658,85.677,85.677,0,0,0,7.624,5.348,1.164,1.164,0,0,1,0,1.985c-3.794,2.345-8.405,2.526-12.668,1.6a40.705,40.705,0,0,1-6.926-2.325,27.774,27.774,0,0,1-5.533-2.731,10.757,10.757,0,0,1-.917-.741,1.188,1.188,0,0,1-.289-.149,21.34,21.34,0,0,1-6.934-8.256,20.819,20.819,0,0,1-1.663-5.106c-.264-1.448-.239-3.246-1.307-4.361l-1.421,3.782-3.093,8.234c-.416,1.108-2.427,1.081-2.257-.306l1.679-13.694c-.917,1.283-1.747,2.63-2.554,3.992-1.541,2.6-3.068,5.214-4.6,7.822-.641,1.089-2.546.375-2.1-.886l8.475-24c-.507-.284-1.008-.577-1.5-.871a72.3,72.3,0,0,1-8.95-6.317c-.007.012-.01.025-.018.037a1.162,1.162,0,0,1-1.573.412l-6.494-4.84a1.484,1.484,0,0,1-.493-.641,9.331,9.331,0,0,1-4.893,1.665c-3.068.1-5.038-1.759-6.81-4.014a12.825,12.825,0,0,0-3.012-2.933,26.8,26.8,0,0,0-3.849-1.99,29.978,29.978,0,0,1-7.619-4.5c-2.458-2.1-4.58-4.564-6.979-6.732-2.562-2.314-5.318-4.4-8.067-6.481-6.4-4.851-12.865-9.579-19.7-13.8a.6.6,0,0,1-.1.009,2.053,2.053,0,0,0-.2-.153c-.079-.056-.125-.089-.054-.029l-.04-.023c-.046-.026-.059-.03-.056-.025a2.223,2.223,0,0,0-.918-.345c-2.232-1.564-5.283-.152-7.146,1.4-.381.318-.748.654-1.11.994.012.007.022.017.034.024a1.89,1.89,0,0,0-.411.733c-.066.226-.11.463-.155.7-.013.036-.03.069-.041.107-.03.111-.049.225-.073.337a5.689,5.689,0,0,0-.212,1.122,9.669,9.669,0,0,0-.109,1.031c-.005.063,0,.126,0,.189a9.871,9.871,0,0,0,.9,6.247c1.534,3.3,3.93,6.141,5.024,9.647a9.567,9.567,0,0,1-1.2,8.844c10.505,11.927,12.61,28.466,11.374,43.8a.945.945,0,0,1,.988.577,66.924,66.924,0,0,0,15.578,20.643c3.041,2.716,6.512,4.9,9.52,7.647a14.965,14.965,0,0,1,5.256,10.984,40.163,40.163,0,0,1-.815,7.964c-.078.433-.167.863-.254,1.294a.986.986,0,0,1,.952.116c6.825,4.494,9.67,12.41,13.583,19.2,1.977,3.431,4.332,6.715,7.669,8.941,3.617,2.414,7.962,4.14,9.621,8.512a16.331,16.331,0,0,1,.538,7.61c-.312,2.766-.73,5.522-1.1,8.28q-.581,4.3-1.16,8.609c-.281,2.065-.853,4.381-3.177,4.959a5.069,5.069,0,0,1-5.39-2.616c-1.183-2.136-1.086-4.65-1.329-7.006a42.765,42.765,0,0,0-4.143-14.342,48.99,48.99,0,0,0-10.258-13.586c-4.152-4.013-8.645-7.664-12.629-11.851-.4.7-.823,1.395-1.251,2.082a2.662,2.662,0,0,0-.576-.215c-3.451,4.972-7.46,9.869-13.5,11.592-3.433.98-6.64.3-10-.61-3.317-.9-6.431-1.135-9.631.332-5.93,2.72-9.554,8.4-13.66,13.18a30.086,30.086,0,0,1-7.084,6.349,21.875,21.875,0,0,1-9.552,2.837c-3.506.3-7.027.079-10.54.154a31.942,31.942,0,0,0-10.428,1.888c-3.265,1.185-6.422,2.693-9.795,3.567a23.884,23.884,0,0,1-9.981.4c-14.394-2.4-23.329-15.013-32.625-24.946a69.713,69.713,0,0,0-7.738-7.244,1.081,1.081,0,0,1-.5.636,272,272,0,0,0-25.907,18,1.393,1.393,0,0,0-.277.208,2.236,2.236,0,0,0-.331.322,2.378,2.378,0,0,1-.278.272c-.239.176-.48.352-.7.549s-.462.428-.7.635c-.409.353-.784.743-1.206,1.094-.063.042-.116.089-.172.134a50.047,50.047,0,0,0-13.131,12.674c-1.784,2.65-3.013,6.066-5.789,7.877-3.277,2.136-6.789.293-9.864-1.228a17.288,17.288,0,0,0-6.433-1.711,60.1,60.1,0,0,1-6.214-.582c-3.475-.652-6.894-2.492-8.167-5.963a1.369,1.369,0,0,1-.039-.152,1.527,1.527,0,0,1-.252-.682C837.715,388.167,836.826,385.878,837.03,383.476Zm102.1-207.205c-.092-.035-.183-.071-.275-.1a19,19,0,0,0-3.223-.735.742.742,0,0,1-.1-.034,7.963,7.963,0,0,0-3.987,4.5,11,11,0,0,0-.789,3.237,11.633,11.633,0,0,0,.01,2.3,1.316,1.316,0,0,1,.785.112l2.811,1.318.277.129a27.045,27.045,0,0,1,1.38-6.481A9.378,9.378,0,0,1,939.128,176.271Zm120.422-51.419c.683,1.427.153,2.992-.232,4.419-.054.2-.106.406-.159.609a1.087,1.087,0,0,1,1.159-.045,24,24,0,0,0,5.251,2.071c1.833.483,3.712.789,5.516,1.38a12.448,12.448,0,0,1,4.6,2.609,5.853,5.853,0,0,0-1.062-1.575,16.3,16.3,0,0,0-4.688-3.068,1.15,1.15,0,0,1,1.16-1.985,18.179,18.179,0,0,1,5.058,3.337,11.43,11.43,0,0,0-6.992-7.314c-1.383-.5-.786-2.717.611-2.216a14.033,14.033,0,0,1,7.355,5.976,13.348,13.348,0,0,1,1.612,4.289,12.26,12.26,0,0,0-1.089-9.993,12.4,12.4,0,0,0-13.665-5.678c-2.639.668-5.828,2.342-6.842,5.05l.08.042A5.036,5.036,0,0,1,1059.55,124.852Zm-9.891,8.8c.7,1.293,2.433,1.181,3.706,1.155a3.664,3.664,0,0,0,1.666-.273,2.219,2.219,0,0,0,.887-1.487c.445-1.511.822-3.045,1.232-4.566.3-1.107.871-2.413-.22-3.226-1.576-1.174-3.791-1.7-3.823-4.09a4.059,4.059,0,0,1,2.677-3.74l-4.483-2.542a.975.975,0,0,1-.1-.072c-1.566.3-3.189.521-4.717.958-.119.034-.725.178-.729.354,0-.075.284.226.181.111.331.371,1.036.424,1.485.545a3.436,3.436,0,0,1,2.75,2.231c.349,1.415-.665,2.567-1.7,3.368-.354.274-1.321.874-1,1.337.259.37,1.175.5,1.554.731a3.74,3.74,0,0,1,1.73,3.144,8.987,8.987,0,0,1-1.914,5.523A1.162,1.162,0,0,1,1049.659,133.653Zm-4.527-1.545a1.132,1.132,0,0,1,1.913-.475,9.069,9.069,0,0,0,.992-1.861c.375-.971.862-2.61-.172-3.34-.529-.374-1.209-.48-1.742-.863a2.5,2.5,0,0,1-1.019-1.492c-.367-1.685,1.074-2.729,2.18-3.678.375-.321.924-.722.384-1.092a6.289,6.289,0,0,0-1.675-.522,4.919,4.919,0,0,1-1.345-.665,1.323,1.323,0,0,1-.853,1.5c.034.032.072.06.106.092a1.15,1.15,0,0,1-1.626,1.626,11.5,11.5,0,0,0-7.409-3.172,1.173,1.173,0,0,1-1.149-1.15,1.161,1.161,0,0,1,1.149-1.149,13.912,13.912,0,0,1,6.927,2.192,26.043,26.043,0,0,0-22.913-8.7,18.138,18.138,0,0,1,2.217.857l-1.137,2a15.009,15.009,0,0,0-17.964,4.03,20.072,20.072,0,0,1-2.441,2.781,4.879,4.879,0,0,1-4.923.95,4.628,4.628,0,0,0,.618,2.824c.752,1.562,1.607,3.2,1.268,4.992a4.045,4.045,0,0,1-.538,1.369,6.8,6.8,0,0,0,8.347,1.4c1.294-.72,2.455,1.265,1.16,1.985a9.127,9.127,0,0,1-11.076-1.7c-.048.039-.094.078-.142.115-.962.745-2.353,1.48-2.641,2.766-.345,1.544.584,3.307,1.292,4.628.746,1.394,1.633,2.707,2.467,4.05a22.107,22.107,0,0,1,2.3,4.685,1.06,1.06,0,0,1,.242.687c0,.022-.006.046-.007.069a10.619,10.619,0,0,1,.351,3.533c-.292,3.878-2.4,7.295-4.937,10.132a1.063,1.063,0,0,1-.523.332,24.651,24.651,0,0,0-.145,4.39,1.141,1.141,0,0,1-.069.475c7.955-2.11,15.2-6.658,22.938-9.376a1.519,1.519,0,0,1,.1-.307,31.844,31.844,0,0,1,6.993-9.559,1.188,1.188,0,0,1,1.972.971l1.148.235A22.157,22.157,0,0,0,1045.132,132.108Zm-7.344,26.859a9.7,9.7,0,0,1-.412,1.331,1.185,1.185,0,0,1-1.414.8,1.157,1.157,0,0,1-.8-1.414c.861-2.176,1.072-5.479-1.315-6.787a8.4,8.4,0,0,0-2.357-.714q-1.517-.312-3.035-.619l-2.8-.572c-.65.052-1.306.08-1.967.079a1.043,1.043,0,0,1-.91-.473,30.034,30.034,0,0,0-4.21,5.781,31.833,31.833,0,0,1,8.564-1.227,1.15,1.15,0,0,1,0,2.3c-12.731-.021-23.152,9.048-35.229,11.8a1.17,1.17,0,0,1-.956-2.074,1.11,1.11,0,0,1-.575-.943,26.467,26.467,0,0,1,2.567-12.855,1.159,1.159,0,0,1,1.572-.413,1.175,1.175,0,0,1,.413,1.573,23.1,23.1,0,0,0-.982,2.43A12.022,12.022,0,0,0,996,150.763a8.647,8.647,0,0,0-.186-1.879,7.73,7.73,0,0,0-5.187,1.941,7.836,7.836,0,0,0-2.547,5.753,1.158,1.158,0,0,1-1.758.96,15.509,15.509,0,0,0,.066,9.135c.161-.15.312-.308.475-.456,1.1-.989,2.726.631,1.626,1.626-.458.413-.9.845-1.337,1.279.582,1.646,1.269,3.25,1.945,4.768l2.606.056a.935.935,0,0,1,.874-.043,12.5,12.5,0,0,0,1.9.584,9.009,9.009,0,0,0-.909-1.377c-.922-1.14.694-2.777,1.625-1.625A12.051,12.051,0,0,1,997.1,174.8c6.34.091,12.488-4.293,18.092-6.762,3.624-1.6,7.594-2.882,11.6-2.394a21.61,21.61,0,0,1,5.545,1.765,5.6,5.6,0,0,0,4.915.057A4.986,4.986,0,0,0,1037.788,158.967Zm84.8,113.748a6.468,6.468,0,0,1,1.938,4.318,22.054,22.054,0,0,0,1.309,5.126,18.85,18.85,0,0,0,2.422,4.228c-.213-1.338-.271-2.71-.349-4.052a17.851,17.851,0,0,0-1.133-6,13.6,13.6,0,0,0-1.518-2.674,11.952,11.952,0,0,0-.99-1.189c-.279-.3-.995-1.217-1.4-1.269-.245-.031-.08-.117-.314.038-.21.138-.328.633-.415.859-.046.118-.088.236-.133.354A1.186,1.186,0,0,1,1122.591,272.715Zm-2.5-1.645a3.4,3.4,0,0,1,1.776-2.092,2.884,2.884,0,0,1,2.924.812,14.832,14.832,0,0,1,3.848,5.1,17.9,17.9,0,0,1,1.495,6.212,31.475,31.475,0,0,0,.708,6.332,7.646,7.646,0,0,0,4.034,4.64,46.851,46.851,0,0,0,6.351,2.727c4.25,1.545,9.095,2.484,13.348.745-4.02-2.639-8-5.469-11.1-9.167a26.954,26.954,0,0,1-4.306-7.239c-1.139-2.8-1.914-5.727-2.94-8.568a21.177,21.177,0,0,0-4.887-8.262,1.06,1.06,0,0,1-.339-.68c-.2-.061-.4-.119-.581-.161-.843-.191-1.692-.369-2.549-.49a18.618,18.618,0,0,0-5.17.1,12.88,12.88,0,0,1-2.888.117l-1.9,15.484C1118.616,274.8,1119.329,272.925,1120.086,271.07Zm-7.155,2.151a33.027,33.027,0,0,1,3.706-4.88l.945-7.7c-.061-.024-.119-.054-.179-.079Zm-.786-18.33a36.339,36.339,0,0,0,6.25,3.618c2.31.926,4.65.037,7.028.01a27.361,27.361,0,0,1,6.737,1,1.666,1.666,0,0,0-.1-1.237,2.954,2.954,0,0,0-2.024-1.3c-1.845-.475-3.785-.254-5.578-.987-1.351-.552-.76-2.777.611-2.216,2.633,1.076,5.769.247,8.072,2.234a3.96,3.96,0,0,1,.356.354,1.123,1.123,0,0,1,.152-.128c.636-.437.112-1.563-.142-2.051-.558-1.072-1.166-2.107-1.665-3.211a35.191,35.191,0,0,1-1.315-3.347c-.247-.741-.549-1.973-1.538-1.885a.853.853,0,0,1-.215-.009c-3.443.5-6.677,2.012-10.2,2.1a8.778,8.778,0,0,1-7.587-3.445,15.184,15.184,0,0,1-4.317,6.459C1108.433,252.286,1110.253,253.639,1112.145,254.891Zm-8.433-4.631a12.823,12.823,0,0,0,5.475-7.9.839.839,0,0,1,.04-.113l-5.264-4.259a36.831,36.831,0,0,1-4.891,6.9c-.344.385-.713.749-1.092,1.1ZM885.089,355.226l-.152.157c0,.039,0,.078,0,.118.015.066.033.132.054.2a1.16,1.16,0,0,0,.36.446l-.046-.036a1.245,1.245,0,0,1,.41.513q1.657-1.608,3.282-3.25a27.56,27.56,0,0,0-3.287,1.69A1.092,1.092,0,0,1,885.089,355.226ZM1065.7,347.2c6.668,7.082,14.862,12.687,20.389,20.815a45.2,45.2,0,0,1,7.446,19.871c.278,2.2.03,4.812,1.127,6.814.886,1.618,3.318,2.382,4,.212a21.22,21.22,0,0,0,.566-3.5l.555-4.117,1.11-8.236a27.269,27.269,0,0,0,.4-7.294c-.648-4.719-4.783-6.545-8.395-8.808a25.728,25.728,0,0,1-7.878-8.04c-4.452-6.868-6.94-15.854-14.091-20.563a1.353,1.353,0,0,1-.21-.172q-.579,2.49-1.339,4.935a1.085,1.085,0,0,1-.693.731,65.071,65.071,0,0,1-3.235,7.157A1.2,1.2,0,0,1,1065.7,347.2Zm-144.414,11c10.492,8.995,17.67,22.076,30.609,28.024a25.963,25.963,0,0,0,9.572,2.448,25.359,25.359,0,0,0,10.153-1.935,80.352,80.352,0,0,1,9.663-3.454,44.336,44.336,0,0,1,10.616-.815,46.309,46.309,0,0,0,10.263-.6,18.34,18.34,0,0,0,8.491-4.473c4.742-4.3,7.922-10.044,12.9-14.113a18.831,18.831,0,0,1,8.253-4.208c3.462-.651,6.586.372,9.912,1.2a12.885,12.885,0,0,0,9.711-1.231,24.353,24.353,0,0,0,7.453-6.977c1.026-1.374,1.985-2.8,2.943-4.216a1.118,1.118,0,0,1,.851-.511,60.407,60.407,0,0,0,3.172-6.494c.553-1.339,1.054-2.7,1.514-4.072a1.117,1.117,0,0,1,.506-.633,50.833,50.833,0,0,0,2.034-11.79,13.087,13.087,0,0,0-1.083-6.319,15.094,15.094,0,0,0-3.488-4.4c-3.008-2.744-6.48-4.931-9.521-7.647a68.131,68.131,0,0,1-8.419-9.036,68.822,68.822,0,0,1-6.821-10.73c-.464,4.378-1.12,8.734-1.845,13.076-.243,1.455-2.459.838-2.217-.611,2.637-15.784,4.549-32.857-2.331-47.886a40.252,40.252,0,0,0-6.291-9.811c-.848.714-1.774,1.345-2.682,1.968a52.487,52.487,0,0,0-4.435,3.379,51.442,51.442,0,0,0-8.265,8.964,1.156,1.156,0,0,1-.748.479,17.315,17.315,0,0,1-6.7,4.248c-4.792,1.749-9.91,1.555-14.9,1-2.941-.328-5.872-.765-8.827-.952a66.558,66.558,0,0,0-9,.211c-5.432.391-11.08.677-16.176-1.6a14.45,14.45,0,0,1-4.333-3,71.255,71.255,0,0,1-13.407,34.939c-.372.506-.76,1-1.145,1.495,2.515-1.819,5.076-3.576,7.621-5.352,6.111-4.265,12.227-8.783,16.8-14.744a1.19,1.19,0,0,1,1.573-.412,1.154,1.154,0,0,1,.412,1.572c-8.263,10.759-20.674,16.712-30.9,25.258a123.912,123.912,0,0,0-15.553,16.2C912.112,320.8,907.1,327.06,902.05,333.28l-15,18.465a28.861,28.861,0,0,1,16.935-2.419C910.521,350.392,916.331,353.947,921.291,358.2Zm-81.009,32.149a1.237,1.237,0,0,1,.235.393c1.025,2.795,4.25,3.994,6.954,4.425,3.656.583,7.438.185,10.938,1.608,2.789,1.134,6.382,4.08,9.408,2.077a9.863,9.863,0,0,0,2.768-3.409c.822-1.4,1.611-2.813,2.543-4.148A53.6,53.6,0,0,1,887.1,378.051a1.373,1.373,0,0,0,.265-.185c.068-.047.134-.1.2-.141,0-.015,0-.029.005-.043a5.111,5.111,0,0,0,.448-.423,6.543,6.543,0,0,0,.528-.669l0,0c.069-.066.132-.138.2-.208a276.052,276.052,0,0,1,27.484-19.242,36.243,36.243,0,0,0-6.253-3.616,26.31,26.31,0,0,0-17.616-1.316,1.071,1.071,0,0,1-.214,1.251q-6.342,6.573-13.285,12.519c.01.01.019.022.029.032a99.365,99.365,0,0,1-18.024,13.331,70.424,70.424,0,0,1-12.567,5.574c0,.031.013.058.016.091.011.062.009.125.014.188a1.917,1.917,0,0,1,.3.078,2.693,2.693,0,0,1,.974.639,3.258,3.258,0,0,1,.592.874,2.83,2.83,0,0,1,1.991.5,3.916,3.916,0,0,1,1.334,3.77,1.185,1.185,0,0,1-1.149,1.149,1.156,1.156,0,0,1-1.15-1.149,2.406,2.406,0,0,0-.222-1.774c-.136-.162-.471-.353-.656-.177a1.162,1.162,0,0,1-1.921-.507c-.1-.334-.191-.907-.511-1.128a1.046,1.046,0,0,0-.438-.105,1.662,1.662,0,0,1-.846-.383,1.88,1.88,0,0,1-.575-1.326c-.022-.28.034-.561-.222-.746-.336-.242-1.028-.113-1.426-.251a2.339,2.339,0,0,1-1.181-.962c-.554-.855-.529-1.985-1.152-2.8-.57-.742-1.292-.491-1.838.153a4.515,4.515,0,0,0-.928,2.654C839.184,385.944,839.979,388.141,840.282,390.349Z"/>
      <path id="パス_2325" data-name="パス 2325" d="M956.148,220.05l.134-.729a1.16,1.16,0,0,1,2.1-.275,263.007,263.007,0,0,0,13.091,26.12,1.15,1.15,0,0,1-1.985,1.16,263.054,263.054,0,0,1-12.566-24.93A1.185,1.185,0,0,1,956.148,220.05Z"/>
      <path id="パス_2326" data-name="パス 2326" d="M1014.458,137.917c2.285-1.581,5.037-2.393,7.155-4.229a12.779,12.779,0,0,0,2.658-16.329,1.15,1.15,0,0,1,1.985-1.16,15.256,15.256,0,0,1-.139,15.705,4.987,4.987,0,0,1,4.862,4.931,5.163,5.163,0,0,1-1.519,3.539,5.341,5.341,0,0,1-3.968,1.406,9.686,9.686,0,0,1-4.769-1.775,1.175,1.175,0,0,1-.412-1.572,1.161,1.161,0,0,1,1.572-.413,7.616,7.616,0,0,0,3.748,1.466,3.224,3.224,0,0,0,1.669-.351,2.4,2.4,0,0,0,1.027-1.034,2.568,2.568,0,0,0-.028-2.651,2.688,2.688,0,0,0-1.068-.956,2.01,2.01,0,0,0-.675-.245c-.064-.015-.13-.027-.2-.039l-.09-.008c-.161,0-.318-.008-.479,0a1.094,1.094,0,0,1-.962-.537,16.565,16.565,0,0,1-4.846,3.845c-2.342,1.251-5.049,2.256-6.535,4.6a8.193,8.193,0,0,0-.514,7.878c.648,1.324-1.334,2.49-1.985,1.16A10.48,10.48,0,0,1,1014.458,137.917Z"/>
    </g>
  </g>
</svg>
