<svg xmlns="http://www.w3.org/2000/svg" viewBox="0 0 1658.968 323.679">
  <g transform="translate(-79.68 -1958.925)">
    <path d="M7210.13,2120.51c870.179-184.337,1408.317-136.546,1540.809-131.084,124.313,320.885-1270.577,247.828-1411.9,225.411S7210.13,2120.51,7210.13,2120.51Z" transform="translate(-7020.121 44.599)" fill="#c24b00"/>
    <path d="M7257.055,2047.679c211.646,23.213,606.264,94.217,770.118,116.065-135.18-196.626-157.025-204.82-157.025-204.82C7870.382,1958.925,7257.055,2047.679,7257.055,2047.679Z" transform="translate(-6919.622 0)" fill="#6b2900"/>
    <path d="M7470.446,2215.467s279.92-191.164,419.229-244.279c-66.939,252.472-67.411,257.856-67.411,257.856Z" transform="translate(-6465.302 26.108)" fill="#8f3700"/>
    <path d="M7174.682,2151.2l861.286-145.328-660.885-27.309Z" transform="translate(-7095.002 41.808)" fill="#eb9864"/>
  </g>
</svg>
